<?xml version="1.0" standalone="no"?>
<!DOCTYPE svg PUBLIC "-//W3C//DTD SVG 20010904//EN"
 "http://www.w3.org/TR/2001/REC-SVG-20010904/DTD/svg10.dtd">
<svg version="1.0" xmlns="http://www.w3.org/2000/svg"
 width="556.000000pt" height="556.000000pt" viewBox="0 0 556.000000 556.000000"
 preserveAspectRatio="xMidYMid meet">

<g transform="translate(0.000000,556.000000) scale(0.100000,-0.100000)"
fill="#000000" stroke="none">
<path d="M2200 2995 c-108 -34 -160 -115 -168 -259 -9 -173 29 -260 135 -312
50 -25 70 -29 143 -29 78 0 175 18 185 35 2 4 -3 30 -13 59 -14 45 -19 51 -37
46 -135 -38 -219 -19 -250 57 -18 46 -19 168 -1 218 7 19 28 45 47 58 30 21
42 23 109 19 41 -3 83 -7 93 -9 14 -2 24 9 38 46 11 27 18 51 15 53 -2 2 -28
11 -57 19 -68 17 -180 17 -239 -1z"/>
<path d="M3045 3001 c-69 -17 -125 -62 -161 -131 -16 -29 -19 -57 -19 -170 0
-120 2 -140 22 -176 28 -52 69 -87 128 -109 56 -22 219 -17 278 8 l37 16 0
130 0 131 -65 0 -64 0 -3 -87 -3 -88 -46 -3 c-105 -7 -139 37 -139 176 0 158
37 199 170 189 36 -3 75 -8 86 -12 19 -6 24 -1 39 45 9 28 15 53 13 55 -2 2
-30 11 -63 20 -61 16 -158 18 -210 6z"/>
<path d="M1490 2699 l0 -301 163 4 c137 3 168 6 202 23 100 50 126 206 45 267
l-29 21 24 29 c49 58 41 155 -16 209 -40 38 -98 49 -253 49 l-136 0 0 -301z
m272 161 c42 -52 8 -101 -75 -108 l-57 -4 0 72 0 72 57 -4 c43 -4 61 -10 75
-28z m8 -210 c27 -15 36 -74 16 -105 -15 -23 -23 -25 -86 -25 l-70 0 0 70 0
70 61 0 c33 0 69 -5 79 -10z"/>
<path d="M3630 2996 c0 -2 27 -75 60 -162 33 -88 60 -162 60 -166 0 -5 -20 -8
-45 -8 -25 0 -45 3 -45 8 0 4 9 31 20 60 l20 52 -68 0 c-65 0 -69 -1 -81 -27
-21 -45 -131 -327 -131 -335 0 -5 34 -8 74 -8 l75 0 22 60 22 60 92 0 92 0 24
-60 24 -60 78 0 c71 0 78 2 73 18 -4 9 -57 142 -117 295 l-111 277 -69 0 c-38
0 -69 -2 -69 -4z"/>
<path d="M4090 2705 l0 -295 70 0 70 0 0 178 0 177 78 -132 c42 -73 79 -133
82 -133 3 0 60 94 127 208 68 114 134 226 149 250 l26 43 -79 -3 -78 -3 -69
-127 c-38 -71 -72 -128 -75 -128 -4 0 -38 57 -76 128 l-70 127 -78 3 -77 3 0
-296z"/>
<path d="M4810 2695 l0 -285 230 0 230 0 0 29 c0 16 3 43 6 60 l7 31 -162 0
-161 0 0 55 0 55 129 0 c143 0 141 -1 141 71 l0 39 -135 0 -135 0 0 55 0 55
149 0 148 0 10 60 10 60 -234 0 -233 0 0 -285z"/>
<path d="M602 2808 c-15 -15 -15 -51 0 -66 28 -28 78 -7 78 33 0 27 -18 45
-45 45 -12 0 -26 -5 -33 -12z"/>
<path d="M4560 2590 l0 -180 70 0 70 0 0 180 0 180 -70 0 -70 0 0 -180z"/>
<path d="M2640 2470 l0 -60 60 0 60 0 0 60 0 60 -60 0 -60 0 0 -60z"/>
</g>
</svg>
