<svg id="Component_18_22" data-name="Component 18 – 22" xmlns="http://www.w3.org/2000/svg" width="223.995" height="64" viewBox="0 0 223.995 64"><defs><clipPath id="clip-path"><path id="Path_990" data-name="Path 990" d="M1.45 1.65h223.995v64H1.45z" transform="translate(-1.45 -1.65)" fill="none"/></clipPath></defs><g id="logo-gamcare-desktop_29390597" clip-path="url(#clip-path)"><path id="Path_987" data-name="Path 987" d="M87.424 26.66a.738.738 0 0 1-.464.391l-4.24 1.257c-.519.15-.788 0-1-.519a4.37 4.37 0 0 0-4.679-3.342c-3.991 0-5.357 2.364-5.357 5.547v7.323c0 3.183 1.347 5.547 5.357 5.547 3.3 0 4.988-1.536 4.988-4.879v-1h-4.31a.549.549 0 0 1-.589-.629v-3.968a.559.559 0 0 1 .589-.629h9.6a.549.549 0 0 1 .629.589V38.4c0 5.786-4.25 10.146-10.855 10.146-7.832 0-11.493-4.639-11.493-10.974v-7.738c0-6.375 3.661-10.974 11.493-10.974 6.335 0 9.2 3.612 10.346 7.233m21.55 7.2v14.2a.559.559 0 0 1-.589.589h-4.33a.569.569 0 0 1-.629-.589v-2.325a6.834 6.834 0 0 1-5.986 3.342c-4.09 0-6.734-2.634-6.734-6.684s2.484-6.3 8.54-6.724a25.85 25.85 0 0 1 3.931 0v-1.616c0-2.125-1.1-2.993-2.993-2.993a2.7 2.7 0 0 0-2.993 2c-.2.469-.349.549-.788.429l-4.33-1.1c-.429-.12-.469-.359-.389-.668.589-3.113 3.542-5.4 8.73-5.4 5.467 0 8.54 2.6 8.54 7.482m-5.786 7.433v-1.985a24.5 24.5 0 0 0-3.462.12c-2.195.269-3.382.938-3.382 2.634 0 1.526 1 2.354 2.714 2.354a4.2 4.2 0 0 0 4.13-3.063m21.43-14.915A5.5 5.5 0 0 1 130 29.8c1.616-2.364 3.582-3.991 6.335-3.991 3.811 0 5.986 2.993 5.986 7.552v14.132a.639.639 0 0 1-.708.589h-4.519a.638.638 0 0 1-.708-.589v-13.1c0-2-.868-3.153-2.4-3.153s-2.793 1.347-3.382 3.392v12.86a.549.549 0 0 1-.549.589h-4.895c-.349 0-.509-.239-.509-.589v-13.1c0-2-.868-3.153-2.4-3.153s-2.833 1.417-3.382 3.432v12.82a.539.539 0 0 1-.589.589h-4.8a.539.539 0 0 1-.589-.589v-20.65a.549.549 0 0 1 .589-.549h4.6a.539.539 0 0 1 .589.549v2.474a7.365 7.365 0 0 1 5.986-3.5m42.411.479c.12.509 0 .9-.509 1l-4.17 1.217a.658.658 0 0 1-.938-.509c-.6-2-1.616-3.542-4.529-3.542-3.582 0-4.719 2.364-4.719 5.547v7.323c0 3.183 1.3 5.547 4.719 5.547 3.073 0 4.25-1.736 4.719-3.9a.648.648 0 0 1 .948-.509l4.18 1.357a.768.768 0 0 1 .509 1c-1 4.25-4.051 7.7-10.426 7.7-7.153 0-10.775-4.639-10.775-10.974v-7.717c0-6.375 3.691-10.974 10.775-10.974 6.215 0 9.129 3.3 10.226 7.472M188 33.3v14.2a.559.559 0 0 1-.589.589h-4.33a.569.569 0 0 1-.629-.589v-2.332a6.834 6.834 0 0 1-5.986 3.342c-4.09 0-6.724-2.634-6.724-6.684s2.474-6.3 8.53-6.724a25.94 25.94 0 0 1 3.941 0v-1.616c0-2.125-1.107-2.993-2.993-2.993a2.724 2.724 0 0 0-2.993 2c-.19.469-.349.549-.788.429l-4.32-1.1c-.439-.12-.479-.359-.4-.668.589-3.113 3.542-5.4 8.739-5.4 5.467 0 8.53 2.6 8.53 7.482m-5.776 7.433v-1.985a24.4 24.4 0 0 0-3.462.12c-2.2.269-3.382.938-3.382 2.634 0 1.526 1 2.354 2.714 2.354a4.21 4.21 0 0 0 4.13-3.063m22.637-14.047v4.21c0 .509-.2.708-.708.708h-.638c-3.143 0-4.988 1.417-5.617 3.781v12.112a.549.549 0 0 1-.519.589h-4.988a.549.549 0 0 1-.519-.589V26.841a.529.529 0 0 1 .589-.549h4.489c.469 0 .589.309.589.629v2.913a6.834 6.834 0 0 1 6.375-3.851c.788 0 1 .12 1 .668m7.672 12.3v.828c0 2.285 1.187 3.891 3.991 3.891s3.462-1 4.17-2.315c.349-.589.509-.668 1.137-.4l3.1 1.576c.639.319.678.629.4 1.217-1.337 2.993-4.679 4.759-8.849 4.759-6.3 0-9.6-3.731-9.6-8.849v-4.985c0-4.988 3.1-8.859 9.558-8.859 6.136 0 9.129 3.9 9.129 8.74v3.462c0 .589-.2 1-1 1zm0-4.6v.749h7.592v-.748a3.472 3.472 0 0 0-3.771-3.781 3.512 3.512 0 0 0-3.821 3.781" transform="translate(-1.6 -10.29)"/><path id="Path_988" data-name="Path 988" d="M28.656 1.65H2.258a.8.8 0 0 0-.808.8v38.39a24.812 24.812 0 0 0 24.812 24.8h2.394a24.8 24.8 0 0 0 24.8-24.8V26.452a24.8 24.8 0 0 0-24.8-24.8m16.831 39.605c0 9.338-6.854 16.392-17.529 16.392-12.64 0-18.547-7.5-18.547-17.738V27.41c0-10.3 5.906-17.788 18.527-17.788 10.226 0 14.865 5.846 16.711 11.693a1.187 1.187 0 0 1-.749 1.635l-6.864 2c-.818.249-1.267 0-1.516-.828-1.087-3.492-3.372-5.4-7.562-5.4-6.485 0-8.64 3.811-8.64 8.979v11.84c0 5.148 2.155 8.979 8.64 8.979 5.337 0 8.131-2.484 8.131-7.882v-1.546h-7.153a.888.888 0 0 1-1-1V31.54a.928.928 0 0 1 1-1h15.533a.888.888 0 0 1 1 .948z" transform="translate(-1.45 -1.65)" fill="#2e008b"/><path id="Path_989" data-name="Path 989" d="M71.456 56.655a.15.15 0 0 1-.09.219l-.7.219c-.11 0-.17 0-.219-.09a1.7 1.7 0 0 0-1.786-1.267 1.776 1.776 0 0 0-2 2v2.644a1.776 1.776 0 0 0 2 2c1.127 0 1.866-.519 1.866-1.686v-1h-1.635c-.09 0-.14 0-.14-.15v-.554c0-.1 0-.15.14-.15h2.534a.14.14 0 0 1 .16.15v1.836a2.644 2.644 0 0 1-2.923 2.654 2.754 2.754 0 0 1-3.063-2.994v-2.8a2.754 2.754 0 0 1 3.063-2.993 2.684 2.684 0 0 1 2.793 1.935m5.387 4.769v-1a11.239 11.239 0 0 0-1.417 0c-.878.1-1.407.409-1.407 1.137a1 1 0 0 0 1.181 1.057 1.756 1.756 0 0 0 1.644-1.191m1-2.554v4.36c0 .09 0 .13-.15.13h-.7c-.1 0-.15 0-.15-.13v-.828a2.175 2.175 0 0 1-1.866 1.068 1.816 1.816 0 0 1-2-1.866c0-1.167.788-1.806 2.325-1.925a10.914 10.914 0 0 1 1.506 0v-.735c0-.838-.489-1.187-1.277-1.187a1.137 1.137 0 0 0-1.287.838c0 .11-.08.12-.2.1l-.678-.19c-.11 0-.14-.08-.11-.17.209-.878 1-1.447 2.3-1.447s2.275.639 2.275 2m4.589-2.015a1.546 1.546 0 0 1 1.526 1.147 2.225 2.225 0 0 1 1.856-1.147A1.725 1.725 0 0 1 87.5 58.79v4.4c0 .1-.06.14-.16.14h-.688c-.11 0-.16 0-.16-.14v-4.2c0-.778-.349-1.2-1-1.2a1.626 1.626 0 0 0-1.387 1.2v4.22c0 .1 0 .14-.14.14H83.2c-.11 0-.14 0-.14-.14v-4.22c0-.778-.339-1.2-1-1.2a1.7 1.7 0 0 0-1.387 1.2v4.17c0 .1 0 .14-.14.14h-.758c-.11 0-.14 0-.14-.14v-6.066c0-.08 0-.13.14-.13h.738c.11 0 .14.05.14.13v.838a2.155 2.155 0 0 1 1.776-1.087m7.921 2.584v1.477a1.506 1.506 0 0 0 1.586 1.606c.918 0 1.467-.539 1.467-1.606v-1.487c0-1.058-.549-1.626-1.467-1.626a1.526 1.526 0 0 0-1.556 1.636m0-4.769v3.183a2.1 2.1 0 0 1 1.876-1 2.175 2.175 0 0 1 2.195 2.424v1.766a2.175 2.175 0 0 1-2.235 2.414 2.1 2.1 0 0 1-1.856-1v.738c0 .09-.07.12-.14.12h-.738c-.09 0-.14 0-.14-.12V54.66a.12.12 0 0 1 .13-.13h.788c.09 0 .12 0 .12.13m6.744 0v8.53c0 .1 0 .14-.14.14h-.758c-.12 0-.15 0-.15-.14v-8.53c0-.09 0-.14.15-.14h.758a.12.12 0 0 1 .14.14m2.796 2.44v6.1c0 .09 0 .13-.13.13h-.758c-.12 0-.15 0-.15-.13v-6.1c0-.09 0-.13.15-.13h.758c.1 0 .13 0 .13.13m0-2.4v1.117c0 .11 0 .17-.17.17h-.7a.15.15 0 0 1-.17-.17V54.7a.15.15 0 0 1 .17-.17h.7c.13 0 .17.06.17.17m2.843 4.34v4.16c0 .09 0 .13-.13.13h-.718c-.12 0-.15 0-.15-.13v-6.106c0-.08 0-.13.14-.13h.738c.11 0 .14.05.14.13v.838a2.424 2.424 0 0 1 2-1.087 1.836 1.836 0 0 1 1.866 2.1V63.2c0 .09 0 .13-.15.13h-.758c-.1 0-.15 0-.15-.13v-4.09c0-.818-.369-1.3-1.167-1.3a1.816 1.816 0 0 0-1.606 1.227m6.285.1a1.277 1.277 0 0 0 1.427 1.377 1.217 1.217 0 0 0 1.367-1.347 1.4 1.4 0 1 0-2.793 0m3.342 4.789c0-.459-.259-.888-1.2-.888h-1.167c-.878 0-1.147.449-1.147.908 0 .638.5 1.058 1.726 1.058s1.786-.439 1.786-1.077m1-.07c0 1-.778 1.906-2.843 1.906-1.906 0-2.654-.718-2.654-1.716a1.477 1.477 0 0 1 1-1.377 1.057 1.057 0 0 1-.449-.808 1 1 0 0 1 .648-.9 2 2 0 0 1-1-1.816 2.1 2.1 0 0 1 2.374-2.185h2.78c.08 0 .12.05.12.14v.569c0 .11-.06.15-.14.15h-1.107a1.786 1.786 0 0 1 .648 1.467c0 1.177-.788 2-2.3 2H110c-.439 0-.629.2-.629.439s.2.439.629.439h1.367c1.5 0 2.085.748 2.085 1.676m9.518-7.383a.13.13 0 0 1-.11.19l-.648.249a.16.16 0 0 1-.21-.1 1.616 1.616 0 0 0-1.646-1.117c-1 0-1.566.469-1.566 1.237s.419 1 2 1.636 2.255 1.317 2.255 2.5a2.454 2.454 0 0 1-2.744 2.374 2.614 2.614 0 0 1-2.793-1.935c0-.12 0-.17.1-.209l.678-.219c.13 0 .18 0 .21.12a1.666 1.666 0 0 0 1.806 1.257c1 0 1.646-.5 1.646-1.307s-.379-1.1-1.826-1.656c-1.736-.688-2.394-1.367-2.394-2.544a2.354 2.354 0 0 1 2.644-2.245 2.574 2.574 0 0 1 2.624 1.766m1.586 4.879V57.1c0-.09.05-.14.15-.14h.758c.1 0 .15.05.15.14v4.08c0 .828.369 1.307 1.157 1.307a1.8 1.8 0 0 0 1.606-1.237V57.1c0-.09 0-.14.15-.14h.748c.12 0 .15.05.15.14v6.09c0 .09 0 .14-.14.14h-.738a.12.12 0 0 1-.14-.14v-.828a2.4 2.4 0 0 1-2 1.1 1.846 1.846 0 0 1-1.866-2.1M135.3 60.9v-1.521a1.387 1.387 0 0 0-1.467-1.6 1.506 1.506 0 0 0-1.546 1.606v1.5a1.516 1.516 0 0 0 1.556 1.626c.918 0 1.467-.559 1.467-1.616m-3.931 4.759a.12.12 0 0 1-.13-.13v-8.43c0-.09.05-.13.14-.13h.738a.12.12 0 0 1 .14.13v.718a2.145 2.145 0 0 1 1.856-1 2.175 2.175 0 0 1 2.235 2.4V61a2.185 2.185 0 0 1-2.195 2.424 2.055 2.055 0 0 1-1.866-1v3.053a.12.12 0 0 1-.13.13zm10.682-4.754v-1.521a1.387 1.387 0 0 0-1.467-1.6 1.506 1.506 0 0 0-1.546 1.606v1.5a1.516 1.516 0 0 0 1.546 1.626c.918 0 1.467-.559 1.467-1.616m-3.931 4.759a.12.12 0 0 1-.13-.13v-8.43c0-.09.05-.13.14-.13h.738a.12.12 0 0 1 .14.13v.718a2.145 2.145 0 0 1 1.856-1 2.175 2.175 0 0 1 2.245 2.4V61a2.185 2.185 0 0 1-2.2 2.424 2.075 2.075 0 0 1-1.866-1v3.053a.12.12 0 0 1-.13.13zm7.522-6.285v1.616a1.526 1.526 0 0 0 3.053 0v-1.616a1.526 1.526 0 1 0-3.053 0m4.1-.05v1.666a2.574 2.574 0 0 1-5.148 0v-1.636a2.574 2.574 0 0 1 5.148 0m4.779-2.354v.705c0 .11 0 .15-.16.15h-.13a1.846 1.846 0 0 0-1.816 1.267v4.053c0 .09-.06.12-.13.12h-.788a.11.11 0 0 1-.12-.12v-6.076c0-.1 0-.13.14-.13h.718c.1 0 .15.05.15.14v1a2.135 2.135 0 0 1 2-1.187c.15 0 .19 0 .19.15m2.993-1.6v1.526h1.357c.1 0 .14.05.14.16v.569c0 .11 0 .15-.14.15h-1.357v3.681c0 .569.309.828.888.828h.459c.1 0 .15 0 .15.14v.648c0 .11 0 .15-.15.15h-.609a1.546 1.546 0 0 1-1.766-1.616v-3.821h-.868c-.08 0-.13 0-.13-.15v-.569c0-.11.05-.16.13-.16h.878v-1.535c0-.08 0-.13.15-.13h.718c.12 0 .15 0 .15.13m11.433 1.087c0 .12 0 .21-.17.259l-1.117.409a.21.21 0 0 1-.3-.13 1.217 1.217 0 0 0-1.267-.788c-.688 0-1.137.329-1.137.828s.349.708 1.9 1.247 2.175 1.277 2.175 2.5c0 1.467-1.257 2.584-3.073 2.584a2.813 2.813 0 0 1-3.053-2.055.2.2 0 0 1 .13-.259l1.207-.4c.16-.05.239 0 .279.16a1.272 1.272 0 0 0 1.427 1c.818 0 1.247-.349 1.247-.868s-.309-.7-1.566-1.137c-1.806-.648-2.494-1.367-2.494-2.7a2.664 2.664 0 0 1 2.923-2.454 2.773 2.773 0 0 1 2.893 1.846m3.592-1.038v1.437h1.2a.17.17 0 0 1 .19.19v1.048a.17.17 0 0 1-.19.18h-1.2v2.843c0 .369.2.579.678.579h.519c.12 0 .19.06.19.17v1.184c0 .12-.07.17-.19.17H173c-1.437 0-2.115-.758-2.115-1.876v-3.1h-.738a.17.17 0 0 1-.19-.18v-1.05a.17.17 0 0 1 .19-.19h.768v-1.406a.16.16 0 0 1 .17-.18h1.357c.11 0 .16.07.16.18m6.006 5.607v-.6a8.4 8.4 0 0 0-1 0c-.648.08-1 .279-1 .778s.3.7.8.7a1.247 1.247 0 0 0 1.217-.908m1.706-2.195v4.19a.17.17 0 0 1-.18.17h-1.277a.17.17 0 0 1-.18-.17v-.688a2 2 0 0 1-1.766 1 1.856 1.856 0 0 1-2-2c0-1.167.738-1.856 2.524-2a6.4 6.4 0 0 1 1.157 0v-.452a.768.768 0 0 0-.878-.868.808.808 0 0 0-.888.589c-.06.14-.1.17-.229.13l-1.277-.319c-.13 0-.14-.11-.11-.2.17-.918 1-1.586 2.564-1.586s2.524.758 2.524 2.195m5.208-1.935v1.247c0 .15-.06.2-.209.2h-.19a1.516 1.516 0 0 0-1.656 1.117v3.57a.15.15 0 0 1-.15.17h-1.457a.15.15 0 0 1-.15-.17v-6.086a.15.15 0 0 1 .17-.16h1.327a.16.16 0 0 1 .17.18v.928a2 2 0 0 1 1.866-1.127c.229 0 .279 0 .279.2m3.412-1.506v1.437h1.2a.17.17 0 0 1 .18.19v1.048a.16.16 0 0 1-.18.18h-1.2v2.843c0 .369.2.579.668.579h.529a.16.16 0 0 1 .18.17v1.184c0 .12-.07.17-.18.17h-.808c-1.437 0-2.105-.758-2.105-1.876v-3.1h-.748a.16.16 0 0 1-.18-.18v-1.05a.17.17 0 0 1 .18-.19h.768v-1.406a.16.16 0 0 1 .18-.18h1.357a.16.16 0 0 1 .16.18m7.582 2.783c0 .1 0 .19-.14.229l-1.067.379c-.12 0-.18 0-.229-.13a1.058 1.058 0 0 0-1.1-.688c-.549 0-.868.21-.868.529s.229.439 1.457.768c1.427.379 2 1 2 2 0 1.237-1 2-2.594 2s-2.434-.569-2.764-1.546c0-.14 0-.209.17-.279l.938-.459c.14-.07.219 0 .289.14a1.277 1.277 0 0 0 1.3.788c.648 0 1-.21 1-.559s-.359-.519-1.506-.838c-1.407-.369-2-1-2-2 0-1.217 1-2 2.494-2a2.524 2.524 0 0 1 2.594 1.566M207.268 55v8.14c0 .1 0 .17-.18.17h-1.417a.17.17 0 0 1-.18-.17v-3.213h-2.923v3.233a.16.16 0 0 1-.18.17h-1.457a.17.17 0 0 1-.18-.17V55a.17.17 0 0 1 .19-.17h1.447a.16.16 0 0 1 .18.17v3.232h2.923V55a.17.17 0 0 1 .18-.17h1.447c.13 0 .18.07.18.17m3.053 4.3v.219h2.235V59.3a1.121 1.121 0 1 0-2.235 0m0 1.357v.243a1 1 0 0 0 1.167 1.147 1.147 1.147 0 0 0 1.227-.678c.11-.18.16-.2.339-.12l.918.469c.19.09.2.18.12.359a2.7 2.7 0 0 1-2.614 1.4 2.514 2.514 0 0 1-2.843-2.6v-1.498a2.5 2.5 0 0 1 2.813-2.6 2.454 2.454 0 0 1 2.694 2.574v1c0 .17-.06.289-.309.289zm8.879-3.661v1.247c0 .15-.05.2-.21.2h-.18a1.516 1.516 0 0 0-1.656 1.117v3.57a.16.16 0 0 1-.15.17h-1.467a.15.15 0 0 1-.15-.17v-6.086a.15.15 0 0 1 .17-.16h1.327c.14 0 .17.09.17.18v.928a2 2 0 0 1 1.866-1.127c.239 0 .279 0 .279.2m2.534 2.235v.219H224V59.3a1.121 1.121 0 1 0-2.235 0m0 1.357v.243a1 1 0 0 0 1.167 1.147 1.157 1.157 0 0 0 1.237-.678c.1-.18.15-.2.329-.12l.918.469c.19.09.2.18.12.359a2.7 2.7 0 0 1-2.614 1.4 2.514 2.514 0 0 1-2.823-2.6v-1.498a2.5 2.5 0 0 1 2.813-2.6 2.454 2.454 0 0 1 2.694 2.574v1c0 .17-.06.289-.309.289z" transform="translate(-1.6 -10.374)"/></g></svg>