<svg width="135" height="56" viewBox="0 0 135 56" fill="none" xmlns="http://www.w3.org/2000/svg">
<g clip-path="url(#clip0_163_10)">
<mask id="mask0_163_10" style="mask-type:luminance" maskUnits="userSpaceOnUse" x="0" y="0" width="136" height="58">
<path d="M135.097 0H0V57.948H135.097V0Z" fill="white"/>
</mask>
<g mask="url(#mask0_163_10)">
<path d="M6.57031 11.3433H25.9109L22.327 36.4763H34.6649L40.2206 -0.0917969H8.2811L6.57031 11.3433Z" fill="#4C26AA"/>
<path d="M18.0706 18.207H5.55571L0 54.7751H31.8902L33.6213 43.337H14.4866L18.0706 18.207Z" fill="#4C26AA"/>
<path d="M52.771 30.6641H46.6412L42.8281 54.7169H53.5887L54.5021 48.945H49.8714L52.771 30.6641Z" fill="#4C26AA"/>
<path d="M66.3772 46.2025C66.0118 48.3718 65.5247 49.0718 64.388 49.0718C63.5007 49.0718 63.0629 48.4985 63.1093 47.3822C63.1353 46.9775 63.1828 46.5746 63.2513 46.1753L65.7305 30.6641H59.5688L57.0055 46.7425C56.909 47.333 56.8538 47.9299 56.8403 48.5287C56.6663 52.7075 59.2643 55.1303 63.6805 55.1303C66.0002 55.1303 67.9333 54.4263 69.4798 53.0182C70.9846 51.6221 71.9827 49.7303 72.3069 47.6598L75.0181 30.6641H68.8564L66.3772 46.2025Z" fill="#4C26AA"/>
<path d="M83.0644 38.5099C84.0474 37.0013 85.2421 36.244 86.6542 36.244C87.6343 36.244 88.5041 36.7228 89.2639 37.6802L90.3454 30.8222C89.3886 30.422 88.3668 30.2171 87.3356 30.2188C83.9923 30.2188 81.1449 31.6549 78.8193 34.5243C76.4938 37.3936 75.2412 40.9689 75.0498 45.3378C74.928 48.2735 75.5659 50.6329 76.9317 52.4522C78.2974 54.2716 80.2257 55.1315 82.7078 55.1315C84.0164 55.087 85.3064 54.7957 86.515 54.2716L87.9967 47.317C85.4914 49.3898 83.1949 49.2631 82.1568 47.7304C81.6349 46.9339 81.4058 45.8175 81.4696 44.318C81.574 41.9616 82.1133 40.0185 83.0644 38.5099Z" fill="#4C26AA"/>
<path d="M102.651 30.6641L97.3821 40.9677L99.1567 30.6641H93.024L89.2109 54.7169H95.3437L96.9646 43.6167L99.2669 54.7169H105.89L102.387 42.2771L109.149 30.6641H102.651Z" fill="#4C26AA"/>
<path d="M120.826 30.6641L119.116 34.2847C118.713 35.1456 118.17 36.4218 117.486 38.1134C117.409 36.8177 117.257 35.528 117.031 34.2515L116.506 30.6641H110.098L113.542 44.543L111.927 54.7199H118.089L119.704 44.543L127.206 30.6641H120.826Z" fill="#4C26AA"/>
<path d="M59.1935 18.1803H54.5628L57.4624 -0.0976562H51.3326L47.5195 23.9552H58.2801L59.1935 18.1803Z" fill="#4C26AA"/>
<path d="M72.6084 18.1803H67.3049L67.8849 14.5115H72.6374L73.5044 9.05643H68.7548L69.3289 5.54747H74.6004L75.508 -0.0976562H64.0718L60.2617 23.9552H71.695L72.6084 18.1803Z" fill="#4C26AA"/>
<path d="M77.0508 23.9552H83.1806L86.1121 5.6772H89.6381L90.5486 -0.0976562H77.4915L76.5781 5.6772H79.9504L77.0508 23.9552Z" fill="#4C26AA"/>
<path d="M99.5999 2.18386C97.9326 3.99416 97.0511 6.04281 96.9554 8.34189C96.8655 10.5414 97.6861 12.1677 99.7188 14.1801L100.589 15.0068C101.148 15.5499 101.432 16.1232 101.409 16.6663C101.366 17.7192 100.507 18.4524 99.3128 18.4524C97.9326 18.4524 96.7728 17.5925 95.8333 15.8365L94.6328 23.3794C96.0054 24.0099 97.4825 24.3573 98.9823 24.4023C100.116 24.4157 101.239 24.1845 102.282 23.7234C103.325 23.2622 104.265 22.5811 105.043 21.723C106.723 19.9609 107.698 17.6 107.768 15.1184C107.852 13.0758 106.948 11.2263 105.083 9.56686L104.213 8.80352C103.535 8.20009 103.222 7.62381 103.245 7.04753C103.277 6.251 104.17 5.42128 105.121 5.42128C106.376 5.42128 107.559 6.44108 108.31 8.07035L109.47 0.732604C108.194 -0.0804691 106.727 -0.511635 105.231 -0.513484C103.146 -0.52857 101.27 0.364509 99.5999 2.18386Z" fill="#4C26AA"/>
<path d="M98.0629 -0.0976562H93.7251L91.4141 5.69227H95.1575L98.0629 -0.0976562Z" fill="#4C26AA"/>
<path d="M128.949 30.6348L126.91 47.8417H133.06L135.099 30.6348H128.949Z" fill="#4C26AA"/>
<path d="M129.669 49.7973C129.185 49.8015 128.707 49.9088 128.265 50.1128C127.822 50.3167 127.425 50.6129 127.097 50.9831C126.738 51.3345 126.452 51.7585 126.256 52.2291C126.06 52.6996 125.958 53.2068 125.957 53.7196C125.951 54.1188 126.021 54.5152 126.164 54.8855C126.307 55.2559 126.52 55.5926 126.791 55.8758C127.061 56.1591 127.383 56.3831 127.738 56.5346C128.093 56.6861 128.474 56.762 128.857 56.7579C129.345 56.7609 129.828 56.6602 130.276 56.462C130.725 56.2639 131.13 55.9723 131.467 55.6054C131.817 55.2483 132.095 54.8226 132.285 54.3528C132.476 53.8831 132.575 53.3787 132.577 52.8688C132.59 52.4657 132.524 52.0642 132.383 51.6886C132.241 51.313 132.028 50.9712 131.756 50.6839C131.484 50.3966 131.159 50.1699 130.8 50.0175C130.441 49.8651 130.057 49.7902 129.669 49.7973Z" fill="#4C26AA"/>
</g>
</g>
<defs>
<clipPath id="clip0_163_10">
<rect width="135" height="56" fill="white"/>
</clipPath>
</defs>
</svg>
