<svg width="127" height="83" viewBox="0 0 127 83" fill="none" xmlns="http://www.w3.org/2000/svg">
<g clip-path="url(#clip0)">
<path d="M0.196289 82.1809H7.9865C16.6932 82.1809 17.6097 76.0928 17.6097 70.5283V56.519C17.6097 49.7763 15.7767 45.783 7.9865 45.783H0.196289V82.1809ZM5.82619 50.6273H7.65918C11.3906 50.6273 11.9143 52.7876 11.9143 56.0608V71.3139C11.9143 75.1108 11.3906 77.402 7.65918 77.402H5.82619V50.6273ZM21.8648 82.1809H27.4947V65.8804H28.804C32.0772 65.8804 32.6009 66.9278 32.6009 71.3139C32.6009 73.9979 32.5355 80.0206 32.9937 82.1809H38.4272C38.0344 80.0206 38.0999 74.0634 38.0999 70.9866C38.0999 66.0113 36.8561 64.5056 34.7612 63.5237C36.136 62.9345 38.4927 61.4943 38.4927 55.8644V54.4897C38.4927 47.9433 35.2195 45.7175 29.6551 45.7175H21.8648V82.1809ZM27.4293 50.4309H29.0004C32.2081 50.4309 32.7973 52.133 32.7973 54.9479V56.1917C32.7973 60.185 31.6844 61.2979 28.7386 61.2979H27.4293V50.4309ZM56.1679 60.3814H48.1813V51.0201H56.6262V45.783H42.5514V82.2464H56.7571L57.4772 77.0747H48.1813V65.6185H56.2334V60.3814H56.1679ZM71.8138 72.4268L73.254 82.1809H79.1458L73.0576 45.7175H65.1365L59.2447 82.1809H65.0056L66.2494 72.4268H71.8138ZM66.904 67.3206C67.6241 61.8871 68.737 54.0969 68.8679 51.0855H69.0643C69.5226 55.2098 70.2427 61.1015 71.1592 67.3206H66.904ZM100.487 82.1809H105.855V45.783H97.7375C96.2973 54.4897 94.2679 65.3567 93.6788 70.5283H93.6133C93.0896 65.4221 91.7148 55.0134 90.2746 45.783H81.8953V82.2464H87.0014V69.2845C87.0014 63 86.805 54.7515 86.6741 50.4964H86.8051C87.6561 57.1737 89.6855 72.6886 90.9293 82.1809H96.2319C97.803 71.6412 99.8324 56.8464 100.683 50.5618H100.749C100.618 54.7515 100.618 62.4763 100.618 68.6299V82.1809H100.487ZM108.997 71.4448V73.6051C108.997 78.384 110.634 82.7046 117.377 82.7046C124.185 82.7046 126.018 77.7948 126.018 72.6232C126.018 66.535 124.316 64.2438 118.882 60.185C115.675 57.8283 115.151 56.5845 115.151 53.9659C115.151 51.5438 115.675 49.9727 117.508 49.9727C119.341 49.9727 119.799 51.4783 119.799 54.0969V55.9299H125.363V53.9659C125.363 49.9726 124.316 45.1938 117.639 45.1938C111.027 45.1938 109.586 50.0381 109.586 54.8824C109.586 60.316 111.747 62.2799 115.675 65.3567C119.537 68.4989 120.454 69.6773 120.454 73.6051C120.454 75.9618 119.864 78.0567 117.639 78.0567C115.478 78.0567 114.693 76.551 114.693 73.867V71.5757H108.997V71.4448Z" fill="white"/>
<path d="M34.1719 0.547427V28.1732C34.1719 34.3923 36.9868 37.5345 42.7477 37.5345C48.8358 37.5345 51.4543 33.934 51.4543 28.1732V0.547427H45.8245V28.2387C45.8245 30.7263 45.1044 32.4284 42.8786 32.4284C40.7183 32.4284 39.8018 30.9227 39.8018 28.2387V0.547427H34.1719ZM66.3147 26.0784V28.1732C66.3147 30.8572 65.791 32.4938 63.7616 32.4938C61.6013 32.4938 61.143 30.6608 61.143 28.2387V8.92681C61.143 6.43918 61.7322 5.1299 63.6306 5.1299C65.5946 5.1299 66.1837 6.50464 66.1837 8.92681V11.218H71.8136V9.58145C71.8136 4.47526 70.5044 -0.041748 63.6961 -0.041748C57.9353 -0.041748 55.3822 3.75516 55.3822 9.31959V27.715C55.3822 33.2139 56.8224 37.4691 63.5652 37.4691C71.2899 37.4691 71.9446 31.6428 71.9446 27.4531V26.0129H66.3147V26.0784ZM75.2178 37.0108H80.7167V25.4892L83.1389 20.5794L87.9178 37.0108H94.0059L86.9358 14.7531L93.6131 0.547427H87.3286C85.2992 5.58815 82.2224 13.4438 80.7822 17.0443H80.7167V0.547427H75.2178V37.0108ZM105.331 37.0108V24.7036C105.331 23.918 105.397 23.5253 105.462 23.3289L112.467 0.547427H106.444C105.069 6.37372 103.433 12.9201 102.713 17.2407H102.647C102.058 13.2474 100.421 6.43918 98.9157 0.547427H92.6966L99.5049 22.8706C99.6358 23.3943 99.6358 23.6562 99.6358 24.049V37.0108H105.331Z" fill="white"/>
<path d="M30.7029 36.9454V31.9046H20.1632C24.0256 24.5727 28.0189 12.5273 29.3936 0.416504H23.5019C21.9962 13.3129 18.5266 24.4418 14.3369 32.5593V36.9454H30.7029Z" fill="white"/>
</g>
<defs>
<clipPath id="clip0">
<rect width="127" height="82.4845" fill="white" transform="translate(0 0.154663)"/>
</clipPath>
</defs>
</svg>
