<svg width="159" height="24" viewBox="0 0 159 24" fill="none" xmlns="http://www.w3.org/2000/svg">
<path d="M2.78085 6.51988C3.37868 2.762 6.57213 0 10.3192 0H14.7951L12.0142 17.4801C11.4164 21.238 8.22292 24 4.47586 24H0L2.78085 6.51988Z" fill="#FCFCFC"/>
<path d="M15.1896 6.51988C15.7874 2.762 18.9809 0 22.7279 0H27.2038L24.423 17.4801C23.8251 21.238 20.6317 24 16.8846 24H12.4088L15.1896 6.51988Z" fill="#FCFCFC"/>
<path d="M27.5984 6.51988C28.1962 2.762 31.3896 0 35.1367 0H39.6126L36.8317 17.4801C36.2339 21.238 33.0404 24 29.2934 24H24.8175L27.5984 6.51988Z" fill="#FCFCFC"/>
<path d="M38.8967 8.9697C40.2733 8.9697 41.3228 10.2216 41.1036 11.6023L40.7464 13.8522C40.5055 15.3695 39.2163 16.4848 37.7035 16.4848L38.8967 8.9697Z" fill="#FCFCFC"/>
<path d="M45.5783 2.18182C45.5783 3.25292 44.7236 4.12121 43.6693 4.12121C42.6149 4.12121 41.7602 3.25292 41.7602 2.18182C41.7602 1.11072 42.6149 0.242424 43.6693 0.242424C44.7236 0.242424 45.5783 1.11072 45.5783 2.18182Z" fill="#FCFCFC"/>
<path d="M41.348 13.0909C42.1733 13.0909 42.8766 12.4826 43.0083 11.655L44.631 1.45455H43.1992L41.348 13.0909Z" fill="#FCFCFC"/>
<path d="M50.6724 19.983L52.598 11.4151H52.8108L54.1832 18.555H56.8429L61.4283 11.4151H61.6411L59.7154 19.983H63.8753L67.1414 5.47178H61.673L56.6621 13.376H56.4493L55.0237 5.47178H49.7681L46.502 19.983H50.6724Z" fill="#FCFCFC"/>
<path d="M72.4099 20.2646C75.5164 20.2646 77.8357 18.7964 78.4421 16.4432H74.4206C74.1972 17.0365 73.5376 17.3985 72.6758 17.3985C71.3992 17.3985 70.6119 16.6343 70.6119 15.337V15.2264H78.7187C78.8464 14.613 78.9528 13.7381 78.9528 13.2654C78.9528 10.4094 76.6548 8.39816 73.4099 8.39816C69.4097 8.39816 66.6755 11.2039 66.6755 15.3169C66.6755 18.374 68.899 20.2646 72.4099 20.2646ZM71.0375 13.0039C71.3141 11.948 72.2397 11.2441 73.3355 11.2441C74.3355 11.2441 75.0483 11.8374 75.0483 12.6721C75.0483 12.7827 75.027 12.9436 75.0058 13.0039H71.0375Z" fill="#FCFCFC"/>
<path d="M84.4234 19.983C85.4235 19.983 86.2639 19.9227 86.6363 19.8221L87.264 17.0265C86.998 17.0667 86.5725 17.0969 86.2214 17.0969C85.4447 17.0969 85.0724 16.8354 85.0724 16.2722C85.0724 16.1817 85.0937 16.0409 85.1149 15.9002L86.0192 11.8877H88.3917L89.0939 8.88087H86.6895L87.3066 6.19584H82.9446L82.3276 8.88087H80.5083L79.8061 11.8877H81.6467L80.6253 16.5136C80.5509 16.8455 80.5083 17.2075 80.5083 17.4891C80.5083 19.0176 82.0297 19.983 84.4234 19.983Z" fill="#FCFCFC"/>
<path d="M91.4686 20.1439C92.8091 20.1439 94.0858 19.5606 94.639 18.6556H94.8518L94.5539 19.983H98.7882L100.416 12.7626C100.469 12.5414 100.512 12.1391 100.512 11.8575C100.512 9.79599 98.3413 8.39816 95.1497 8.39816C92.1282 8.39816 89.8728 9.8161 89.394 12.0184H93.3091C93.5538 11.586 94.107 11.3447 94.8411 11.3447C95.6922 11.3447 96.2667 11.6866 96.2667 12.1894C96.2667 12.2497 96.2561 12.3201 96.2242 12.4911L96.0752 13.1447L93.5006 13.195C90.0962 13.2654 88.0003 14.7437 88.0003 17.0868C88.0003 18.8467 89.4898 20.1439 91.4686 20.1439ZM93.5113 17.3684C92.7346 17.3684 92.192 17.0064 92.192 16.4734C92.192 15.8398 92.8197 15.4175 93.7772 15.3973L95.5752 15.3571L95.4156 16.0711C95.2454 16.8153 94.4262 17.3684 93.5113 17.3684Z" fill="#FCFCFC"/>
<path d="M101.886 12.2799C101.886 13.7481 102.801 14.7537 104.748 15.4175L106.663 16.0711C107.408 16.3225 107.631 16.4935 107.631 16.8153C107.631 17.298 107.131 17.5695 106.27 17.5695C105.365 17.5695 104.652 17.1371 104.599 16.5538H100.514C100.514 18.7763 102.844 20.2646 106.333 20.2646C109.759 20.2646 111.961 18.726 111.961 16.3326C111.961 14.9448 111.142 14.0699 109.259 13.4263L107.004 12.662C106.259 12.4106 106.014 12.2196 106.014 11.8676C106.014 11.4151 106.546 11.1033 107.333 11.1033C108.153 11.1033 108.77 11.4653 108.833 11.9782H112.706C112.706 9.82616 110.568 8.39816 107.312 8.39816C104.003 8.39816 101.886 9.91667 101.886 12.2799Z" fill="#FCFCFC"/>
<path d="M115.825 23.7038L117.123 17.9718H117.336C117.698 19.2388 118.826 20.1439 120.56 20.1439C123.922 20.1439 126.486 17.0868 126.486 12.7928C126.486 10.0776 124.911 8.51884 122.528 8.51884C120.858 8.51884 119.741 9.23284 118.953 10.2686H118.741L119.102 8.67974H114.847L111.464 23.7038H115.825ZM119.453 16.9058C118.602 16.9058 117.836 16.3125 117.836 15.0554C117.836 13.2654 118.985 11.6363 120.347 11.6363C121.198 11.6363 121.975 12.2397 121.975 13.4967C121.975 15.4275 120.815 16.9058 119.453 16.9058Z" fill="#FCFCFC"/>
<path d="M131.807 7.37242C133.031 7.37242 134.031 6.46736 134.031 5.32094C134.031 4.16447 133.031 3.2594 131.807 3.2594C130.594 3.2594 129.584 4.16447 129.584 5.32094C129.584 6.46736 130.594 7.37242 131.807 7.37242ZM126.328 19.983H130.69L133.233 8.67974H128.871L126.328 19.983Z" fill="#FCFCFC"/>
<path d="M132.31 19.983H136.65L138.129 13.5168C138.363 12.471 139.097 11.7167 140.087 11.7167C140.991 11.7167 141.523 12.3101 141.523 13.0844C141.523 13.2956 141.512 13.4967 141.448 13.7582L140.044 19.983H144.374L145.917 13.1246C146.023 12.6319 146.076 12.1693 146.076 11.7469C146.076 9.82616 144.768 8.51884 142.608 8.51884C140.98 8.51884 139.672 9.29317 138.884 10.5603H138.672L139.108 8.67974H134.874L132.31 19.983Z" fill="#FCFCFC"/>
<path d="M147.472 12.2799C147.472 13.7481 148.387 14.7537 150.334 15.4175L152.249 16.0711C152.994 16.3225 153.217 16.4935 153.217 16.8153C153.217 17.298 152.717 17.5695 151.855 17.5695C150.951 17.5695 150.238 17.1371 150.185 16.5538H146.1C146.1 18.7763 148.43 20.2646 151.919 20.2646C155.345 20.2646 157.547 18.726 157.547 16.3326C157.547 14.9448 156.728 14.0699 154.845 13.4263L152.59 12.662C151.845 12.4106 151.6 12.2196 151.6 11.8676C151.6 11.4151 152.132 11.1033 152.919 11.1033C153.739 11.1033 154.356 11.4653 154.419 11.9782H158.292C158.292 9.82616 156.154 8.39816 152.898 8.39816C149.589 8.39816 147.472 9.91667 147.472 12.2799Z" fill="#FCFCFC"/>
</svg>
