<?xml version="1.0" encoding="UTF-8"?>
<svg width="433px" height="131px" viewBox="0 0 433 131" version="1.1" xmlns="http://www.w3.org/2000/svg" xmlns:xlink="http://www.w3.org/1999/xlink">
    <!-- Generator: Sketch 58 (84663) - https://sketch.com -->
    <title>NCPG_50thAnniv_Final</title>
    <desc>Created with Sketch.</desc>
    <g id="Page-1" stroke="none" stroke-width="1" fill="none" fill-rule="evenodd">
        <g id="NCPG_50thAnniv_Final" fill-rule="nonzero">
            <path d="M227.327,70.97 C227.327,73.906 227.327,85.553 227.621,88.098 C227.425,88.685 226.838,89.174 225.761,89.174 C224.587,87.511 221.749,84.085 213.233,74.395 L190.526,48.556 C187.883,45.521 181.227,37.496 179.172,35.342 L178.976,35.342 C178.585,36.517 178.487,38.768 178.487,41.704 L178.487,63.042 C178.487,67.642 178.585,80.366 180.249,83.302 C180.836,84.378 182.794,84.966 185.24,85.162 L188.274,85.455 C188.862,86.238 188.764,87.413 188.079,87.902 C183.675,87.706 180.249,87.608 176.627,87.608 C172.516,87.608 169.873,87.706 166.448,87.902 C165.763,87.413 165.665,86.043 166.252,85.455 L168.895,85.162 C171.146,84.868 172.712,84.281 173.202,83.204 C174.572,79.68 174.474,67.74 174.474,63.042 L174.474,34.755 C174.474,32.014 174.376,29.96 172.321,27.708 C170.951,26.337 168.601,25.652 166.252,25.359 L164.588,25.163 C164.001,24.576 164.001,23.107 164.784,22.716 C168.895,23.01 174.082,23.01 175.844,23.01 C177.411,23.01 179.074,22.912 180.347,22.716 C182.304,27.708 193.853,40.627 197.083,44.249 L206.577,54.918 C213.331,62.454 218.127,67.936 222.727,72.633 L222.923,72.633 C223.315,72.144 223.315,70.578 223.315,68.522 L223.315,47.577 C223.315,42.977 223.217,30.253 221.357,27.316 C220.769,26.435 219.203,25.848 215.288,25.359 L213.624,25.163 C212.939,24.576 213.037,23.01 213.82,22.716 C218.323,22.912 221.65,23.01 225.37,23.01 C229.579,23.01 232.123,22.912 235.452,22.716 C236.234,23.205 236.234,24.576 235.647,25.163 L234.277,25.359 C231.145,25.848 229.187,26.631 228.796,27.414 C227.131,30.938 227.327,43.075 227.327,47.577 L227.327,70.97" id="Fill-1" fill="#224C66"></path>
            <path d="M255.421,29.764 C262.566,24.185 271.668,21.444 281.848,21.444 C287.133,21.444 294.571,22.521 299.172,23.793 C300.347,24.086 301.031,24.282 301.912,24.185 C302.01,26.435 302.5,32.602 303.282,38.572 C302.793,39.257 301.325,39.355 300.64,38.768 C299.172,32.112 294.767,24.478 280.575,24.478 C265.599,24.478 252.876,33.972 252.876,54.232 C252.876,74.787 265.893,86.141 281.945,86.141 C294.571,86.141 300.15,77.919 302.401,72.144 C303.087,71.655 304.555,71.851 304.947,72.535 C304.261,77.625 301.717,84.085 300.249,85.944 C299.074,86.141 297.899,86.532 296.822,86.923 C294.67,87.706 287.623,89.174 281.358,89.174 C272.549,89.174 264.132,87.413 256.987,82.617 C249.157,77.234 243.089,68.327 243.089,55.701 C243.089,44.836 247.981,35.538 255.421,29.764" id="Fill-2" fill="#224C66"></path>
            <path d="M327.461,72.927 C327.461,83.204 327.656,84.477 333.921,85.162 L336.563,85.455 C337.151,85.944 336.955,87.608 336.368,87.902 C330.789,87.706 327.558,87.608 323.644,87.608 C319.533,87.608 316.009,87.706 311.703,87.902 C311.116,87.608 310.92,86.043 311.508,85.455 L313.562,85.162 C319.239,84.378 319.435,83.204 319.435,72.927 L319.435,36.811 C319.435,28.491 319.239,26.827 314.835,26.337 L311.311,25.946 C310.627,25.359 310.724,23.891 311.508,23.499 C316.695,22.814 322.764,22.716 330.887,22.716 C339.011,22.716 345.079,23.793 349.68,26.631 C354.182,29.469 357.51,34.559 357.51,41.312 C357.51,50.317 351.931,54.82 347.722,56.875 C343.415,58.931 338.227,59.812 334.214,59.812 C333.529,59.518 333.529,58.05 334.116,57.854 C344.687,55.896 348.505,49.926 348.505,41.411 C348.505,31.917 342.926,25.75 332.746,25.75 C327.558,25.75 327.461,26.142 327.461,29.274 L327.461,72.927" id="Fill-3" fill="#224C66"></path>
            <path d="M424.066,77.625 C424.066,81.54 424.654,83.889 426.416,84.574 C426.71,84.868 426.71,85.455 426.317,85.748 C425.143,85.748 423.382,86.141 421.522,86.63 C416.335,88 409.288,89.174 404.002,89.174 C392.354,89.174 381.685,85.944 374.149,78.31 C368.277,72.437 365.145,64.706 365.145,56.092 C365.145,47.772 367.886,39.355 373.954,32.896 C380.512,26.044 390.202,21.444 404.98,21.444 C410.559,21.444 415.748,22.521 417.411,22.912 C419.27,23.303 422.306,23.989 423.479,23.793 C423.479,27.023 424.066,32.112 424.947,37.985 C424.654,38.768 422.892,38.866 422.306,38.278 C419.564,27.708 412.224,24.38 402.24,24.38 C383.253,24.38 374.932,37.887 374.932,52.569 C374.932,71.361 384.623,86.141 404.296,86.141 C410.364,86.141 413.986,84.868 415.062,83.204 C415.552,82.519 416.041,80.757 416.041,77.625 L416.041,73.71 C416.041,65.488 415.748,64.901 409.68,64.216 L405.372,63.727 C404.59,63.335 404.687,61.573 405.372,61.28 C408.211,61.476 413.594,61.573 419.368,61.573 C423.186,61.573 426.514,61.476 429.744,61.28 C430.429,61.671 430.526,63.139 429.842,63.727 L428.275,63.922 C424.165,64.412 424.066,67.152 424.066,72.144 L424.066,77.625" id="Fill-4" fill="#224C66"></path>
            <polyline id="Fill-5" fill="#636463" points="170.816 109.463 172.389 109.463 172.389 121.028 170.965 121.028 163.233 112.121 163.233 121.028 161.677 121.028 161.677 109.463 163.017 109.463 170.816 118.446 170.816 109.463"></polyline>
            <path d="M177.96,119.521 L177.96,117.261 L176.951,117.65 C176.437,117.854 176.074,118.06 175.862,118.268 C175.649,118.474 175.543,118.732 175.543,119.041 C175.543,119.356 175.643,119.612 175.845,119.811 C176.047,120.01 176.307,120.109 176.627,120.109 C177.108,120.109 177.552,119.913 177.96,119.521 Z M179.442,116.45 L179.442,119.687 C179.442,119.947 179.53,120.076 179.707,120.076 C179.89,120.076 180.173,119.941 180.56,119.67 L180.56,120.59 C180.217,120.81 179.943,120.96 179.736,121.041 C179.529,121.121 179.312,121.161 179.086,121.161 C178.44,121.161 178.06,120.907 177.944,120.399 C177.304,120.895 176.622,121.144 175.899,121.144 C175.369,121.144 174.927,120.969 174.574,120.618 C174.221,120.268 174.045,119.828 174.045,119.298 C174.045,118.817 174.217,118.389 174.562,118.01 C174.907,117.633 175.396,117.333 176.031,117.112 L177.96,116.45 L177.96,116.044 C177.96,115.128 177.502,114.67 176.586,114.67 C175.764,114.67 174.963,115.095 174.185,115.945 L174.185,114.297 C174.77,113.607 175.612,113.263 176.71,113.263 C177.533,113.263 178.192,113.478 178.689,113.908 C178.854,114.046 179.003,114.23 179.136,114.459 C179.268,114.688 179.352,114.917 179.388,115.146 C179.424,115.375 179.442,115.81 179.442,116.45 L179.442,116.45 Z" id="Fill-6" fill="#636463"></path>
            <path d="M180.825,114.621 L183.656,111.839 L183.656,113.412 L186.065,113.412 L186.065,114.77 L183.656,114.77 L183.656,118.497 C183.656,119.368 184.017,119.803 184.741,119.803 C185.281,119.803 185.852,119.624 186.454,119.265 L186.454,120.672 C185.874,120.998 185.243,121.161 184.558,121.161 C183.869,121.161 183.294,120.959 182.836,120.556 C182.693,120.435 182.574,120.298 182.48,120.146 C182.386,119.995 182.307,119.796 182.244,119.551 C182.181,119.305 182.149,118.837 182.149,118.147 L182.149,114.77 L180.825,114.77 L180.825,114.621" id="Fill-7" fill="#636463"></path>
            <path d="M187.572,121.028 L189.079,121.028 L189.079,113.412 L187.572,113.412 L187.572,121.028 Z M188.317,110.208 C188.565,110.208 188.778,110.293 188.954,110.464 C189.131,110.636 189.219,110.845 189.219,111.094 C189.219,111.336 189.131,111.546 188.954,111.723 C188.778,111.899 188.565,111.988 188.317,111.988 C188.085,111.988 187.881,111.898 187.704,111.719 C187.528,111.54 187.439,111.331 187.439,111.094 C187.439,110.862 187.528,110.657 187.704,110.477 C187.881,110.297 188.085,110.208 188.317,110.208 L188.317,110.208 Z" id="Fill-8" fill="#636463"></path>
            <path d="M194.816,114.753 C194.092,114.753 193.499,114.99 193.036,115.465 C192.572,115.94 192.34,116.544 192.34,117.278 C192.34,118.006 192.577,118.601 193.052,119.062 C193.527,119.522 194.137,119.753 194.882,119.753 C195.621,119.753 196.227,119.52 196.699,119.054 C197.171,118.587 197.407,117.99 197.407,117.261 C197.407,116.539 197.161,115.94 196.67,115.465 C196.179,114.99 195.56,114.753 194.816,114.753 Z M194.898,113.395 C196.057,113.395 197.02,113.769 197.788,114.517 C198.555,115.265 198.938,116.205 198.938,117.336 C198.938,118.435 198.549,119.346 197.771,120.072 C196.993,120.798 196.013,121.161 194.832,121.161 C193.69,121.161 192.735,120.792 191.968,120.056 C191.201,119.319 190.817,118.398 190.817,117.294 C190.817,116.18 191.205,115.251 191.98,114.509 C192.756,113.767 193.728,113.395 194.898,113.395 L194.898,113.395 Z" id="Fill-9" fill="#636463"></path>
            <path d="M202.117,113.412 L202.117,114.38 C202.79,113.635 203.555,113.263 204.411,113.263 C204.885,113.263 205.327,113.386 205.735,113.631 C206.143,113.877 206.453,114.213 206.666,114.641 C206.878,115.069 206.985,115.746 206.985,116.674 L206.985,121.028 L205.478,121.028 L205.478,116.69 C205.478,115.912 205.359,115.356 205.122,115.022 C204.885,114.688 204.488,114.521 203.93,114.521 C203.218,114.521 202.614,114.877 202.117,115.589 L202.117,121.028 L200.577,121.028 L200.577,113.412 L202.117,113.412" id="Fill-10" fill="#636463"></path>
            <path d="M212.391,119.521 L212.391,117.261 L211.381,117.65 C210.868,117.854 210.505,118.06 210.292,118.268 C210.08,118.474 209.973,118.732 209.973,119.041 C209.973,119.356 210.074,119.612 210.276,119.811 C210.477,120.01 210.738,120.109 211.058,120.109 C211.538,120.109 211.982,119.913 212.391,119.521 Z M213.873,116.45 L213.873,119.687 C213.873,119.947 213.961,120.076 214.138,120.076 C214.32,120.076 214.604,119.941 214.991,119.67 L214.991,120.59 C214.648,120.81 214.374,120.96 214.167,121.041 C213.96,121.121 213.743,121.161 213.517,121.161 C212.871,121.161 212.491,120.907 212.374,120.399 C211.734,120.895 211.053,121.144 210.33,121.144 C209.8,121.144 209.358,120.969 209.005,120.618 C208.652,120.268 208.475,119.828 208.475,119.298 C208.475,118.817 208.648,118.389 208.993,118.01 C209.337,117.633 209.827,117.333 210.462,117.112 L212.391,116.45 L212.391,116.044 C212.391,115.128 211.933,114.67 211.016,114.67 C210.194,114.67 209.394,115.095 208.616,115.945 L208.616,114.297 C209.201,113.607 210.042,113.263 211.141,113.263 C211.963,113.263 212.622,113.478 213.119,113.908 C213.285,114.046 213.434,114.23 213.566,114.459 C213.699,114.688 213.783,114.917 213.819,115.146 C213.855,115.375 213.873,115.81 213.873,116.45 L213.873,116.45 Z" id="Fill-11" fill="#636463"></path>
            <polygon id="Fill-12" fill="#636463" points="216.356 121.028 217.863 121.028 217.863 109.463 216.356 109.463"></polygon>
            <path d="M234.926,118.346 L234.926,120.167 C233.711,120.83 232.31,121.161 230.721,121.161 C229.429,121.161 228.333,120.901 227.433,120.382 C226.534,119.864 225.822,119.149 225.298,118.238 C224.773,117.328 224.511,116.342 224.511,115.283 C224.511,113.599 225.111,112.184 226.312,111.036 C227.512,109.888 228.993,109.314 230.753,109.314 C231.968,109.314 233.317,109.631 234.802,110.266 L234.802,112.046 C233.45,111.273 232.128,110.887 230.836,110.887 C229.511,110.887 228.412,111.305 227.537,112.141 C226.662,112.977 226.225,114.024 226.225,115.283 C226.225,116.552 226.656,117.595 227.516,118.412 C228.377,119.229 229.478,119.638 230.819,119.638 C232.221,119.638 233.59,119.207 234.926,118.346" id="Fill-13" fill="#636463"></path>
            <path d="M240.314,114.753 C239.591,114.753 238.998,114.99 238.535,115.465 C238.071,115.94 237.839,116.544 237.839,117.278 C237.839,118.006 238.076,118.601 238.552,119.062 C239.026,119.522 239.636,119.753 240.381,119.753 C241.12,119.753 241.725,119.52 242.198,119.054 C242.67,118.587 242.905,117.99 242.905,117.261 C242.905,116.539 242.66,115.94 242.169,115.465 C241.678,114.99 241.059,114.753 240.314,114.753 Z M240.397,113.395 C241.557,113.395 242.519,113.769 243.286,114.517 C244.054,115.265 244.437,116.205 244.437,117.336 C244.437,118.435 244.048,119.346 243.269,120.072 C242.491,120.798 241.512,121.161 240.331,121.161 C239.188,121.161 238.234,120.792 237.467,120.056 C236.699,119.319 236.316,118.398 236.316,117.294 C236.316,116.18 236.704,115.251 237.479,114.509 C238.254,113.767 239.227,113.395 240.397,113.395 L240.397,113.395 Z" id="Fill-14" fill="#636463"></path>
            <path d="M250.962,121.028 L250.962,120.051 C250.641,120.402 250.275,120.674 249.865,120.869 C249.453,121.063 249.044,121.161 248.635,121.161 C248.154,121.161 247.712,121.041 247.307,120.8 C246.9,120.561 246.595,120.235 246.388,119.824 C246.181,119.413 246.076,118.729 246.076,117.774 L246.076,113.412 L247.584,113.412 L247.584,117.752 C247.584,118.552 247.698,119.11 247.927,119.427 C248.156,119.744 248.557,119.902 249.132,119.902 C249.849,119.902 250.459,119.552 250.962,118.851 L250.962,113.412 L252.468,113.412 L252.468,121.028 L250.962,121.028" id="Fill-15" fill="#636463"></path>
            <path d="M256.095,113.412 L256.095,114.38 C256.767,113.635 257.532,113.263 258.388,113.263 C258.862,113.263 259.304,113.386 259.713,113.631 C260.12,113.877 260.432,114.213 260.643,114.641 C260.855,115.069 260.962,115.746 260.962,116.674 L260.962,121.028 L259.455,121.028 L259.455,116.69 C259.455,115.912 259.337,115.356 259.099,115.022 C258.862,114.688 258.465,114.521 257.907,114.521 C257.195,114.521 256.591,114.877 256.095,115.589 L256.095,121.028 L254.554,121.028 L254.554,113.412 L256.095,113.412" id="Fill-16" fill="#636463"></path>
            <path d="M268.776,119.248 L268.776,120.738 C268.019,121.02 267.281,121.161 266.557,121.161 C265.365,121.161 264.414,120.807 263.706,120.101 C262.997,119.395 262.641,118.448 262.641,117.261 C262.641,116.063 262.986,115.098 263.677,114.364 C264.367,113.63 265.274,113.263 266.4,113.263 C266.792,113.263 267.144,113.3 267.456,113.374 C267.767,113.449 268.152,113.588 268.61,113.793 L268.61,115.399 C267.849,114.913 267.142,114.67 266.491,114.67 C265.812,114.67 265.255,114.909 264.819,115.386 C264.384,115.864 264.166,116.472 264.166,117.211 C264.166,117.99 264.4,118.608 264.873,119.066 C265.345,119.524 265.981,119.753 266.781,119.753 C267.36,119.753 268.026,119.585 268.776,119.248" id="Fill-17" fill="#636463"></path>
            <path d="M270.524,121.028 L272.03,121.028 L272.03,113.412 L270.524,113.412 L270.524,121.028 Z M271.269,110.208 C271.517,110.208 271.729,110.293 271.906,110.464 C272.083,110.636 272.171,110.845 272.171,111.094 C272.171,111.336 272.083,111.546 271.906,111.723 C271.729,111.899 271.517,111.988 271.269,111.988 C271.037,111.988 270.833,111.898 270.656,111.719 C270.479,111.54 270.391,111.331 270.391,111.094 C270.391,110.862 270.479,110.657 270.656,110.477 C270.833,110.297 271.037,110.208 271.269,110.208 L271.269,110.208 Z" id="Fill-18" fill="#636463"></path>
            <polygon id="Fill-19" fill="#636463" points="274.241 121.028 275.747 121.028 275.747 109.463 274.241 109.463"></polygon>
            <path d="M286.195,114.753 C285.472,114.753 284.879,114.99 284.415,115.465 C283.951,115.94 283.719,116.544 283.719,117.278 C283.719,118.006 283.957,118.601 284.432,119.062 C284.906,119.522 285.516,119.753 286.261,119.753 C287.001,119.753 287.606,119.52 288.078,119.054 C288.55,118.587 288.786,117.99 288.786,117.261 C288.786,116.539 288.54,115.94 288.049,115.465 C287.557,114.99 286.939,114.753 286.195,114.753 Z M286.277,113.395 C287.436,113.395 288.4,113.769 289.166,114.517 C289.933,115.265 290.318,116.205 290.318,117.336 C290.318,118.435 289.929,119.346 289.149,120.072 C288.372,120.798 287.391,121.161 286.211,121.161 C285.069,121.161 284.114,120.792 283.347,120.056 C282.579,119.319 282.196,118.398 282.196,117.294 C282.196,116.18 282.584,115.251 283.359,114.509 C284.134,113.767 285.107,113.395 286.277,113.395 L286.277,113.395 Z" id="Fill-20" fill="#636463"></path>
            <path d="M293.497,113.412 L293.497,114.38 C294.17,113.635 294.934,113.263 295.79,113.263 C296.265,113.263 296.706,113.386 297.115,113.631 C297.523,113.877 297.834,114.213 298.046,114.641 C298.259,115.069 298.364,115.746 298.364,116.674 L298.364,121.028 L296.858,121.028 L296.858,116.69 C296.858,115.912 296.739,115.356 296.502,115.022 C296.265,114.688 295.868,114.521 295.309,114.521 C294.599,114.521 293.994,114.877 293.497,115.589 L293.497,121.028 L291.957,121.028 L291.957,113.412 L293.497,113.412" id="Fill-21" fill="#636463"></path>
            <path d="M308.671,110.92 L306.958,110.92 L306.958,114.538 L308.77,114.538 C309.444,114.538 309.963,114.379 310.328,114.062 C310.691,113.744 310.874,113.291 310.874,112.7 C310.874,111.513 310.141,110.92 308.671,110.92 Z M305.294,121.028 L305.294,109.446 L308.961,109.446 C310.065,109.446 310.946,109.744 311.602,110.34 C312.26,110.937 312.588,111.737 312.588,112.741 C312.588,113.415 312.419,114.011 312.083,114.529 C311.746,115.048 311.285,115.425 310.7,115.659 C310.114,115.894 309.275,116.011 308.182,116.011 L306.958,116.011 L306.958,121.028 L305.294,121.028 L305.294,121.028 Z" id="Fill-22" fill="#636463"></path>
            <path d="M315.435,113.412 L315.435,115.159 L315.517,115.026 C316.247,113.851 316.974,113.263 317.704,113.263 C318.271,113.263 318.865,113.55 319.483,114.124 L318.688,115.448 C318.165,114.952 317.68,114.703 317.231,114.703 C316.746,114.703 316.325,114.935 315.97,115.399 C315.613,115.862 315.435,116.412 315.435,117.046 L315.435,121.028 L313.92,121.028 L313.92,113.412 L315.435,113.412" id="Fill-23" fill="#636463"></path>
            <path d="M323.673,114.753 C322.949,114.753 322.356,114.99 321.892,115.465 C321.429,115.94 321.196,116.544 321.196,117.278 C321.196,118.006 321.434,118.601 321.909,119.062 C322.384,119.522 322.994,119.753 323.738,119.753 C324.478,119.753 325.084,119.52 325.556,119.054 C326.027,118.587 326.264,117.99 326.264,117.261 C326.264,116.539 326.017,115.94 325.526,115.465 C325.035,114.99 324.417,114.753 323.673,114.753 Z M323.755,113.395 C324.915,113.395 325.878,113.769 326.644,114.517 C327.411,115.265 327.796,116.205 327.796,117.336 C327.796,118.435 327.406,119.346 326.628,120.072 C325.849,120.798 324.87,121.161 323.689,121.161 C322.547,121.161 321.592,120.792 320.824,120.056 C320.057,119.319 319.674,118.398 319.674,117.294 C319.674,116.18 320.061,115.251 320.837,114.509 C321.612,113.767 322.585,113.395 323.755,113.395 L323.755,113.395 Z" id="Fill-24" fill="#636463"></path>
            <path d="M330.908,115.399 L330.908,119.521 C331.421,119.676 331.948,119.753 332.488,119.753 C333.157,119.753 333.702,119.516 334.124,119.041 C334.546,118.566 334.758,117.957 334.758,117.211 C334.758,116.456 334.56,115.84 334.165,115.365 C333.77,114.891 333.256,114.653 332.621,114.653 C332.058,114.653 331.487,114.902 330.908,115.399 Z M329.4,109.463 L330.908,109.463 L330.908,113.958 C331.559,113.483 332.254,113.246 332.994,113.246 C333.96,113.246 334.749,113.61 335.361,114.339 C335.974,115.068 336.28,116.003 336.28,117.145 C336.28,118.371 335.915,119.346 335.183,120.072 C334.452,120.798 333.474,121.161 332.249,121.161 C331.758,121.161 331.24,121.108 330.696,121.003 C330.152,120.899 329.721,120.766 329.4,120.606 L329.4,109.463 L329.4,109.463 Z" id="Fill-25" fill="#636463"></path>
            <polygon id="Fill-26" fill="#636463" points="337.977 121.028 339.484 121.028 339.484 109.463 337.977 109.463"></polygon>
            <path d="M342.829,116.45 L346.662,116.45 C346.624,115.849 346.443,115.385 346.123,115.059 C345.804,114.733 345.373,114.571 344.832,114.571 C344.291,114.571 343.849,114.733 343.504,115.059 C343.158,115.385 342.933,115.849 342.829,116.45 Z M348.152,117.353 L342.796,117.353 C342.834,118.081 343.079,118.66 343.528,119.091 C343.978,119.521 344.559,119.737 345.27,119.737 C346.265,119.737 347.181,119.428 348.019,118.809 L348.019,120.283 C347.556,120.592 347.097,120.813 346.641,120.945 C346.185,121.078 345.652,121.144 345.039,121.144 C344.2,121.144 343.521,120.97 343.003,120.623 C342.484,120.275 342.069,119.807 341.757,119.219 C341.445,118.631 341.289,117.952 341.289,117.179 C341.289,116.02 341.617,115.077 342.273,114.352 C342.932,113.626 343.784,113.263 344.832,113.263 C345.843,113.263 346.648,113.616 347.249,114.322 C347.85,115.029 348.152,115.976 348.152,117.162 L348.152,117.353 L348.152,117.353 Z" id="Fill-27" fill="#636463"></path>
            <path d="M356.025,115.498 L356.025,121.028 L354.51,121.028 L354.51,116.79 C354.51,115.945 354.396,115.356 354.171,115.022 C353.944,114.688 353.55,114.521 352.987,114.521 C352.673,114.521 352.384,114.593 352.122,114.736 C351.859,114.88 351.56,115.133 351.224,115.498 L351.224,121.028 L349.717,121.028 L349.717,113.412 L351.224,113.412 L351.224,114.413 C351.99,113.646 352.741,113.263 353.475,113.263 C354.441,113.263 355.188,113.721 355.72,114.637 C356.525,113.71 357.366,113.246 358.244,113.246 C358.983,113.246 359.592,113.517 360.069,114.058 C360.547,114.599 360.785,115.423 360.785,116.533 L360.785,121.028 L359.279,121.028 L359.279,116.517 C359.279,115.882 359.149,115.396 358.89,115.059 C358.631,114.722 358.258,114.554 357.771,114.554 C357.148,114.554 356.566,114.869 356.025,115.498" id="Fill-28" fill="#636463"></path>
            <path d="M374.023,115.333 L377.906,115.333 L377.906,120.233 C376.481,120.852 375.068,121.161 373.668,121.161 C371.752,121.161 370.223,120.602 369.077,119.484 C367.932,118.367 367.358,116.988 367.358,115.349 C367.358,113.622 367.952,112.184 369.139,111.036 C370.325,109.888 371.812,109.314 373.6,109.314 C374.252,109.314 374.87,109.384 375.456,109.525 C376.04,109.666 376.78,109.923 377.675,110.299 L377.675,111.988 C376.294,111.187 374.926,110.788 373.568,110.788 C372.304,110.788 371.238,111.218 370.372,112.079 C369.506,112.94 369.072,113.997 369.072,115.249 C369.072,116.563 369.506,117.637 370.372,118.47 C371.238,119.304 372.353,119.72 373.717,119.72 C374.379,119.72 375.171,119.568 376.093,119.265 L376.25,119.215 L376.25,116.806 L374.023,116.806 L374.023,115.333" id="Fill-29" fill="#636463"></path>
            <path d="M383.419,119.521 L383.419,117.261 L382.409,117.65 C381.896,117.854 381.533,118.06 381.321,118.268 C381.107,118.474 381.002,118.732 381.002,119.041 C381.002,119.356 381.102,119.612 381.305,119.811 C381.506,120.01 381.766,120.109 382.087,120.109 C382.566,120.109 383.011,119.913 383.419,119.521 Z M384.9,116.45 L384.9,119.687 C384.9,119.947 384.989,120.076 385.166,120.076 C385.348,120.076 385.633,119.941 386.018,119.67 L386.018,120.59 C385.677,120.81 385.402,120.96 385.195,121.041 C384.988,121.121 384.771,121.161 384.545,121.161 C383.899,121.161 383.518,120.907 383.402,120.399 C382.763,120.895 382.081,121.144 381.357,121.144 C380.828,121.144 380.386,120.969 380.033,120.618 C379.68,120.268 379.504,119.828 379.504,119.298 C379.504,118.817 379.676,118.389 380.021,118.01 C380.366,117.633 380.855,117.333 381.49,117.112 L383.419,116.45 L383.419,116.044 C383.419,115.128 382.961,114.67 382.045,114.67 C381.223,114.67 380.423,115.095 379.644,115.945 L379.644,114.297 C380.228,113.607 381.071,113.263 382.169,113.263 C382.992,113.263 383.651,113.478 384.148,113.908 C384.313,114.046 384.463,114.23 384.596,114.459 C384.726,114.688 384.811,114.917 384.848,115.146 C384.884,115.375 384.9,115.81 384.9,116.45 L384.9,116.45 Z" id="Fill-30" fill="#636463"></path>
            <path d="M393.594,115.498 L393.594,121.028 L392.078,121.028 L392.078,116.79 C392.078,115.945 391.965,115.356 391.739,115.022 C391.513,114.688 391.118,114.521 390.556,114.521 C390.241,114.521 389.952,114.593 389.69,114.736 C389.428,114.88 389.129,115.133 388.792,115.498 L388.792,121.028 L387.285,121.028 L387.285,113.412 L388.792,113.412 L388.792,114.413 C389.558,113.646 390.309,113.263 391.044,113.263 C392.01,113.263 392.757,113.721 393.288,114.637 C394.094,113.71 394.934,113.246 395.811,113.246 C396.552,113.246 397.16,113.517 397.638,114.058 C398.115,114.599 398.353,115.423 398.353,116.533 L398.353,121.028 L396.848,121.028 L396.848,116.517 C396.848,115.882 396.718,115.396 396.458,115.059 C396.199,114.722 395.826,114.554 395.34,114.554 C394.716,114.554 394.135,114.869 393.594,115.498" id="Fill-31" fill="#636463"></path>
            <path d="M401.864,115.399 L401.864,119.521 C402.377,119.676 402.903,119.753 403.444,119.753 C404.113,119.753 404.658,119.516 405.08,119.041 C405.502,118.566 405.714,117.957 405.714,117.211 C405.714,116.456 405.516,115.84 405.121,115.365 C404.726,114.891 404.212,114.653 403.577,114.653 C403.015,114.653 402.442,114.902 401.864,115.399 Z M400.356,109.463 L401.864,109.463 L401.864,113.958 C402.515,113.483 403.21,113.246 403.95,113.246 C404.916,113.246 405.705,113.61 406.317,114.339 C406.93,115.068 407.236,116.003 407.236,117.145 C407.236,118.371 406.87,119.346 406.14,120.072 C405.408,120.798 404.431,121.161 403.205,121.161 C402.714,121.161 402.196,121.108 401.652,121.003 C401.108,120.899 400.677,120.766 400.356,120.606 L400.356,109.463 L400.356,109.463 Z" id="Fill-32" fill="#636463"></path>
            <polygon id="Fill-33" fill="#636463" points="408.933 121.028 410.44 121.028 410.44 109.463 408.933 109.463"></polygon>
            <path d="M412.65,121.028 L414.157,121.028 L414.157,113.412 L412.65,113.412 L412.65,121.028 Z M413.396,110.208 C413.643,110.208 413.856,110.293 414.032,110.464 C414.21,110.636 414.298,110.845 414.298,111.094 C414.298,111.336 414.21,111.546 414.032,111.723 C413.856,111.899 413.643,111.988 413.396,111.988 C413.164,111.988 412.96,111.898 412.783,111.719 C412.605,111.54 412.518,111.331 412.518,111.094 C412.518,110.862 412.605,110.657 412.783,110.477 C412.96,110.297 413.164,110.208 413.396,110.208 L413.396,110.208 Z" id="Fill-34" fill="#636463"></path>
            <path d="M417.842,113.412 L417.842,114.38 C418.516,113.635 419.28,113.263 420.135,113.263 C420.609,113.263 421.052,113.386 421.46,113.631 C421.868,113.877 422.179,114.213 422.391,114.641 C422.603,115.069 422.71,115.746 422.71,116.674 L422.71,121.028 L421.203,121.028 L421.203,116.69 C421.203,115.912 421.084,115.356 420.848,115.022 C420.609,114.688 420.213,114.521 419.655,114.521 C418.943,114.521 418.339,114.877 417.842,115.589 L417.842,121.028 L416.302,121.028 L416.302,113.412 L417.842,113.412" id="Fill-35" fill="#636463"></path>
            <path d="M427.254,114.72 C426.846,114.72 426.498,114.858 426.211,115.133 C425.925,115.41 425.781,115.741 425.781,116.127 C425.781,116.519 425.922,116.843 426.202,117.1 C426.484,117.356 426.84,117.485 427.27,117.485 C427.696,117.485 428.05,117.354 428.334,117.092 C428.619,116.83 428.761,116.502 428.761,116.111 C428.761,115.713 428.617,115.382 428.331,115.117 C428.044,114.852 427.684,114.72 427.254,114.72 Z M426.898,121.384 C426.39,121.384 425.974,121.492 425.652,121.707 C425.329,121.922 425.168,122.198 425.168,122.535 C425.168,123.318 425.874,123.71 427.287,123.71 C427.955,123.71 428.473,123.612 428.839,123.416 C429.206,123.221 429.39,122.943 429.39,122.584 C429.39,122.231 429.158,121.943 428.694,121.72 C428.231,121.496 427.632,121.384 426.898,121.384 Z M424.423,116.044 C424.423,115.233 424.72,114.592 425.312,114.12 C425.906,113.648 426.717,113.412 427.742,113.412 L430.88,113.412 L430.88,114.587 L429.341,114.587 C429.639,114.891 429.846,115.167 429.961,115.415 C430.077,115.664 430.135,115.948 430.135,116.268 C430.135,116.666 430.021,117.056 429.796,117.439 C429.569,117.823 429.278,118.117 428.923,118.321 C428.566,118.525 427.982,118.688 427.171,118.809 C426.603,118.892 426.318,119.088 426.318,119.397 C426.318,119.574 426.425,119.719 426.638,119.832 C426.849,119.945 427.235,120.062 427.792,120.184 C428.724,120.388 429.325,120.548 429.593,120.664 C429.86,120.78 430.102,120.945 430.317,121.161 C430.682,121.525 430.863,121.983 430.863,122.535 C430.863,123.258 430.542,123.834 429.899,124.265 C429.256,124.696 428.396,124.911 427.32,124.911 C426.232,124.911 425.365,124.694 424.717,124.261 C424.067,123.828 423.744,123.247 423.744,122.519 C423.744,121.486 424.382,120.821 425.656,120.523 C425.148,120.198 424.894,119.875 424.894,119.555 C424.894,119.312 425.003,119.091 425.222,118.892 C425.439,118.694 425.733,118.547 426.103,118.454 C424.983,117.957 424.423,117.154 424.423,116.044 L424.423,116.044 Z" id="Fill-36" fill="#636463"></path>
            <g id="Group-40" transform="translate(0.000000, 21.000000)">
                <polygon id="Fill-37" fill="#636463" points="161.249 80.291 432.317 80.291 432.317 79.822 161.249 79.822"></polygon>
                <path d="M0.711,54.752 C2.955,69.93 12.916,89.425 27.35,97.904 C27.523,98.006 27.698,98.098 27.872,98.197 C28.736,98.685 29.609,99.148 30.503,99.554 C35.71,101.915 41.662,103.163 47.716,103.163 C47.718,103.163 47.72,103.163 47.72,103.163 C48.841,103.163 49.957,103.108 51.071,103.026 C51.417,103 51.763,102.964 52.108,102.931 C52.908,102.854 53.705,102.755 54.499,102.637 C54.857,102.584 55.215,102.535 55.572,102.474 C56.615,102.293 57.652,102.086 58.68,101.835 C58.889,101.785 59.095,101.722 59.304,101.668 C60.198,101.437 61.084,101.181 61.962,100.897 C62.352,100.772 62.737,100.634 63.123,100.499 C63.818,100.255 64.505,99.994 65.187,99.717 C65.559,99.567 65.932,99.419 66.3,99.259 C67.251,98.845 68.191,98.406 69.111,97.928 C69.152,97.908 69.194,97.89 69.234,97.869 C69.305,97.833 69.374,97.791 69.445,97.753 C70.479,97.207 71.496,96.625 72.485,96.001 C72.497,95.993 72.51,95.985 72.522,95.978 C73.568,95.316 74.588,94.612 75.577,93.866 C77.24,92.61 78.787,91.258 80.221,89.826 C80.303,89.743 80.382,89.658 80.464,89.575 C81.017,89.013 81.547,88.437 82.065,87.851 C82.238,87.655 82.413,87.461 82.582,87.262 C83.108,86.646 83.615,86.018 84.102,85.377 C84.394,84.992 84.67,84.596 84.949,84.201 C85.129,83.948 85.307,83.694 85.481,83.437 C89.334,77.722 91.807,71.119 92.646,64.065 L92.722,63.398 C93.131,59.404 92.975,55.398 92.336,51.48 C91.48,55.153 89.881,58.648 87.565,61.767 C83.122,67.751 76.615,71.646 69.242,72.736 C68.17,72.896 67.068,72.992 65.966,73.025 C64.629,73.147 63.138,73.213 61.668,73.213 C51.897,73.213 42.434,70.369 34.298,64.987 C25.651,59.399 19.122,51.333 15.448,42.007 C15.348,41.754 15.243,41.502 15.148,41.248 C14.993,40.836 14.85,40.42 14.707,40.003 C14.578,39.629 14.452,39.255 14.332,38.877 C14.216,38.51 14.104,38.142 13.997,37.772 C13.868,37.329 13.748,36.882 13.631,36.433 C13.545,36.102 13.459,35.771 13.38,35.437 C13.256,34.915 13.146,34.387 13.04,33.857 C12.985,33.585 12.924,33.314 12.874,33.039 C12.726,32.23 12.594,31.416 12.486,30.592 C12.326,29.358 12.221,28.123 12.153,26.889 C12.131,26.487 12.131,26.087 12.119,25.686 C12.092,24.85 12.076,24.016 12.091,23.183 C12.1,22.718 12.122,22.256 12.143,21.793 C12.178,21.017 12.228,20.245 12.298,19.475 C12.341,19.005 12.387,18.538 12.442,18.07 C12.536,17.289 12.652,16.513 12.78,15.738 C12.852,15.306 12.916,14.872 12.999,14.443 C13.171,13.546 13.376,12.658 13.596,11.774 C13.668,11.483 13.725,11.189 13.802,10.899 C14.113,9.735 14.464,8.585 14.855,7.451 C14.952,7.168 15.069,6.893 15.171,6.613 C15.48,5.762 15.803,4.918 16.157,4.088 C16.326,3.692 16.51,3.306 16.688,2.915 C17.011,2.208 17.344,1.509 17.699,0.819 C17.795,0.631 17.875,0.433 17.975,0.247 C4.318,14.538 -2.284,34.495 0.711,54.752" id="Fill-39" fill="#00A3DA"></path>
            </g>
            <path d="M64.767,130.904 C79.613,130.904 94.156,125.749 105.718,116.392 C117.617,106.763 129.305,88.332 129.316143,71.623 C129.317,71.359 129.308,71.099 129.303,70.837 C129.282,69.871 129.24,68.907 129.137,67.955 C129.036,67.021 128.897,66.091 128.726,65.165 C128.702,65.034 128.668,64.904 128.643,64.773 C128.481,63.942 128.301,63.113 128.085,62.292 C128.078,62.265 128.07,62.239 128.063,62.213 C125.113,51.096 117.307,40.984 106.994,34.886 C106.786,34.765 106.576,34.645 106.366,34.526 C105.725,34.161 105.077,33.811 104.419,33.478 C104.224,33.379 104.03,33.281 103.834,33.184 C103.005,32.779 102.166,32.393 101.311,32.04 C96.01,29.858 90.434,28.751 84.74,28.751 C74.069,28.751 63.996,32.566 56.09,39.243 C58.839,38.355 61.725,37.892 64.638,37.892 C73.108,37.892 81.019,41.664 86.343,48.242 C87.03,49.092 87.674,49.99 88.258,50.916 C88.829,51.706 89.435,52.614 90.011,53.54 L90.045,53.523 C90.426,54.137 90.79,54.759 91.143,55.388 C91.389,55.826 91.62,56.268 91.852,56.71 C91.932,56.863 92.016,57.013 92.093,57.167 C101.23,74.994 98.747,96.043 86.35,110.855 C86.237,110.99 86.12,111.122 86.005,111.255 C85.654,111.666 85.3,112.076 84.932,112.477 C84.661,112.775 84.379,113.066 84.098,113.358 C83.876,113.589 83.656,113.823 83.428,114.05 C83.021,114.458 82.602,114.856 82.179,115.25 C82.062,115.358 81.949,115.468 81.832,115.575 C81.314,116.049 80.783,116.511 80.242,116.964 C80.206,116.994 80.171,117.025 80.135,117.055 C79.957,117.203 79.786,117.358 79.606,117.504 C79.201,117.832 78.783,118.141 78.368,118.456 C78.35,118.469 78.334,118.483 78.317,118.496 C78.311,118.5 78.306,118.503 78.301,118.507 C77.222,119.322 76.111,120.09 74.971,120.81 C74.948,120.824 74.926,120.838 74.903,120.852 C73.809,121.54 72.694,122.189 71.552,122.784 C71.481,122.821 71.412,122.862 71.341,122.9 C71.336,122.902 71.331,122.905 71.326,122.908 C70.265,123.461 69.18,123.965 68.083,124.442 C67.727,124.597 67.367,124.739 67.009,124.885 C66.199,125.216 65.382,125.525 64.557,125.814 C64.185,125.944 63.816,126.077 63.442,126.198 C62.307,126.566 61.163,126.907 60.006,127.195 C59.88,127.227 59.751,127.249 59.624,127.28 C58.55,127.539 57.468,127.757 56.38,127.946 C55.994,128.013 55.606,128.069 55.218,128.127 C54.331,128.26 53.442,128.369 52.549,128.455 C52.191,128.489 51.835,128.531 51.476,128.557 C50.307,128.645 49.137,128.704 47.965,128.71 C53.427,130.16 59.08,130.904 64.762,130.904 C64.764,130.904 64.765,130.904 64.767,130.904" id="Fill-41" fill="#224C66"></path>
            <path d="M118.834,38.163 C122.133,41.323 124.988,44.889 127.293,48.757 C121.937,29.128 107.613,12.871 88.003,5.26 C80.811,2.468 72.193,0.931 63.736,0.931 C51.958,0.931 41.522,3.797 34.346,9.002 C34.343,9.005 34.339,9.007 34.335,9.01 C24.987,15.798 18.731,26.988 17.07,38.937 C16.516,42.921 16.473,46.989 16.996,51.006 C17.118,51.944 17.279,52.87 17.46,53.788 C17.514,54.062 17.577,54.333 17.636,54.606 C17.781,55.274 17.939,55.937 18.115,56.593 C18.186,56.862 18.258,57.131 18.335,57.398 C18.558,58.173 18.8,58.939 19.064,59.695 C19.101,59.802 19.133,59.912 19.171,60.018 C19.836,61.873 20.623,63.669 21.521,65.396 C21.547,65.445 21.573,65.494 21.598,65.543 C25.29,72.577 30.838,78.477 37.564,82.648 C37.579,82.658 37.593,82.665 37.607,82.675 C40.133,84.237 42.823,85.557 45.643,86.602 C37.434,79.053 34.221,66.951 38.495,55.942 C38.888,54.929 39.348,53.924 39.863,52.951 C47.853,35.47 65.416,24.096 84.548,24.096 C90.503,24.096 96.356,25.196 101.945,27.365 C103.233,27.866 104.496,28.444 105.742,29.055 C106.081,29.219 106.415,29.392 106.75,29.563 C107.019,29.703 107.298,29.828 107.564,29.973 C107.758,30.076 107.94,30.196 108.132,30.302 C108.799,30.669 109.454,31.05 110.102,31.445 C110.404,31.63 110.704,31.815 111.001,32.006 C111.72,32.465 112.423,32.942 113.115,33.435 C113.325,33.585 113.536,33.733 113.743,33.886 C114.514,34.453 115.265,35.041 115.999,35.647 C116.119,35.746 116.239,35.842 116.357,35.941 C117.177,36.63 117.972,37.343 118.744,38.079 C118.774,38.107 118.805,38.134 118.834,38.163" id="Fill-42" fill="#286AA6"></path>
        </g>
    </g>
</svg>