<?xml version="1.0" encoding="utf-8"?>
<!-- Generator: Adobe Illustrator 26.0.3, SVG Export Plug-In . SVG Version: 6.00 Build 0)  -->
<svg version="1.0" id="katman_1" xmlns="http://www.w3.org/2000/svg" xmlns:xlink="http://www.w3.org/1999/xlink" x="0px" y="0px"
	 viewBox="0 0 600 450" style="enable-background:new 0 0 600 450;" xml:space="preserve">
<style type="text/css">
	.st0{opacity:0.95;fill:#3CAA36;enable-background:new    ;}
	.st1{fill:#3CAA36;}
	.st2{opacity:0.55;fill:#3CAA36;enable-background:new    ;}
	.st3{opacity:0.65;fill:#3CAA36;enable-background:new    ;}
	.st4{opacity:0.85;fill:#3CAA36;enable-background:new    ;}
	.st5{opacity:0.75;fill:#3CAA36;enable-background:new    ;}
</style>
<path class="st0" d="M376.9,261.2c-13.7,0-24.8,11.2-24.8,25c0,13.8,11.1,25,24.8,25c13.7,0,24.8-11.2,24.8-25
	C401.7,272.4,390.6,261.2,376.9,261.2z"/>
<path class="st1" d="M428.1,261.2c-13.7,0-24.8,11.2-24.8,25c0,13.8,11.1,25,24.8,25c13.7,0,24.8-11.2,24.8-25
	C452.8,272.4,441.7,261.2,428.1,261.2z"/>
<path class="st2" d="M172.2,261.2c-13.7,0-24.8,11.2-24.8,25c0,13.8,11.1,25,24.8,25c13.7,0,24.8-11.2,24.8-25
	C196.9,272.4,185.9,261.2,172.2,261.2z"/>
<path class="st3" d="M223.4,261.2c-13.7,0-24.8,11.2-24.8,25c0,13.8,11.1,25,24.8,25c13.7,0,24.8-11.2,24.8-25
	C248.1,272.4,237,261.2,223.4,261.2z"/>
<path class="st4" d="M325.7,261.2c-13.7,0-24.8,11.2-24.8,25c0,13.8,11.1,25,24.8,25c13.7,0,24.8-11.2,24.8-25
	C350.5,272.4,339.4,261.2,325.7,261.2z"/>
<path class="st5" d="M274.5,261.2c-13.7,0-24.8,11.2-24.8,25c0,13.8,11.1,25,24.8,25c13.7,0,24.8-11.2,24.8-25
	C299.2,272.4,288.1,261.2,274.5,261.2z"/>
<path d="M452.2,213.8l-43,0l0-16.7l23,0c0,0,0,0,0,0c0.5,0,1-0.2,1.3-0.6c0.4-0.4,0.6-0.8,0.6-1.4l0-18c0-1.1-0.9-1.9-1.9-1.9l-23,0
	l0-14l40.4,0c0,0,0,0,0,0c1.1,0,1.9-0.9,1.9-1.9l0-17.9c0-0.5-0.2-1-0.6-1.4c-0.4-0.4-0.8-0.6-1.4-0.6l-64.3-0.1c0,0,0,0,0,0
	c-0.5,0-1,0.2-1.3,0.6c-0.4,0.4-0.6,0.8-0.6,1.3l-0.1,92.2c0,1.1,0.9,1.9,1.9,1.9l66.9,0.1c0,0,0,0,0,0c0.5,0,1-0.2,1.3-0.6
	c0.4-0.4,0.6-0.8,0.6-1.4l0-18C454.1,214.7,453.2,213.8,452.2,213.8z"/>
<path d="M228.3,139.5l-21.6,0h0c-0.5,0-1,0.2-1.4,0.6c-0.4,0.4-0.6,0.8-0.6,1.4l0,48.1l-21-48.9c-0.3-0.7-1-1.2-1.8-1.2h-27.8
	c-1.1,0-1.9,0.9-1.9,1.9l0,92.3c0,1.1,0.9,1.9,1.9,1.9l21.9,0c0,0,0,0,0,0c0.5,0,1-0.2,1.4-0.6s0.6-0.8,0.6-1.4l0-54.5l24.2,55.3
	c0.3,0.7,1,1.1,1.7,1.1l24.3,0h0c0.5,0,1-0.2,1.4-0.6c0.4-0.4,0.6-0.8,0.6-1.4l0-92.3C230.2,140.4,229.3,139.5,228.3,139.5z"/>
<path d="M133.5,139.5l-24.4,0c-0.2,0-0.5,0.1-0.7,0.3c-0.2,0.2-0.3,0.4-0.3,0.6v59.2c0,6.5-5.3,11.8-11.8,11.8
	c-6.5,0-11.8-5.3-11.8-11.8v-48.6l0,0l0-3.5l0-7.2c0-0.5-0.4-0.9-0.9-0.9l-24.4,0c-0.2,0-0.5,0.1-0.7,0.3c-0.2,0.2-0.3,0.4-0.3,0.6
	v59.2c0,21,17,38,38,38c21,0,38-17,38-38v-52.1l0,0l0-7.2C134.4,139.9,134,139.5,133.5,139.5z"/>
<path d="M273.8,141.4c0-1.1-0.9-1.9-1.9-1.9l-22,0c0,0,0,0,0,0c-1.1,0-1.9,0.9-1.9,1.9l0,92.2c0,0.5,0.2,1,0.6,1.4
	c0.4,0.4,0.8,0.6,1.4,0.6l22,0h0c0.5,0,1-0.2,1.3-0.6c0.4-0.4,0.6-0.8,0.6-1.4L273.8,141.4z"/>
<path d="M358.7,183.6c5-4.6,8.1-11.2,8.1-18.6c0-14.1-11.4-25.5-25.5-25.5c-0.2,0-0.4,0-0.6,0l-11.9,0v0l-35.2,0h0
	c-1.1,0-1.9,0.9-1.9,1.9l0,92.2c0,0.5,0.2,1,0.6,1.4c0.4,0.4,0.8,0.6,1.4,0.6l35.2,0v0h6.3c0,0,0,0,0,0h5.7c16,0,29.1-13,29.1-29.1
	C369.9,197.2,365.5,188.9,358.7,183.6z M316.9,158.7h19.2c3.8,0,6.9,3.1,6.9,6.9c0,3.8-3.1,6.9-6.9,6.9h-19.2V158.7z M335.9,212.6
	C335.8,212.6,335.8,212.6,335.9,212.6l-19,0v-20h19c5.5,0,10,4.5,10,10C345.9,208.1,341.4,212.6,335.9,212.6z"/>
<path d="M541.3,140.2c-0.4-0.4-0.8-0.6-1.4-0.6l-72.1-0.1c0,0,0,0,0,0c-1.1,0-1.9,0.9-1.9,1.9l0,17.8c0,1.1,0.9,1.9,1.9,1.9l22.6,0
	l-0.1,72.5c0,0.5,0.2,1,0.6,1.4c0.4,0.4,0.8,0.6,1.3,0.6l22.8,0c0,0,0,0,0,0c1.1,0,1.9-0.9,1.9-1.9l0.1-72.5l22.9,0c0,0,0,0,0,0
	c1.1,0,1.9-0.9,1.9-1.9l0-17.8C541.9,141,541.7,140.6,541.3,140.2z"/>
</svg>
