<svg width="88" height="27" viewBox="0 0 88 27" fill="none" xmlns="http://www.w3.org/2000/svg">
<g clip-path="url(#clip0_91_79)">
<path d="M43.7614 8.31485H46.6606L41.8696 20.5983H38.7984L34.0074 8.31485H36.9066L40.3463 17.6503L43.7614 8.31485Z" fill="black"/>
<path d="M57.5905 8.31485H60.2439V20.5983H57.5905V18.8295C56.5913 20.2216 55.1581 20.9177 53.2908 20.9177C51.6037 20.9177 50.1623 20.2953 48.9666 19.0506C47.7709 17.7895 47.1731 16.2582 47.1731 14.4566C47.1731 12.6386 47.7709 11.1073 48.9666 9.86257C50.1623 8.61784 51.6037 7.99548 53.2908 7.99548C55.1581 7.99548 56.5913 8.68336 57.5905 10.0591V8.31485ZM50.9322 17.2818C51.6693 18.0188 52.5947 18.3873 53.7085 18.3873C54.8223 18.3873 55.7478 18.0188 56.4848 17.2818C57.2219 16.5284 57.5905 15.5867 57.5905 14.4566C57.5905 13.3265 57.2219 12.393 56.4848 11.656C55.7478 10.9026 54.8223 10.5259 53.7085 10.5259C52.5947 10.5259 51.6693 10.9026 50.9322 11.656C50.1951 12.393 49.8266 13.3265 49.8266 14.4566C49.8266 15.5867 50.1951 16.5284 50.9322 17.2818Z" fill="black"/>
<path d="M71.6658 8.31485H74.565L69.7739 20.5983H66.7028L61.9118 8.31485H64.8109L68.2506 17.6503L71.6658 8.31485Z" fill="black"/>
<path d="M77.8538 15.5867C78.0503 16.5202 78.5008 17.2408 79.2051 17.7485C79.9094 18.2399 80.7693 18.4855 81.7849 18.4855C83.1935 18.4855 84.25 17.9778 84.9543 16.9624L87.141 18.2399C85.9289 20.0251 84.1353 20.9177 81.7603 20.9177C79.762 20.9177 78.1486 20.3117 76.9202 19.0997C75.6917 17.8714 75.0775 16.3237 75.0775 14.4566C75.0775 12.6223 75.6835 11.0909 76.8956 9.86257C78.1077 8.61784 79.6637 7.99548 81.5638 7.99548C83.3655 7.99548 84.8397 8.62603 85.9862 9.88713C87.1492 11.1482 87.7306 12.6796 87.7306 14.4811C87.7306 14.7596 87.6979 15.1281 87.6324 15.5867H77.8538ZM77.8292 13.4248H85.0526C84.8724 12.4257 84.4547 11.6723 83.7996 11.1646C83.1608 10.6569 82.4073 10.403 81.5392 10.403C80.5564 10.403 79.7374 10.6733 79.0823 11.2138C78.4271 11.7542 78.0094 12.4912 77.8292 13.4248Z" fill="black"/>
</g>
<g clip-path="url(#clip1_91_79)">
<path fill-rule="evenodd" clip-rule="evenodd" d="M5.59175 0H0L3.355 6.71275H0.319504L1.91702 10.8895H5.43178L6.86976 13.7238H3.355L5.27224 17.9005H9.1065L13.7395 27L18.0532 17.9005L21.568 17.7513L23.8047 13.5745H20.2898L21.568 10.8895H24.923L27 6.5635H23.645L26.8402 0H21.0887L13.5798 15.812L5.59175 0Z" fill="#22C99D"/>
</g>
<defs>
<clipPath id="clip0_91_79">
<rect width="54" height="14" fill="white" transform="translate(34 7)"/>
</clipPath>
<clipPath id="clip1_91_79">
<rect width="27" height="27" fill="white"/>
</clipPath>
</defs>
</svg>
