<svg width="776" height="263" viewBox="0 0 776 263" fill="none" xmlns="http://www.w3.org/2000/svg">
<mask id="mask0_88_53" style="mask-type:luminance" maskUnits="userSpaceOnUse" x="0" y="0" width="776" height="263">
<path d="M0 0H776V263H0V0Z" fill="white"/>
</mask>
<g mask="url(#mask0_88_53)">
<path d="M622.387 202.494C627.848 202.494 632.4 197.943 632.4 192.663C632.4 187.202 627.848 182.65 622.387 182.65C616.925 182.65 612.374 187.202 612.374 192.663C612.374 197.943 616.925 202.494 622.387 202.494Z" fill="#1134A6"/>
<path d="M663.166 86.3468C667.171 86.3468 670.812 82.8878 670.812 78.8828C670.812 74.6957 667.171 71.0547 663.166 71.0547C658.979 71.0547 655.52 74.6957 655.52 78.8828C655.52 82.8878 658.979 86.3468 663.166 86.3468ZM658.979 200.491H667.353V113.108H658.979V200.491Z" fill="#1134A6"/>
<path d="M688.515 156.8C688.515 183.197 706.901 202.676 731.842 202.676C756.783 202.676 775.17 183.197 775.17 156.8C775.17 130.403 756.783 110.923 731.842 110.923C706.901 110.923 688.515 130.403 688.515 156.8ZM697.071 156.8C697.071 134.408 711.453 118.569 731.842 118.569C752.232 118.569 766.613 134.408 766.613 156.8C766.613 179.192 752.232 195.03 731.842 195.03C711.453 195.03 697.071 179.192 697.071 156.8Z" fill="#1134A6"/>
<path d="M278.119 200.491H299.783L312.162 161.897C316.713 147.151 318.352 140.779 319.262 136.592C319.99 141.143 321.993 149.699 325.634 161.533L338.013 200.491H358.767L389.897 110.559H366.413L354.398 149.153C352.759 154.797 349.846 165.538 348.39 172.273C347.298 166.266 343.657 152.794 342.564 149.153L330.549 110.559H307.975L295.596 149.153C292.683 158.074 291.045 163.717 289.406 172.456C287.768 164.081 285.947 156.253 283.945 149.153L272.112 110.559H248.991L278.119 200.491Z" fill="#1134A6"/>
<path d="M414.451 92.5362C421.733 92.5362 427.74 86.5286 427.74 79.0646C427.74 71.6006 421.733 65.7751 414.451 65.7751C406.805 65.7751 400.797 71.6006 400.797 79.0646C400.797 86.5286 406.805 92.5362 414.451 92.5362ZM403.346 200.491H425.556V110.559H403.346V200.491Z" fill="#1134A6"/>
<path d="M470.894 200.491V65.0469H448.867V200.491H470.894Z" fill="#1134A6"/>
<path d="M531.148 202.858C544.802 202.858 556.453 196.85 561.914 186.473L563.371 200.491H583.76V65.0469H561.732V122.028C556.089 113.108 544.984 107.828 532.423 107.828C505.297 107.828 488.913 127.854 488.913 155.889C488.913 183.743 505.115 202.858 531.148 202.858ZM536.064 182.468C520.589 182.468 511.123 171.181 511.123 155.161C511.123 139.141 520.589 127.672 536.064 127.672C551.538 127.672 561.55 138.959 561.55 155.161C561.55 171.363 551.538 182.468 536.064 182.468Z" fill="#1134A6"/>
<path fill-rule="evenodd" clip-rule="evenodd" d="M277.394 201.487L247.621 109.563H272.848L284.9 148.872L284.903 148.883C286.523 154.626 288.023 160.838 289.403 167.424C290.77 161.129 292.299 156.041 294.648 148.847C294.648 148.846 294.648 148.845 294.648 148.844L307.248 109.563H331.282L343.518 148.867C344.392 151.781 346.896 160.978 348.432 167.656C349.983 161.241 352.124 153.411 353.44 148.876L353.443 148.866L365.679 109.563H391.296L359.476 201.487H337.284L324.681 161.826C322.016 153.164 320.222 146.237 319.16 141.333C318.074 145.596 316.309 151.838 313.114 162.191L313.111 162.201L300.509 201.487H277.394ZM318.694 139.072C318.914 138.153 319.1 137.338 319.262 136.592C319.379 137.323 319.529 138.158 319.713 139.093C320.676 143.978 322.578 151.601 325.633 161.533L338.013 200.491H358.766L389.897 110.559H366.412L354.397 149.153C352.942 154.167 350.48 163.205 348.928 169.882C348.733 170.721 348.552 171.522 348.39 172.274C348.261 171.567 348.098 170.758 347.907 169.874C346.476 163.235 343.528 152.366 342.564 149.153L330.549 110.559H307.975L295.595 149.153C292.979 157.165 291.391 162.533 289.908 169.875C289.74 170.707 289.573 171.565 289.406 172.456C289.236 171.59 289.065 170.729 288.892 169.875C287.389 162.47 285.74 155.519 283.944 149.153L272.111 110.559H248.991L278.119 200.491H299.783L312.162 161.897C315.903 149.777 317.676 143.314 318.694 139.072ZM402.349 201.487V109.563H426.552V201.487H402.349ZM428.736 79.0647C428.736 87.07 422.291 93.5324 414.45 93.5324C406.263 93.5324 399.801 87.0876 399.801 79.0647C399.801 71.0243 406.281 64.779 414.45 64.779C422.274 64.779 428.736 71.0416 428.736 79.0647ZM425.555 200.491H403.345V110.559H425.555V200.491ZM471.89 201.487H447.87V64.0508H471.89V201.487ZM470.894 65.0469V200.491H448.866V65.0469H470.894ZM563.37 200.491L561.914 186.473C561.647 186.982 561.364 187.479 561.068 187.966C555.307 197.424 544.133 202.858 531.148 202.858C505.115 202.858 488.913 183.743 488.913 155.889C488.913 127.854 505.297 107.828 532.422 107.828C544.282 107.828 554.843 112.534 560.736 120.568C561.084 121.043 561.417 121.53 561.732 122.028V65.0469H583.76V200.491H563.37ZM560.736 118.937C554.495 111.237 544.01 106.832 532.422 106.832C518.597 106.832 507.439 111.944 499.747 120.688C492.069 129.417 487.916 141.683 487.916 155.889C487.916 170.004 492.023 181.999 499.522 190.478C507.032 198.971 517.872 203.854 531.148 203.854C543.907 203.854 555.084 198.705 561.233 189.556L562.472 201.487H584.756V64.0508H560.736V118.937ZM518.534 174.159C522.629 178.753 528.584 181.472 536.063 181.472C543.55 181.472 549.647 178.793 553.878 174.214C558.116 169.628 560.554 163.058 560.554 155.161C560.554 147.264 558.116 140.646 553.875 136.013C549.641 131.389 543.545 128.668 536.063 128.668C528.589 128.668 522.634 131.429 518.537 136.068C514.428 140.721 512.119 147.342 512.119 155.161C512.119 162.979 514.427 169.553 518.534 174.159ZM427.74 79.0647C427.74 86.5287 421.732 92.5363 414.45 92.5363C406.804 92.5363 400.797 86.5287 400.797 79.0647C400.797 71.6007 406.804 65.7751 414.45 65.7751C421.732 65.7751 427.74 71.6007 427.74 79.0647ZM511.122 155.161C511.122 171.181 520.589 182.468 536.063 182.468C551.537 182.468 561.55 171.363 561.55 155.161C561.55 138.959 551.537 127.672 536.063 127.672C520.589 127.672 511.122 139.141 511.122 155.161Z" fill="#1134A6"/>
<path d="M58.6753 181.379C58.9185 179.737 59.0401 178.095 59.0401 176.454C59.0401 168.124 56.1823 160.462 51.3789 154.382C51.2572 154.26 51.1356 154.139 51.0748 154.017V153.896C49.0683 151.524 47.913 148.484 47.913 145.14C47.913 142.282 48.8251 139.607 50.3452 137.418C50.3452 137.418 50.3452 137.418 50.3452 137.357C40.3126 116.258 34.7187 92.6666 34.7187 67.7372C34.7187 43.5374 40.0086 20.5538 49.4939 -0.0585938C27.3007 14.6558 12.7079 39.8284 12.7079 68.4669C12.7079 73.6351 13.1943 78.6818 14.1064 83.6069C9.85013 81.418 5.10749 80.1411 0 80.0803C8.39087 89.14 13.4983 101.301 13.4983 114.617C13.4983 122.399 11.735 129.757 8.57328 136.323C10.7622 137.479 12.2823 139.728 12.2823 142.404C12.2823 144.228 11.5526 145.809 10.4582 147.025C4.68186 153.348 1.09446 161.8 1.09446 171.103C1.09446 185.088 9.18131 197.188 20.9163 203.086C22.9837 220.232 34.5363 234.46 50.1628 240.358C45.6025 233.244 42.988 224.853 42.988 215.794C42.988 212.206 43.4136 208.74 44.204 205.335C51.9261 199.741 57.2768 191.229 58.6753 181.379ZM40.9207 183.203C40.6774 183.811 40.495 184.48 40.2518 185.088C37.2116 193.783 35.57 203.146 35.57 212.875C35.57 215.064 35.6916 217.253 35.874 219.381C28.8208 208.74 24.1389 196.458 22.4972 183.203C22.3756 182.412 22.3148 181.622 22.254 180.771C22.3756 175.602 26.571 171.468 31.7393 171.468C37.0292 171.468 41.2855 175.724 41.2855 181.014C41.1639 181.744 41.1031 182.473 40.9207 183.203Z" fill="url(#paint0_linear_88_53)"/>
<path d="M145.864 207.16V207.1C145.803 206.552 145.803 206.066 145.742 205.519C145.621 204.12 145.499 202.722 145.378 201.384C145.317 200.776 145.256 200.168 145.134 199.56C144.952 198.101 144.709 196.641 144.465 195.182C144.405 194.878 144.344 194.513 144.283 194.209C143.979 192.75 143.675 191.291 143.371 189.892C143.249 189.284 143.067 188.737 142.945 188.129C142.763 187.338 142.52 186.487 142.277 185.697C142.094 184.967 141.912 184.298 141.669 183.629C141.547 183.204 141.365 182.778 141.243 182.353C140.696 180.711 140.148 179.069 139.54 177.488C139.419 177.123 139.297 176.759 139.115 176.455C136.439 169.645 133.034 163.139 128.961 157.119C125.799 150.309 124.036 142.77 124.036 134.744C124.036 128.481 125.13 122.4 127.137 116.807C126.103 118.509 124.279 119.664 122.151 119.664C119.05 119.664 116.496 117.232 116.374 114.131C116.192 112.672 115.949 111.273 115.645 109.875C115.584 109.693 115.584 109.449 115.523 109.267C115.219 107.929 114.915 106.531 114.55 105.254C114.489 105.071 114.429 104.889 114.368 104.646C114.003 103.247 113.577 101.91 113.152 100.572C113.152 100.511 113.152 100.511 113.091 100.45C112.605 98.9911 112.057 97.5927 111.51 96.1942C111.024 94.9781 110.476 93.762 109.868 92.546C109.808 92.4244 109.747 92.2419 109.625 92.1203C108.531 89.8098 107.315 87.6209 105.916 85.432C105.795 85.2496 105.734 85.0672 105.612 84.9455C104.882 83.8511 104.214 82.7566 103.423 81.723L103.362 81.6621C102.633 80.6285 101.842 79.5948 101.052 78.622C100.991 78.5004 100.869 78.4396 100.809 78.318C100.018 77.3451 99.1668 76.3723 98.3156 75.3994C98.194 75.2778 98.1332 75.1562 98.0116 75.0346C97.1603 74.1225 96.309 73.2105 95.4577 72.3592C95.3969 72.2984 95.3362 72.2376 95.3362 72.2376C94.4242 71.3256 93.5121 70.4743 92.6001 69.6839C92.4177 69.5015 92.2352 69.3799 92.0527 69.1974C90.2286 67.6166 88.2829 66.0965 86.3372 64.698C86.094 64.5156 85.8509 64.3332 85.6077 64.2116C84.574 63.4819 83.5404 62.8131 82.5067 62.2051C82.3851 62.1443 82.2635 62.0835 82.1419 61.9618C81.169 61.3538 80.1962 60.8066 79.1625 60.2594C78.9801 60.1378 78.7369 60.0161 78.5545 59.9553C77.46 59.4081 76.3655 58.8609 75.271 58.3136C75.0278 58.192 74.8454 58.1312 74.6022 58.0096C73.5685 57.5232 72.535 57.0976 71.5013 56.672C71.3189 56.6112 71.1973 56.5503 71.0149 56.4895C69.8596 56.0639 68.7042 55.6383 67.549 55.2127C67.3058 55.1519 67.0018 55.0303 66.7586 54.9695C65.5426 54.6046 64.3873 54.2398 63.1104 53.875C77.2776 67.0693 86.094 85.9184 86.094 106.774C86.094 110.787 85.7293 114.678 85.1213 118.509C88.5263 126.17 90.411 134.683 90.411 143.621C90.411 149.762 89.4991 155.721 87.8574 161.375C87.371 163.017 87.0061 164.659 86.7628 166.361C86.702 166.909 86.6413 167.456 86.5805 167.881C86.5805 168.064 86.5197 168.246 86.5197 168.429C86.3981 169.827 86.3372 171.226 86.3372 172.624C86.3372 175.847 86.6413 178.948 87.1886 181.988C87.1278 182.17 87.067 182.353 86.9454 182.535C87.067 182.474 87.1278 182.413 87.2494 182.292C87.4926 183.508 87.7357 184.724 88.0397 185.94C88.891 189.223 90.0462 192.385 91.4447 195.365C93.7552 200.29 96.917 204.85 100.565 208.802C107.132 211.295 112.848 215.49 117.043 220.963C117.043 220.963 117.104 220.963 117.104 221.024C117.226 221.145 117.286 221.328 117.408 221.51C118.624 223.152 119.719 224.854 120.691 226.678C124.583 233.184 127.684 240.116 130.055 247.473C131.514 252.033 132.609 256.776 133.399 261.579C133.46 261.944 133.521 262.309 133.582 262.674C133.764 261.944 133.886 261.154 134.007 260.424C139.662 249.905 143.493 238.231 145.074 225.827C145.256 224.185 145.438 222.544 145.56 220.841C145.621 220.294 145.621 219.747 145.682 219.199C145.742 218.591 145.742 217.983 145.803 217.375C145.864 215.977 145.925 214.578 145.925 213.18C146.046 210.991 145.986 209.045 145.864 207.16ZM136.014 225.645C135.527 228.928 134.919 232.211 134.129 235.373C133.399 231.847 132.426 228.381 131.15 225.097C127.137 214.518 120.387 205.215 111.814 198.101C111.145 197.675 110.598 197.189 109.99 196.702C109.564 196.337 109.2 195.912 108.835 195.486C108.774 195.425 108.774 195.425 108.713 195.365C108.348 194.939 108.044 194.513 107.74 194.088C107.071 193.054 106.524 191.899 106.159 190.683C106.159 190.622 106.099 190.561 106.099 190.5C105.977 190.014 105.855 189.467 105.734 188.98C105.734 188.859 105.673 188.676 105.673 188.555C105.612 187.947 105.551 187.338 105.551 186.73C105.551 179.252 111.632 173.171 119.11 173.171C123.671 173.171 127.745 175.421 130.177 178.887C131.089 181.076 131.879 183.386 132.609 185.636C133.095 187.095 133.521 188.615 133.886 190.135C133.946 190.439 134.068 190.804 134.129 191.108C134.494 192.628 134.859 194.209 135.163 195.79V195.851C135.467 197.493 135.71 199.134 135.953 200.776C135.953 200.958 136.014 201.141 136.014 201.323C136.257 203.026 136.379 204.728 136.5 206.431C136.561 207.464 136.622 208.559 136.683 209.593C136.743 210.687 136.743 211.781 136.743 212.876C136.926 217.254 136.561 221.51 136.014 225.645Z" fill="url(#paint1_linear_88_53)"/>
<path fill-rule="evenodd" clip-rule="evenodd" d="M209.588 156.571C209.588 150.248 207.581 144.411 204.298 139.546C198.583 135.169 194.873 128.298 194.873 120.515C194.873 117.171 195.542 114.009 196.758 111.151C186.787 108.537 179.429 99.4769 179.429 88.7147C179.429 88.5323 179.429 88.4107 179.429 88.2283C177.362 87.8635 175.66 86.5258 174.808 84.7017C161.736 62.7516 141.792 45.3619 117.957 35.5117C131.942 52.5975 142.096 72.9058 147.143 95.2207C147.994 98.8689 148.663 102.578 149.21 106.287C154.5 111.698 157.723 119.116 157.723 127.264C157.723 129.818 157.358 132.25 156.811 134.621C162.04 140.033 165.323 147.451 165.323 155.598C165.323 159.551 164.533 163.32 163.195 166.786C166.722 169.279 170.066 171.955 173.288 174.873C174.2 175.846 175.112 176.758 176.146 177.609C179.065 180.528 181.862 183.629 184.355 186.912C192.32 197.188 198.339 209.166 201.683 222.178C206.244 210.93 208.797 198.586 208.797 185.696C208.797 179.798 208.25 174.022 207.217 168.367C208.737 164.719 209.588 160.767 209.588 156.571ZM199.677 195.303C196.15 184.298 189.34 174.387 179.794 167.09C179.673 167.029 179.612 166.908 179.49 166.847C177.301 165.266 175.903 162.773 175.903 159.855C175.903 155.112 179.794 151.221 184.537 151.221C187.334 151.221 189.766 152.558 191.347 154.626C191.59 154.99 191.773 155.294 192.016 155.598C199.191 167.394 202.048 181.501 199.677 195.303Z" fill="url(#paint2_linear_88_53)"/>
</g>
<defs>
<linearGradient id="paint0_linear_88_53" x1="53.0159" y1="240.358" x2="-89.9667" y2="191.013" gradientUnits="userSpaceOnUse">
<stop stop-color="#00C37A"/>
<stop offset="1" stop-color="#27D84A"/>
</linearGradient>
<linearGradient id="paint1_linear_88_53" x1="137.534" y1="262.674" x2="-33.7821" y2="167.109" gradientUnits="userSpaceOnUse">
<stop stop-color="#00C37A"/>
<stop offset="1" stop-color="#27D84A"/>
</linearGradient>
<linearGradient id="paint2_linear_88_53" x1="200.238" y1="222.178" x2="31.9729" y2="106.102" gradientUnits="userSpaceOnUse">
<stop stop-color="#00C37A"/>
<stop offset="1" stop-color="#27D84A"/>
</linearGradient>
</defs>
</svg>
