<svg fill="none" viewBox="0 0 777 263" xmlns="http://www.w3.org/2000/svg" xmlns:xlink="http://www.w3.org/1999/xlink"><linearGradient id="a"><stop offset="0" stop-color="#00c37a"/><stop offset="1" stop-color="#27d84a"/></linearGradient><linearGradient id="b" gradientUnits="userSpaceOnUse" x1="53.7171" x2="-89.2655" xlink:href="#a" y1="240.358" y2="191.013"/><linearGradient id="c" gradientUnits="userSpaceOnUse" x1="138.235" x2="-33.0809" xlink:href="#a" y1="262.674" y2="167.109"/><linearGradient id="d" gradientUnits="userSpaceOnUse" x1="200.939" x2="32.6741" xlink:href="#a" y1="222.178" y2="106.102"/><clipPath id="e"><path d="m.701172 0h776v263h-776z"/></clipPath><g clip-path="url(#e)"><g fill="#fff"><path d="m623.088 202.494c5.461 0 10.013-4.551 10.013-9.831 0-5.461-4.552-10.013-10.013-10.013-5.462 0-10.013 4.552-10.013 10.013 0 5.28 4.551 9.831 10.013 9.831z"/><path d="m663.867 86.3468c4.005 0 7.646-3.459 7.646-7.464 0-4.1871-3.641-7.8281-7.646-7.8281-4.187 0-7.646 3.641-7.646 7.8281 0 4.005 3.459 7.464 7.646 7.464zm-4.187 114.1442h8.374v-87.383h-8.374z"/><path d="m689.216 156.8c0 26.397 18.386 45.876 43.327 45.876s43.328-19.479 43.328-45.876-18.387-45.877-43.328-45.877-43.327 19.48-43.327 45.877zm8.556 0c0-22.392 14.382-38.231 34.771-38.231 20.39 0 34.771 15.839 34.771 38.231s-14.381 38.23-34.771 38.23c-20.389 0-34.771-15.838-34.771-38.23z"/><path d="m278.82 200.491h21.664l12.379-38.594c4.551-14.746 6.19-21.118 7.1-25.305.728 4.551 2.731 13.107 6.372 24.941l12.379 38.958h20.754l31.13-89.932h-23.484l-12.015 38.594c-1.639 5.644-4.552 16.385-6.008 23.12-1.092-6.007-4.733-19.479-5.826-23.12l-12.015-38.594h-22.574l-12.379 38.594c-2.913 8.921-4.551 14.564-6.19 23.303-1.638-8.375-3.459-16.203-5.461-23.303l-11.833-38.594h-23.121z"/><path d="m415.152 92.5362c7.282 0 13.289-6.0076 13.289-13.4716s-6.007-13.2895-13.289-13.2895c-7.646 0-13.654 5.8255-13.654 13.2895s6.008 13.4716 13.654 13.4716zm-11.105 107.9548h22.21v-89.932h-22.21z"/><path d="m471.595 200.491v-135.4441h-22.027v135.4441z"/><path d="m531.849 202.858c13.654 0 25.305-6.008 30.766-16.385l1.457 14.018h20.389v-135.4441h-22.028v56.9811c-5.643-8.92-16.748-14.2-29.309-14.2-27.126 0-43.51 20.026-43.51 48.061 0 27.854 16.202 46.969 42.235 46.969zm4.916-20.39c-15.475 0-24.941-11.287-24.941-27.307s9.466-27.489 24.941-27.489c15.474 0 25.486 11.287 25.486 27.489s-10.012 27.307-25.486 27.307z"/><path clip-rule="evenodd" d="m278.095 201.487-29.773-91.924h25.227l12.052 39.309.003.011c1.62 5.743 3.12 11.955 4.5 18.541 1.367-6.295 2.896-11.383 5.245-18.577 0-.001 0-.002 0-.003l12.6-39.281h24.034l12.236 39.304c.874 2.914 3.378 12.111 4.914 18.789 1.551-6.415 3.692-14.245 5.008-18.78l.003-.01 12.236-39.303h25.617l-31.82 91.924h-22.192l-12.603-39.661c-2.665-8.662-4.459-15.589-5.521-20.493-1.086 4.263-2.851 10.505-6.046 20.858l-.003.01-12.602 39.286zm41.3-62.415c.22-.919.406-1.734.568-2.48.117.731.267 1.566.451 2.501.963 4.885 2.865 12.508 5.92 22.44l12.38 38.958h20.753l31.131-89.932h-23.485l-12.015 38.594c-1.455 5.014-3.917 14.052-5.469 20.729-.195.839-.376 1.64-.538 2.392-.129-.707-.292-1.516-.483-2.4-1.431-6.639-4.379-17.508-5.343-20.721l-12.015-38.594h-22.574l-12.38 38.594c-2.616 8.012-4.204 13.38-5.687 20.722-.168.832-.335 1.69-.502 2.581-.17-.866-.341-1.727-.514-2.581-1.503-7.405-3.152-14.356-4.948-20.722l-11.833-38.594h-23.12l29.128 89.932h21.664l12.379-38.594c3.741-12.12 5.514-18.583 6.532-22.825zm83.655 62.415v-91.924h24.203v91.924zm26.387-122.4223c0 8.0053-6.445 14.4677-14.286 14.4677-8.187 0-14.649-6.4448-14.649-14.4677 0-8.0404 6.48-14.2857 14.649-14.2857 7.824 0 14.286 6.2626 14.286 14.2857zm-3.181 121.4263h-22.21v-89.932h22.21zm46.335.996h-24.02v-137.4362h24.02zm-.996-136.4401v135.4441h-22.028v-135.4441zm92.476 135.4441-1.456-14.018c-.267.509-.55 1.006-.846 1.493-5.761 9.458-16.935 14.892-29.92 14.892-26.033 0-42.235-19.115-42.235-46.969 0-28.035 16.384-48.061 43.509-48.061 11.86 0 22.421 4.706 28.314 12.74.348.475.681.962.996 1.46v-56.9811h22.028v135.4441zm-2.634-81.554c-6.241-7.7-16.726-12.105-28.314-12.105-13.825 0-24.983 5.112-32.675 13.856-7.678 8.729-11.831 20.995-11.831 35.201 0 14.115 4.107 26.11 11.606 34.589 7.51 8.493 18.35 13.376 31.626 13.376 12.759 0 23.936-5.149 30.085-14.298l1.239 11.931h22.284v-137.4362h-24.02zm-42.202 55.222c4.095 4.594 10.05 7.313 17.529 7.313 7.487 0 13.584-2.679 17.815-7.258 4.238-4.586 6.676-11.156 6.676-19.053s-2.438-14.515-6.679-19.148c-4.234-4.624-10.33-7.345-17.812-7.345-7.474 0-13.429 2.761-17.526 7.4-4.109 4.653-6.418 11.274-6.418 19.093 0 7.818 2.308 14.392 6.415 18.998zm-90.794-95.0943c0 7.464-6.008 13.4716-13.29 13.4716-7.646 0-13.653-6.0076-13.653-13.4716s6.007-13.2896 13.653-13.2896c7.282 0 13.29 5.8256 13.29 13.2896zm83.382 76.0963c0 16.02 9.467 27.307 24.941 27.307s25.487-11.105 25.487-27.307-10.013-27.489-25.487-27.489-24.941 11.469-24.941 27.489z" fill-rule="evenodd"/></g><path d="m59.3765 181.379c.2432-1.642.3648-3.284.3648-4.925 0-8.33-2.8578-15.992-7.6612-22.072-.1217-.122-.2433-.243-.3041-.365v-.121c-2.0065-2.372-3.1618-5.412-3.1618-8.756 0-2.858.9121-5.533 2.4322-7.722 0 0 0 0 0-.061-10.0326-21.099-15.6265-44.6904-15.6265-69.6198 0-24.1998 5.2899-47.1834 14.7752-67.7957938-22.1932 14.7143938-36.786 39.8869938-36.786 68.5254938 0 5.1682.4864 10.2149 1.3985 15.14-4.2563-2.1889-8.99894-3.4658-14.106428-3.5266 8.390868 9.0597 13.498328 21.2207 13.498328 34.5367 0 7.782-1.7633 15.14-4.92505 21.706 2.18895 1.156 3.70905 3.405 3.70905 6.081 0 1.824-.7297 3.405-1.8241 4.621-5.77637 6.323-9.36377 14.775-9.36377 24.078 0 13.985 8.08685 26.085 19.82187 31.983 2.0674 17.146 13.62 31.374 29.2465 37.272-4.5603-7.114-7.1748-15.505-7.1748-24.564 0-3.588.4256-7.054 1.216-10.459 7.7221-5.594 13.0728-14.106 14.4713-23.956zm-17.7546 1.824c-.2433.608-.4257 1.277-.6689 1.885-3.0402 8.695-4.6818 18.058-4.6818 27.787 0 2.189.1216 4.378.304 6.506-7.0532-10.641-11.7351-22.923-13.3768-36.178-.1216-.791-.1824-1.581-.2432-2.432.1216-5.169 4.317-9.303 9.4853-9.303 5.2899 0 9.5462 4.256 9.5462 9.546-.1216.73-.1824 1.459-.3648 2.189z" fill="url(#b)"/><path d="m146.565 207.16v-.06c-.061-.548-.061-1.034-.122-1.581-.121-1.399-.243-2.797-.364-4.135-.061-.608-.122-1.216-.244-1.824-.182-1.459-.425-2.919-.669-4.378-.06-.304-.121-.669-.182-.973-.304-1.459-.608-2.918-.912-4.317-.122-.608-.304-1.155-.426-1.763-.182-.791-.425-1.642-.668-2.432-.183-.73-.365-1.399-.608-2.068-.122-.425-.304-.851-.426-1.276-.547-1.642-1.095-3.284-1.703-4.865-.121-.365-.243-.729-.425-1.033-2.676-6.81-6.081-13.316-10.154-19.336-3.162-6.81-4.925-14.349-4.925-22.375 0-6.263 1.094-12.344 3.101-17.937-1.034 1.702-2.858 2.857-4.986 2.857-3.101 0-5.655-2.432-5.777-5.533-.182-1.459-.425-2.858-.729-4.256-.061-.182-.061-.426-.122-.608-.304-1.338-.608-2.736-.973-4.013-.061-.183-.121-.365-.182-.608-.365-1.399-.791-2.736-1.216-4.074 0-.061 0-.061-.061-.122-.486-1.4589-1.034-2.8573-1.581-4.2558-.486-1.2161-1.034-2.4322-1.642-3.6482-.06-.1216-.121-.3041-.243-.4257-1.094-2.3105-2.31-4.4994-3.709-6.6883-.121-.1824-.182-.3648-.304-.4865-.73-1.0944-1.398-2.1889-2.189-3.2225l-.061-.0609c-.729-1.0336-1.52-2.0673-2.31-3.0401-.061-.1216-.183-.1824-.243-.304-.791-.9729-1.6421-1.9457-2.4933-2.9186-.1216-.1216-.1824-.2432-.304-.3648-.8513-.9121-1.7025-1.8241-2.5538-2.6754-.0608-.0608-.1216-.1216-.1216-.1216-.912-.912-1.8241-1.7633-2.7361-2.5537-.1824-.1824-.3648-.304-.5473-.4865-1.8241-1.5808-3.7698-3.1009-5.7155-4.4994-.2432-.1824-.4864-.3648-.7296-.4864-1.0337-.7297-2.0673-1.3985-3.101-2.0065-.1216-.0608-.2432-.1216-.3648-.2433-.9729-.608-1.9457-1.1552-2.9794-1.7024-.1824-.1216-.4256-.2433-.608-.3041-1.0945-.5472-2.1889-1.0944-3.2834-1.6417-.2432-.1216-.4256-.1824-.6688-.304-1.0337-.4864-2.0673-.912-3.101-1.3376-.1824-.0608-.304-.1217-.4864-.1825-1.1553-.4256-2.3106-.8512-3.4658-1.2768-.2432-.0608-.5473-.1824-.7905-.2432-1.216-.3649-2.3713-.7297-3.6482-1.0945 14.1672 13.1943 22.9837 32.0434 22.9837 52.899 0 4.013-.3648 7.904-.9728 11.735 3.405 7.661 5.2898 16.174 5.2898 25.112 0 6.141-.912 12.1-2.5537 17.754-.4864 1.642-.8512 3.284-1.0945 4.986-.0608.548-.1216 1.095-.1824 1.52 0 .183-.0608.365-.0608.548-.1216 1.398-.1824 2.797-.1824 4.195 0 3.223.304 6.324.8513 9.364-.0608.182-.1216.365-.2432.547.1216-.061.1824-.122.304-.243.2432 1.216.4864 2.432.7904 3.648.8513 3.283 2.0065 6.445 3.405 9.425 2.3105 4.925 5.4723 9.485 9.1201 13.437 6.567 2.493 12.283 6.688 16.478 12.161 0 0 .061 0 .061.061.122.121.182.304.304.486 1.216 1.642 2.311 3.344 3.283 5.168 3.892 6.506 6.993 13.438 9.364 20.795 1.459 4.56 2.554 9.303 3.344 14.106.061.365.122.73.183 1.095.182-.73.304-1.52.425-2.25 5.655-10.519 9.486-22.193 11.067-34.597.182-1.642.364-3.283.486-4.986.061-.547.061-1.094.122-1.642.06-.608.06-1.216.121-1.824.061-1.398.122-2.797.122-4.195.121-2.189.061-4.135-.061-6.02zm-9.85 18.485c-.487 3.283-1.095 6.566-1.885 9.728-.73-3.526-1.703-6.992-2.979-10.276-4.013-10.579-10.763-19.882-19.336-26.996-.669-.426-1.216-.912-1.824-1.399-.426-.365-.79-.79-1.155-1.216-.061-.061-.061-.061-.122-.121-.365-.426-.669-.852-.973-1.277-.669-1.034-1.216-2.189-1.581-3.405 0-.061-.06-.122-.06-.183-.122-.486-.244-1.033-.365-1.52 0-.121-.061-.304-.061-.425-.061-.608-.122-1.217-.122-1.825 0-7.478 6.081-13.559 13.559-13.559 4.561 0 8.635 2.25 11.067 5.716.912 2.189 1.702 4.499 2.432 6.749.486 1.459.912 2.979 1.277 4.499.06.304.182.669.243.973.365 1.52.73 3.101 1.034 4.682v.061c.304 1.642.547 3.283.79 4.925 0 .182.061.365.061.547.243 1.703.365 3.405.486 5.108.061 1.033.122 2.128.183 3.162.06 1.094.06 2.188.06 3.283.183 4.378-.182 8.634-.729 12.769z" fill="url(#c)"/><path clip-rule="evenodd" d="m210.289 156.571c0-6.323-2.007-12.16-5.29-17.025-5.715-4.377-9.425-11.248-9.425-19.031 0-3.344.669-6.506 1.885-9.364-9.971-2.614-17.329-11.6741-17.329-22.4363 0-.1824 0-.304 0-.4864-2.067-.3648-3.769-1.7025-4.621-3.5266-13.072-21.9501-33.016-39.3398-56.851-49.19 13.985 17.0858 24.139 37.3941 29.186 59.709.851 3.6482 1.52 7.3573 2.067 11.0663 5.29 5.411 8.513 12.829 8.513 20.977 0 2.554-.365 4.986-.912 7.357 5.229 5.412 8.512 12.83 8.512 20.977 0 3.953-.79 7.722-2.128 11.188 3.527 2.493 6.871 5.169 10.093 8.087.912.973 1.824 1.885 2.858 2.736 2.919 2.919 5.716 6.02 8.209 9.303 7.965 10.276 13.984 22.254 17.328 35.266 4.561-11.248 7.114-23.592 7.114-36.482 0-5.898-.547-11.674-1.58-17.329 1.52-3.648 2.371-7.6 2.371-11.796zm-9.911 38.732c-3.527-11.005-10.337-20.916-19.883-28.213-.121-.061-.182-.182-.304-.243-2.189-1.581-3.587-4.074-3.587-6.992 0-4.743 3.891-8.634 8.634-8.634 2.797 0 5.229 1.337 6.81 3.405.243.364.426.668.669.972 7.175 11.796 10.032 25.903 7.661 39.705z" fill="url(#d)" fill-rule="evenodd"/></g></svg>