<svg width="147" height="43" viewBox="0 0 147 43" fill="none" xmlns="http://www.w3.org/2000/svg">
<g clip-path="url(#clip0_5_2)">
<path d="M0.8 29.768H5.008C5.792 29.768 6.448 30.04 7.008 30.584C7.552 31.144 7.824 31.8 7.824 32.568V33.624C7.808 34.28 7.6 34.872 7.2 35.384C7.6 35.896 7.808 36.488 7.824 37.144V38.184C7.824 38.968 7.552 39.624 7.008 40.168C6.448 40.728 5.792 41 5.008 41H0.8V29.768ZM2.912 31.864V34.328H5.008C5.216 34.328 5.376 34.264 5.52 34.12C5.648 33.976 5.712 33.816 5.712 33.624V32.568C5.712 32.376 5.648 32.216 5.52 32.072C5.376 31.928 5.216 31.864 5.008 31.864H2.912ZM2.912 36.44V38.888H5.008C5.216 38.888 5.376 38.824 5.52 38.68C5.648 38.552 5.712 38.392 5.712 38.184V37.144C5.712 36.936 5.648 36.776 5.52 36.632C5.376 36.504 5.216 36.44 5.008 36.44H2.912ZM9.425 29.768H15.745V31.864H11.537V34.328H15.745V36.44H11.537V38.888H15.745V41H9.425V29.768ZM20.8509 29.768H21.5549C22.3389 29.768 22.9949 30.04 23.5549 30.584C24.0989 31.144 24.3709 31.8 24.3709 32.568V33.272H22.2589V32.568C22.2589 32.376 22.1949 32.216 22.0669 32.072C21.9229 31.928 21.7629 31.864 21.5549 31.864H20.8509C20.4669 31.864 20.1469 32.008 19.8749 32.28C19.6029 32.552 19.4589 32.888 19.4589 33.272V33.624C19.4589 33.816 19.5229 33.976 19.6669 34.12C19.7949 34.264 19.9549 34.328 20.1629 34.328H21.5549C22.3389 34.328 22.9949 34.6 23.5549 35.144C24.0989 35.704 24.3709 36.36 24.3709 37.144V37.496C24.3709 38.456 24.0349 39.272 23.3469 39.96C22.6589 40.648 21.8269 41 20.8509 41H20.1629C19.3789 41 18.7229 40.728 18.1789 40.168C17.6189 39.624 17.3469 38.968 17.3469 38.184V37.496H19.4589V38.184C19.4589 38.392 19.5229 38.552 19.6669 38.68C19.7949 38.824 19.9549 38.888 20.1629 38.888H20.8509C21.2509 38.888 21.5869 38.744 21.8589 38.472C22.1309 38.2 22.2589 37.88 22.2589 37.496V37.144C22.2589 36.936 22.1949 36.776 22.0669 36.632C21.9229 36.504 21.7629 36.44 21.5549 36.44H20.1629C19.3789 36.44 18.7229 36.168 18.1789 35.608C17.6189 35.064 17.3469 34.408 17.3469 33.624V33.272C17.3469 32.296 17.6989 31.48 18.3869 30.792C19.0749 30.104 19.8909 29.768 20.8509 29.768ZM25.9719 29.768H32.9959V31.864H30.5319V41H28.4359V31.864H25.9719V29.768ZM38.4875 29.768H40.5995V36.92C40.5995 37.32 40.6795 37.656 40.8235 37.96C41.0155 38.36 41.3995 38.616 41.9915 38.76C42.4875 38.648 42.8555 38.44 43.0795 38.136C43.2875 37.8 43.3995 37.4 43.3995 36.92V29.768H45.5115V36.92C45.5115 37.32 45.5915 37.656 45.7355 37.96C45.9275 38.36 46.3275 38.616 46.9195 38.76C47.4155 38.648 47.7835 38.44 47.9915 38.136C48.1995 37.8 48.3115 37.4 48.3115 36.92V29.768H50.4235V36.92C50.4235 37.256 50.3915 37.592 50.3435 37.928C50.2795 38.264 50.1675 38.568 50.0235 38.84C49.7195 39.368 49.3035 39.816 48.8075 40.168C48.2795 40.536 47.6395 40.824 46.9195 41C46.1195 40.808 45.4475 40.488 44.8875 40.056C44.7435 39.944 44.5995 39.816 44.4555 39.688C44.2795 39.864 44.1035 40.024 43.8955 40.168C43.3675 40.536 42.7275 40.824 41.9915 41C41.2075 40.808 40.5195 40.488 39.9595 40.056C39.5275 39.72 39.1755 39.32 38.8875 38.84C38.7435 38.568 38.6315 38.264 38.5835 37.928C38.5195 37.592 38.4875 37.256 38.4875 36.92V29.768ZM52.0188 29.768H58.3388V31.864H54.1308V34.328H58.3388V36.44H54.1308V38.888H58.3388V41H52.0188V29.768ZM59.9406 29.768H64.1486C64.9326 29.768 65.5886 30.04 66.1486 30.584C66.6926 31.144 66.9646 31.8 66.9646 32.568V33.624C66.9486 34.28 66.7406 34.872 66.3406 35.384C66.7406 35.896 66.9486 36.488 66.9646 37.144V38.184C66.9646 38.968 66.6926 39.624 66.1486 40.168C65.5886 40.728 64.9326 41 64.1486 41H59.9406V29.768ZM62.0526 31.864V34.328H64.1486C64.3566 34.328 64.5166 34.264 64.6606 34.12C64.7886 33.976 64.8526 33.816 64.8526 33.624V32.568C64.8526 32.376 64.7886 32.216 64.6606 32.072C64.5166 31.928 64.3566 31.864 64.1486 31.864H62.0526ZM62.0526 36.44V38.888H64.1486C64.3566 38.888 64.5166 38.824 64.6606 38.68C64.7886 38.552 64.8526 38.392 64.8526 38.184V37.144C64.8526 36.936 64.7886 36.776 64.6606 36.632C64.5166 36.504 64.3566 36.44 64.1486 36.44H62.0526ZM72.0696 29.768H72.7736C73.5576 29.768 74.2136 30.04 74.7736 30.584C75.3176 31.144 75.5896 31.8 75.5896 32.568V33.272H73.4776V32.568C73.4776 32.376 73.4136 32.216 73.2856 32.072C73.1416 31.928 72.9816 31.864 72.7736 31.864H72.0696C71.6856 31.864 71.3656 32.008 71.0936 32.28C70.8216 32.552 70.6776 32.888 70.6776 33.272V33.624C70.6776 33.816 70.7416 33.976 70.8856 34.12C71.0136 34.264 71.1736 34.328 71.3816 34.328H72.7736C73.5576 34.328 74.2136 34.6 74.7736 35.144C75.3176 35.704 75.5896 36.36 75.5896 37.144V37.496C75.5896 38.456 75.2536 39.272 74.5656 39.96C73.8776 40.648 73.0456 41 72.0696 41H71.3816C70.5976 41 69.9416 40.728 69.3976 40.168C68.8376 39.624 68.5656 38.968 68.5656 38.184V37.496H70.6776V38.184C70.6776 38.392 70.7416 38.552 70.8856 38.68C71.0136 38.824 71.1736 38.888 71.3816 38.888H72.0696C72.4696 38.888 72.8056 38.744 73.0776 38.472C73.3496 38.2 73.4776 37.88 73.4776 37.496V37.144C73.4776 36.936 73.4136 36.776 73.2856 36.632C73.1416 36.504 72.9816 36.44 72.7736 36.44H71.3816C70.5976 36.44 69.9416 36.168 69.3976 35.608C68.8376 35.064 68.5656 34.408 68.5656 33.624V33.272C68.5656 32.296 68.9176 31.48 69.6056 30.792C70.2936 30.104 71.1096 29.768 72.0696 29.768ZM77.1906 41V29.768H79.3026V41H77.1906ZM80.9094 29.768H87.9334V31.864H85.4694V41H83.3734V31.864H80.9094V29.768ZM89.5344 29.768H95.8544V31.864H91.6464V34.328H95.8544V36.44H91.6464V38.888H95.8544V41H89.5344V29.768ZM104.851 29.768H105.555C106.339 29.768 106.995 30.04 107.555 30.584C108.099 31.144 108.371 31.8 108.371 32.568V33.272H106.259V32.568C106.259 32.376 106.195 32.216 106.067 32.072C105.923 31.928 105.763 31.864 105.555 31.864H104.851C104.467 31.864 104.147 32.008 103.875 32.28C103.603 32.552 103.459 32.888 103.459 33.272V37.496C103.459 37.88 103.603 38.2 103.875 38.472C104.147 38.744 104.467 38.888 104.851 38.888H105.555C105.763 38.888 105.923 38.824 106.067 38.68C106.195 38.552 106.259 38.392 106.259 38.184V37.496H108.371V38.184C108.371 38.968 108.099 39.624 107.555 40.168C106.995 40.728 106.339 41 105.555 41H104.851C103.891 41 103.075 40.648 102.387 39.96C101.699 39.272 101.347 38.456 101.347 37.496V33.272C101.347 32.296 101.699 31.48 102.387 30.792C103.075 30.104 103.891 29.768 104.851 29.768ZM109.972 29.768H112.084V34.328H114.884V29.768H116.996V41H114.884V36.44H112.084V41H109.972V29.768ZM118.597 33.272C118.597 32.296 118.949 31.48 119.637 30.792C120.325 30.104 121.141 29.768 122.101 29.768C123.077 29.768 123.909 30.104 124.597 30.792C125.285 31.48 125.621 32.296 125.621 33.272V37.496C125.621 38.456 125.285 39.272 124.597 39.96C123.909 40.648 123.077 41 122.101 41C121.141 41 120.325 40.648 119.637 39.96C118.949 39.272 118.597 38.456 118.597 37.496V33.272ZM123.509 33.272C123.509 32.888 123.381 32.552 123.109 32.28C122.837 32.008 122.501 31.864 122.101 31.864C121.717 31.864 121.397 32.008 121.125 32.28C120.853 32.552 120.709 32.888 120.709 33.272V37.496C120.709 37.88 120.853 38.2 121.125 38.472C121.397 38.744 121.717 38.888 122.101 38.888C122.501 38.888 122.837 38.744 123.109 38.472C123.381 38.2 123.509 37.88 123.509 37.496V33.272ZM127.222 41V29.768H129.334V41H127.222ZM134.445 29.768H135.149C135.933 29.768 136.589 30.04 137.149 30.584C137.693 31.144 137.965 31.8 137.965 32.568V33.272H135.853V32.568C135.853 32.376 135.789 32.216 135.661 32.072C135.517 31.928 135.357 31.864 135.149 31.864H134.445C134.061 31.864 133.741 32.008 133.469 32.28C133.197 32.552 133.053 32.888 133.053 33.272V37.496C133.053 37.88 133.197 38.2 133.469 38.472C133.741 38.744 134.061 38.888 134.445 38.888H135.149C135.357 38.888 135.517 38.824 135.661 38.68C135.789 38.552 135.853 38.392 135.853 38.184V37.496H137.965V38.184C137.965 38.968 137.693 39.624 137.149 40.168C136.589 40.728 135.933 41 135.149 41H134.445C133.485 41 132.669 40.648 131.981 39.96C131.293 39.272 130.941 38.456 130.941 37.496V33.272C130.941 32.296 131.293 31.48 131.981 30.792C132.669 30.104 133.485 29.768 134.445 29.768ZM139.566 29.768H145.886V31.864H141.678V34.328H145.886V36.44H141.678V38.888H145.886V41H139.566V29.768Z" fill="#1134A6"/>
<path d="M23.522 8.52709C24.2956 8.69677 24.887 9.00665 25.296 9.45674C25.7068 9.89901 25.824 10.5226 25.6474 11.3275C25.5823 11.6244 25.4528 11.8786 25.2591 12.09C25.0748 12.2952 24.8544 12.4599 24.5979 12.5838C24.9162 12.8502 25.1536 13.1684 25.3099 13.5385C25.4741 13.9103 25.5022 14.3423 25.3942 14.8346C25.2331 15.5692 24.8492 16.087 24.2427 16.388C23.6439 16.6907 22.9186 16.7487 22.0669 16.5619L18.7966 15.8446L20.5448 7.8741L23.522 8.52709ZM23.0217 9.74416L21.7792 9.47165L21.3447 11.4526L22.47 11.6994C22.892 11.7919 23.2373 11.7858 23.506 11.6809C23.7842 11.5699 23.9611 11.3425 24.0365 10.9987C24.1187 10.6236 24.0659 10.3417 23.8779 10.1531C23.69 9.96445 23.4046 9.82814 23.0217 9.74416ZM22.8213 13.0664L21.0748 12.6833L20.5838 14.9221L22.2248 15.282C22.6311 15.3711 22.976 15.3485 23.2593 15.2141C23.5505 15.0814 23.7338 14.8431 23.8092 14.4993C23.8915 14.1242 23.8408 13.8141 23.657 13.5691C23.4749 13.3162 23.1964 13.1486 22.8213 13.0664Z" fill="#F68500"/>
<path d="M28.0295 15.9649C28.2732 16.0108 28.4582 16.1311 28.5843 16.3258C28.7183 16.5219 28.7624 16.7419 28.7165 16.9856C28.6706 17.2293 28.5496 17.4182 28.3534 17.5522C28.1651 17.6877 27.9491 17.7325 27.7054 17.6866C27.4616 17.6408 27.2688 17.519 27.127 17.3213C26.9929 17.1251 26.9489 16.9052 26.9948 16.6615C27.0406 16.4178 27.1617 16.2289 27.3579 16.0949C27.5619 15.9623 27.7858 15.919 28.0295 15.9649Z" fill="#F68500"/>
<path d="M40.3272 19.7547L39.2832 13.7003L36.5773 19.1912L35.2126 18.9861L33.5687 10.7059L35.1198 10.7206L36.2426 16.896L38.9409 11.2947L40.3768 11.5105L41.4302 17.6633L44.1979 12.0847L45.7524 12.3183L41.7037 19.9615L40.3272 19.7547Z" fill="#F68500"/>
<path d="M45.9664 18.6618C46.2129 18.6896 46.4062 18.7959 46.5463 18.9808C46.6945 19.1666 46.7547 19.3827 46.7269 19.6291C46.6991 19.8755 46.5923 20.0728 46.4066 20.2209C46.2288 20.37 46.0167 20.4306 45.7702 20.4028C45.5238 20.3751 45.3225 20.2678 45.1664 20.0812C45.0183 19.8954 44.9581 19.6793 44.9859 19.4329C45.0137 19.1865 45.1204 18.9892 45.3062 18.841C45.4999 18.6938 45.72 18.6341 45.9664 18.6618Z" fill="#F68500"/>
<path d="M56.9864 14.7333C56.6441 14.6007 56.3637 14.4973 56.145 14.4231C55.9271 14.3408 55.6427 14.2853 55.2919 14.2563C54.6461 14.203 54.126 14.4249 53.7318 14.9222C53.3375 15.4194 53.1025 16.1265 53.0268 17.0433C52.9617 17.8327 53.0529 18.5265 53.3005 19.1249C53.5481 19.7233 54.0187 20.0512 54.7123 20.1084C55.0551 20.1367 55.377 20.1272 55.6779 20.0798C55.9868 20.0331 56.2691 19.9681 56.5249 19.8848L57.0161 21.0813C56.692 21.2151 56.3067 21.3117 55.8603 21.3712C55.4139 21.4307 55.0232 21.4466 54.6884 21.4189C53.4207 21.3142 52.5334 20.8316 52.0265 19.971C51.5196 19.1103 51.3146 18.094 51.4113 16.922C51.5147 15.6702 51.9142 14.6717 52.6099 13.9265C53.3136 13.1818 54.2594 12.8586 55.4473 12.9567C55.6865 12.9764 56.0141 13.0436 56.4301 13.1582C56.8461 13.2728 57.2216 13.4403 57.5566 13.6606L56.9864 14.7333Z" fill="#F68500"/>
<path d="M60.5681 19.8689C60.8158 19.882 61.0151 19.9766 61.166 20.1528C61.325 20.3293 61.3979 20.5415 61.3849 20.7891C61.3719 21.0368 61.2771 21.2401 61.1005 21.399C60.9319 21.5584 60.7237 21.6316 60.4761 21.6185C60.2284 21.6055 60.0211 21.5105 59.8542 21.3335C59.6953 21.1569 59.6223 20.9447 59.6353 20.6971C59.6484 20.4494 59.7432 20.2461 59.9198 20.0872C60.1043 19.9287 60.3205 19.8559 60.5681 19.8689Z" fill="#F68500"/>
<path d="M76.8049 15.2773C76.4529 15.1733 76.1649 15.0933 75.9409 15.0373C75.7169 14.9733 75.4289 14.9413 75.0769 14.9413C74.4289 14.9413 73.9289 15.2053 73.5769 15.7333C73.2249 16.2613 73.0489 16.9853 73.0489 17.9053C73.0489 18.6973 73.1969 19.3813 73.4929 19.9573C73.7889 20.5333 74.2849 20.8213 74.9809 20.8213C75.3249 20.8213 75.6449 20.7853 75.9409 20.7133C76.2449 20.6413 76.5209 20.5533 76.7689 20.4493L77.3569 21.6013C77.0449 21.7613 76.6689 21.8893 76.2289 21.9853C75.7889 22.0813 75.4009 22.1293 75.0649 22.1293C73.7929 22.1293 72.8689 21.7213 72.2929 20.9053C71.7169 20.0893 71.4289 19.0933 71.4289 17.9173C71.4289 16.6613 71.7449 15.6333 72.3769 14.8333C73.0169 14.0333 73.9329 13.6333 75.1249 13.6333C75.3649 13.6333 75.6969 13.6733 76.1209 13.7533C76.5449 13.8333 76.9329 13.9693 77.2849 14.1613L76.8049 15.2773Z" fill="#F68500"/>
<path d="M83.3157 21.9113C82.396 21.9373 81.6662 21.6841 81.1261 21.1517C80.5941 20.6189 80.3108 19.8849 80.2763 18.9495C80.242 18.0222 80.4825 17.2728 80.9977 16.7014C81.521 16.1297 82.2503 15.8265 83.1857 15.792C84.153 15.7562 84.9111 16.0164 85.46 16.5725C86.0166 17.1203 86.3121 17.8579 86.3463 18.7853C86.3806 19.7127 86.1198 20.4548 85.564 21.0117C85.0082 21.5686 84.2588 21.8685 83.3157 21.9113ZM84.7394 18.8447C84.719 18.293 84.5792 17.8659 84.3198 17.5633C84.0682 17.2524 83.7185 17.1052 83.2708 17.1217C82.8151 17.1386 82.4645 17.2916 82.219 17.5809C81.9736 17.8701 81.8615 18.3026 81.8827 18.8782C81.904 19.4538 82.028 19.8855 82.2548 20.1733C82.4896 20.4608 82.8348 20.5962 83.2905 20.5794C83.7382 20.5628 84.0971 20.4175 84.3671 20.1433C84.6369 19.8611 84.761 19.4283 84.7394 18.8447Z" fill="#F68500"/>
<path d="M94.3615 15.9329C94.5869 15.6344 94.8968 15.3895 95.291 15.1981C95.6926 14.9982 96.057 14.8854 96.384 14.8598C97.1735 14.798 97.7499 14.9856 98.1131 15.4225C98.4843 15.8589 98.6962 16.4121 98.7486 17.082L99.0333 20.7189L97.4661 20.8416L97.187 17.2765C97.1583 16.9096 97.0487 16.6373 96.8583 16.4596C96.6672 16.274 96.4042 16.1943 96.0692 16.2205C95.8459 16.238 95.6153 16.3162 95.3774 16.4552C95.1395 16.5942 94.9268 16.7473 94.7393 16.9144C94.7535 16.9935 94.7677 17.0727 94.7819 17.1518C94.7962 17.2309 94.8064 17.3104 94.8126 17.3901L95.0974 21.027L93.5301 21.1497L93.2511 17.5846C93.2223 17.2177 93.1128 16.9455 92.9223 16.7678C92.7312 16.5821 92.4722 16.5021 92.1452 16.5277C91.9458 16.5433 91.7459 16.6031 91.5454 16.7071C91.3522 16.8024 91.1689 16.9211 90.9955 17.0631L91.3289 21.322L89.7736 21.4438L89.3194 15.6415L90.1329 15.5778L90.557 16.0743C90.8014 15.8144 91.1021 15.6063 91.459 15.45C91.8232 15.285 92.1529 15.191 92.448 15.1679C92.9026 15.1323 93.288 15.1864 93.6042 15.3302C93.9197 15.466 94.1722 15.6669 94.3615 15.9329Z" fill="#F68500"/>
<path d="M103.447 18.9464C103.98 18.8834 104.33 18.6485 104.5 18.2418C104.668 17.8271 104.729 17.4211 104.682 17.0239C104.628 16.5711 104.485 16.1772 104.252 15.8423C104.019 15.5073 103.612 15.3742 103.032 15.4429C102.866 15.4627 102.695 15.5152 102.519 15.6004C102.351 15.6767 102.194 15.7759 102.047 15.898L102.383 18.7342C102.553 18.8107 102.729 18.8704 102.912 18.9132C103.102 18.9551 103.281 18.9662 103.447 18.9464ZM100.34 14.6501L101.127 14.5569L101.511 14.9464C101.75 14.7167 102.037 14.5216 102.373 14.361C102.708 14.2005 103.011 14.1042 103.281 14.0722C104.131 13.9715 104.817 14.1883 105.34 14.7225C105.862 15.2568 106.175 15.9609 106.279 16.8347C106.382 17.7086 106.234 18.4673 105.835 19.1107C105.444 19.7532 104.835 20.1233 104.009 20.2212C103.803 20.2457 103.564 20.2377 103.293 20.1972C103.031 20.1558 102.777 20.0852 102.531 19.9854L102.857 22.7382L101.334 23.0394L100.34 14.6501Z" fill="#F68500"/>
<path d="M110.193 17.465C110.218 17.6311 110.308 17.771 110.463 17.8849C110.617 17.9908 110.805 18.0268 111.026 17.9929C111.24 17.9602 111.446 17.88 111.645 17.7524C111.852 17.6236 112.04 17.4492 112.208 17.2291L112.074 16.3514L110.911 16.5294C110.642 16.5706 110.446 16.6857 110.321 16.8748C110.204 17.0627 110.161 17.2594 110.193 17.465ZM111.237 19.211C110.533 19.3188 109.985 19.2287 109.593 18.9408C109.2 18.6449 108.961 18.2202 108.876 17.6667C108.785 17.0736 108.917 16.588 109.272 16.2099C109.627 15.8318 110.128 15.5931 110.777 15.4938L111.904 15.3212C111.851 15.0298 111.73 14.8178 111.539 14.6851C111.356 14.5432 111.122 14.4941 110.837 14.5377C110.568 14.5789 110.281 14.6632 109.977 14.7908C109.672 14.9104 109.42 15.038 109.222 15.1735L108.611 13.956C108.809 13.7718 109.127 13.5978 109.563 13.4338C110.006 13.2608 110.35 13.1555 110.595 13.1179C111.283 13.0126 111.903 13.124 112.455 13.4522C113.006 13.7725 113.329 14.241 113.423 14.8578L114.003 18.6417L113.208 18.7634L112.754 18.3352C112.566 18.534 112.335 18.7191 112.062 18.8904C111.797 19.0605 111.522 19.1674 111.237 19.211Z" fill="#F68500"/>
<path d="M117.928 12.6545C118.139 12.3462 118.423 12.0811 118.78 11.8592C119.145 11.6358 119.481 11.4953 119.787 11.4376C120.565 11.291 121.159 11.4154 121.567 11.8107C121.983 12.2046 122.253 12.7317 122.377 13.3921L123.052 16.9771L121.519 17.2657L120.858 13.7515C120.79 13.3898 120.651 13.1309 120.443 12.9748C120.233 12.8108 119.963 12.7599 119.633 12.8221C119.412 12.8635 119.192 12.9661 118.97 13.1299C118.755 13.2844 118.563 13.4548 118.395 13.6412L119.161 17.7097L117.628 17.9983L116.551 12.2788L117.353 12.1279L117.928 12.6545Z" fill="#F68500"/>
<path d="M127.052 16.3769L127.173 15.6493L124.019 11.0277L125.541 10.4678L127.619 13.6201L128.095 9.90015L129.7 9.54339L128.725 15.7221L128.588 16.5395C128.51 17.0402 128.282 17.5049 127.902 17.9335C127.522 18.3622 127.095 18.6907 126.621 18.9189L125.804 17.7853C126.051 17.6074 126.308 17.3987 126.574 17.1592C126.85 16.9258 127.009 16.665 127.052 16.3769Z" fill="#F68500"/>
</g>
<defs>
<clipPath id="clip0_5_2">
<rect width="147" height="43" fill="white"/>
</clipPath>
</defs>
</svg>
