<svg width="16" height="16" viewBox="0 0 16 16" fill="none" xmlns="http://www.w3.org/2000/svg">
<g clip-path="url(#clip0_54_26)">
<circle cx="8" cy="8" r="8" fill="#1134A6"/>
<path d="M3.64823 6.87952C3.90878 7.08203 4.07564 7.3046 4.14881 7.54723C4.22402 7.78723 4.15628 8.04277 3.94558 8.31385C3.86785 8.41386 3.77359 8.48624 3.6628 8.53101C3.55669 8.57519 3.44429 8.59759 3.3256 8.59822C3.39757 8.75548 3.42978 8.91772 3.42223 9.08495C3.41732 9.25423 3.35043 9.42177 3.22155 9.58757C3.02927 9.83497 2.79206 9.9609 2.50994 9.96538C2.23046 9.9719 1.94728 9.86368 1.66041 9.64071L0.558978 8.78462L2.64549 6.10014L3.64823 6.87952ZM3.24183 7.24758L2.82337 6.92232L2.30481 7.5895L2.68379 7.88406C2.82591 7.99453 2.95691 8.05412 3.07677 8.06285C3.20132 8.071 3.3086 8.01717 3.3986 7.90137C3.49679 7.77504 3.52745 7.65955 3.49058 7.5549C3.45371 7.45025 3.37079 7.34781 3.24183 7.24758ZM2.57084 8.46121L1.98263 8.00401L1.39656 8.75804L1.94925 9.18761C2.0861 9.29399 2.21987 9.3473 2.35055 9.34755C2.48387 9.34984 2.59553 9.29309 2.68553 9.17729C2.78372 9.05096 2.82023 8.92523 2.79504 8.80011C2.77191 8.67236 2.69717 8.55939 2.57084 8.46121Z" fill="#F68500"/>
<path d="M5.0108 9.95313C5.10626 9.99269 5.17138 10.0576 5.20617 10.1478C5.24404 10.2392 5.2432 10.3327 5.20364 10.4281C5.16408 10.5236 5.09857 10.5903 5.0071 10.6281C4.91871 10.6673 4.82679 10.6671 4.73133 10.6275C4.63587 10.588 4.56766 10.5218 4.52671 10.4291C4.48885 10.3376 4.48969 10.2441 4.52925 10.1487C4.56881 10.0532 4.63432 9.98655 4.72579 9.94869C4.82033 9.91209 4.91533 9.91357 5.0108 9.95313Z" fill="#F68500"/>
<path d="M8.508 10.6897L7.703 8.25969L6.928 10.6897H6.353L5.163 7.37969L5.803 7.28969L6.648 9.76469L7.413 7.28969H8.018L8.833 9.75969L9.628 7.28969H10.283L9.088 10.6897H8.508Z" fill="#F68500"/>
<path d="M10.2668 10.0373C10.3678 10.0153 10.4583 10.0314 10.5383 10.0857C10.6216 10.1392 10.6742 10.2164 10.6962 10.3174C10.7182 10.4184 10.7024 10.5105 10.6489 10.5938C10.5987 10.6763 10.523 10.7286 10.4221 10.7506C10.3211 10.7726 10.2273 10.7571 10.1408 10.7043C10.0575 10.6508 10.0049 10.5736 9.98292 10.4726C9.96094 10.3716 9.97671 10.2795 10.0302 10.1962C10.087 10.1122 10.1659 10.0593 10.2668 10.0373Z" fill="#F68500"/>
<path d="M13.1683 7.2948C13.0177 7.32173 12.8955 7.34566 12.8016 7.36659C12.7062 7.38454 12.5929 7.42635 12.4618 7.49202C12.2204 7.61292 12.0833 7.80457 12.0507 8.06696C12.0181 8.32934 12.0876 8.63191 12.2592 8.97467C12.407 9.26973 12.5898 9.49695 12.8075 9.65632C13.0253 9.81568 13.2638 9.83044 13.5231 9.70058C13.6512 9.6364 13.7637 9.56328 13.8606 9.48123C13.9604 9.39769 14.0468 9.31341 14.1198 9.22839L14.5538 9.54787C14.4674 9.66569 14.3512 9.78353 14.2052 9.90139C14.0592 10.0193 13.9236 10.1095 13.7984 10.1722C13.3245 10.4095 12.9042 10.4299 12.5373 10.2334C12.1705 10.0369 11.8774 9.71952 11.6579 9.28139C11.4236 8.81346 11.3495 8.37151 11.4357 7.95554C11.5249 7.53809 11.7915 7.21816 12.2356 6.99576C12.325 6.95098 12.4562 6.90394 12.6291 6.85464C12.802 6.80533 12.9719 6.78361 13.1389 6.78947L13.1683 7.2948Z" fill="#F68500"/>
<path d="M14.9247 8.61888C15.0027 8.55119 15.0899 8.52196 15.1861 8.53117C15.2849 8.53821 15.3681 8.58076 15.4358 8.65884C15.5035 8.73691 15.5338 8.82532 15.5268 8.92406C15.5223 9.02063 15.481 9.10275 15.4029 9.17044C15.3248 9.23813 15.2351 9.26956 15.1339 9.26471C15.0351 9.25767 14.9519 9.21512 14.8842 9.13704C14.8165 9.05897 14.7862 8.97056 14.7932 8.87181C14.8028 8.77088 14.8466 8.68658 14.9247 8.61888Z" fill="#F68500"/>
</g>
<defs>
<clipPath id="clip0_54_26">
<rect width="16" height="16" fill="white"/>
</clipPath>
</defs>
</svg>
