<svg width="147" height="43" viewBox="0 0 147 43" fill="none" xmlns="http://www.w3.org/2000/svg">
<g clip-path="url(#clip0_5_2)">
<path d="M20.2148 4.3057C20.9471 4.60747 21.4533 5.00461 21.7337 5.49712C22.018 5.98273 21.9516 6.58079 21.5343 7.29131C21.3803 7.55344 21.174 7.764 20.9152 7.92298C20.668 8.0781 20.3962 8.18887 20.1 8.25529C20.343 8.56106 20.4887 8.89956 20.5371 9.27078C20.5928 9.64506 20.4931 10.0495 20.2379 10.4841C19.857 11.1325 19.3152 11.5389 18.6123 11.7034C17.9168 11.8708 17.1659 11.7885 16.3597 11.4562L13.2642 10.1805L17.3967 3.14434L20.2148 4.3057ZM19.3477 5.33634L18.1716 4.85168L17.1446 6.60038L18.2097 7.03932C18.6091 7.20392 18.9603 7.26296 19.2632 7.21644C19.5775 7.16607 19.8239 6.98913 20.0021 6.6856C20.1966 6.35449 20.2267 6.08417 20.0926 5.87466C19.9584 5.66514 19.7101 5.4857 19.3477 5.33634ZM18.1596 8.36812L16.5065 7.68685L15.3457 9.6632L16.899 10.3033C17.2836 10.4618 17.6392 10.5055 17.9657 10.4345C18.2996 10.3665 18.5557 10.1807 18.734 9.87717C18.9285 9.54605 18.9691 9.25007 18.8559 8.98922C18.7467 8.72147 18.5146 8.51443 18.1596 8.36812Z" fill="#F68500"/>
<path d="M21.3865 11.4642C21.6195 11.549 21.7725 11.6934 21.8455 11.8972C21.926 12.1038 21.9092 12.3172 21.795 12.5373C21.6808 12.7575 21.5061 12.9134 21.2708 13.005C21.0431 13.0994 20.8128 13.1042 20.5797 13.0194C20.3467 12.9346 20.1861 12.7875 20.0981 12.5782C20.0176 12.3716 20.0345 12.1582 20.1486 11.9381C20.2628 11.7179 20.4376 11.562 20.6728 11.4704C20.9155 11.3814 21.1534 11.3794 21.3865 11.4642Z" fill="#F68500"/>
<path d="M30.8289 16.8456L31.32 10.9357L27.2039 15.7326L25.8847 15.3275L26.3392 7.21149L27.8942 7.46446L27.4515 13.5015L31.5879 8.59866L32.976 9.02486L32.4693 15.0298L36.6698 10.1591L38.1725 10.6205L32.1596 17.2542L30.8289 16.8456Z" fill="#F68500"/>
<path d="M35.462 16.1039C35.7025 16.1646 35.8718 16.2936 35.9701 16.4909C36.0761 16.6901 36.0871 16.9064 36.0031 17.1397C35.9191 17.3731 35.7673 17.5482 35.5475 17.6651C35.3355 17.784 35.1092 17.8131 34.8688 17.7524C34.6283 17.6917 34.4512 17.5608 34.3375 17.3596C34.2315 17.1604 34.2205 16.9441 34.3044 16.7108C34.3884 16.4774 34.5403 16.3023 34.7601 16.1853C34.9876 16.0703 35.2216 16.0432 35.462 16.1039Z" fill="#F68500"/>
<path d="M46.4741 13.5861C46.1594 13.4141 45.9005 13.2783 45.6973 13.1787C45.4964 13.0714 45.2237 12.9815 44.8792 12.9092C44.2451 12.7761 43.6801 12.9264 43.1843 13.3599C42.6885 13.7935 42.3088 14.451 42.0451 15.3324C41.8182 16.0912 41.767 16.7769 41.8916 17.3895C42.0163 18.0022 42.4192 18.38 43.1003 18.5229C43.437 18.5936 43.7605 18.6248 44.0708 18.6166C44.3889 18.6101 44.6843 18.5825 44.9568 18.5338L45.2021 19.7583C44.8509 19.8475 44.4463 19.8929 43.9881 19.8945C43.53 19.8961 43.1365 19.8623 42.8077 19.7933C41.5628 19.5321 40.7754 18.9514 40.4456 18.0513C40.1157 17.1512 40.1192 16.1378 40.4562 15.0111C40.8161 13.8078 41.42 12.8878 42.2678 12.2512C43.1234 11.6162 44.1345 11.4211 45.301 11.666C45.5359 11.7153 45.8494 11.8218 46.2414 11.9855C46.6335 12.1492 46.9742 12.3592 47.2637 12.6155L46.4741 13.5861Z" fill="#F68500"/>
<path d="M47.5677 18.7637C47.8122 18.8049 47.9938 18.9204 48.1124 19.1103C48.2389 19.3016 48.2733 19.5178 48.2154 19.7589C48.1576 20.0001 48.0263 20.1884 47.8214 20.3239C47.6245 20.4608 47.4037 20.5086 47.1592 20.4675C46.9146 20.4263 46.7251 20.3095 46.5907 20.1169C46.4642 19.9257 46.4299 19.7095 46.4877 19.4683C46.5455 19.2271 46.6769 19.0388 46.8817 18.9033C47.0944 18.7691 47.3231 18.7226 47.5677 18.7637Z" fill="#F68500"/>
<path d="M62.7703 15.7344C62.4341 15.5975 62.1584 15.4906 61.943 15.4135C61.7288 15.3286 61.4465 15.2692 61.0962 15.2353C60.4512 15.173 59.9175 15.3864 59.495 15.8756C59.0726 16.3648 58.7987 17.0651 58.6731 17.9765C58.5651 18.7611 58.6191 19.453 58.8351 20.052C59.0511 20.6511 59.5055 20.9842 60.1983 21.0511C60.5407 21.0842 60.8641 21.0793 61.1686 21.0365C61.481 20.9944 61.7677 20.9337 62.0288 20.8546L62.4569 22.0524C62.1245 22.1809 61.7328 22.2715 61.2817 22.3243C60.8306 22.377 60.4379 22.3873 60.1034 22.355C58.8373 22.2326 57.9733 21.7395 57.5113 20.8757C57.0493 20.012 56.8986 18.9976 57.059 17.8326C57.2304 16.5883 57.6852 15.6003 58.4234 14.8686C59.1696 14.1377 60.1359 13.8295 61.3224 13.9442C61.5613 13.9673 61.8863 14.0388 62.2974 14.1589C62.7085 14.2789 63.0762 14.451 63.4003 14.675L62.7703 15.7344Z" fill="#F68500"/>
<path d="M67.0876 22.7862C66.1692 22.7348 65.4688 22.4215 64.9864 21.8462C64.512 21.2713 64.3063 20.5169 64.3691 19.583C64.4314 18.6571 64.7488 17.9314 65.3213 17.4059C65.9017 16.8808 66.6594 16.6404 67.5944 16.6845C68.5613 16.7302 69.2891 17.0528 69.7779 17.6524C70.2751 18.2444 70.4926 19.0033 70.4303 19.9293C70.368 20.8552 70.0312 21.5719 69.4199 22.0796C68.8085 22.5872 68.0311 22.8227 67.0876 22.7862ZM68.8241 19.8534C68.8612 19.3027 68.7663 18.8658 68.5395 18.5428C68.3213 18.2122 67.9884 18.0363 67.5409 18.0152C67.0854 17.9937 66.7204 18.1166 66.4459 18.3839C66.1714 18.6512 66.0148 19.0722 65.9761 19.6469C65.9375 20.2216 66.0161 20.6617 66.2119 20.9672C66.4158 21.2731 66.7455 21.4368 67.201 21.4583C67.6485 21.4794 68.021 21.3649 68.3184 21.1147C68.6163 20.8565 68.7849 20.4361 68.8241 19.8534Z" fill="#F68500"/>
<path d="M77.0647 17.615C77.3097 17.3332 77.6353 17.1107 78.0415 16.9477C78.4557 16.7765 78.8268 16.6897 79.1548 16.6872C79.9468 16.6813 80.5093 16.909 80.8422 17.3705C81.1832 17.832 81.3573 18.3987 81.3646 19.0706L81.4038 22.7184L79.8318 22.7303L79.7934 19.1545C79.7894 18.7865 79.6984 18.5072 79.5203 18.3165C79.3422 18.1179 79.0851 18.0198 78.7491 18.0223C78.5252 18.024 78.2898 18.0858 78.0431 18.2077C77.7964 18.3295 77.5739 18.4672 77.3755 18.6207C77.3844 18.7007 77.3932 18.7806 77.4021 18.8605C77.4109 18.9405 77.4158 19.0204 77.4167 19.1004L77.4559 22.7482L75.8839 22.7601L75.8455 19.1843C75.8415 18.8163 75.7505 18.537 75.5725 18.3463C75.3943 18.1477 75.1412 18.0496 74.8133 18.052C74.6133 18.0535 74.4097 18.0991 74.2027 18.1886C74.0036 18.2702 73.8127 18.3756 73.6301 18.505L73.676 22.7767L72.1161 22.7885L72.0535 16.9688L72.8694 16.9627L73.2591 17.4878C73.5205 17.2458 73.8345 17.0594 74.2011 16.9286C74.5757 16.7898 74.9109 16.7193 75.2069 16.717C75.6629 16.7136 76.0438 16.7947 76.3496 16.9604C76.6553 17.1181 76.8937 17.3363 77.0647 17.615Z" fill="#F68500"/>
<path d="M85.3737 21.194C85.9087 21.1617 86.2675 20.9477 86.4502 20.5521C86.6321 20.1485 86.7059 19.7474 86.6716 19.3489C86.6324 18.8946 86.5016 18.4939 86.279 18.1468C86.0564 17.7997 85.6537 17.6438 85.0707 17.6791C84.903 17.6892 84.7301 17.7317 84.5519 17.8066C84.3811 17.873 84.2203 17.9628 84.0695 18.0761L84.3147 20.9216C84.4827 21.0076 84.6572 21.0771 84.8384 21.1303C85.0276 21.1829 85.206 21.2042 85.3737 21.194ZM82.4006 16.7349L83.1912 16.6871L83.5637 17.0972C83.81 16.882 84.1037 16.704 84.4448 16.5632C84.7858 16.4224 85.0921 16.3438 85.3636 16.3274C86.2181 16.2757 86.8983 16.531 87.4043 17.0933C87.9103 17.6556 88.2011 18.3751 88.2766 19.2518C88.3522 20.1286 88.1798 20.8761 87.7595 21.4944C87.3472 22.1122 86.7258 22.4463 85.8953 22.4965C85.6877 22.509 85.449 22.4874 85.1793 22.4316C84.9176 22.3753 84.6655 22.2904 84.4229 22.1769L84.661 24.9387L83.1261 25.1517L82.4006 16.7349Z" fill="#F68500"/>
<path d="M90.5316 20.1107C90.5567 20.2768 90.6471 20.4199 90.8027 20.54C90.9571 20.6522 91.1457 20.6964 91.3684 20.6728C91.5832 20.65 91.7908 20.5797 91.9912 20.462C92.1996 20.3434 92.3889 20.1786 92.559 19.9677L92.4261 19.0897L91.2567 19.2139C90.9862 19.2426 90.788 19.348 90.662 19.5302C90.5439 19.7115 90.5005 19.905 90.5316 20.1107ZM91.5773 21.8923C90.8692 21.9675 90.3185 21.8532 89.9249 21.5494C89.5301 21.2377 89.2909 20.8051 89.207 20.2514C89.1172 19.6581 89.2512 19.1818 89.6091 18.8223C89.9669 18.4628 90.472 18.2484 91.1243 18.1791L92.2579 18.0587C92.2057 17.7669 92.084 17.5507 91.893 17.4103C91.7088 17.2611 91.4735 17.2017 91.1871 17.2321C90.9166 17.2608 90.6282 17.3316 90.322 17.4445C90.0146 17.5495 89.7612 17.6648 89.562 17.7905L88.9504 16.5534C89.1504 16.3795 89.4699 16.221 89.909 16.0779C90.3548 15.9261 90.7011 15.837 90.9477 15.8108C91.6398 15.7373 92.263 15.8761 92.8173 16.2271C93.3704 16.5702 93.6936 17.0503 93.787 17.6672L94.3599 21.4521L93.5604 21.537L93.1049 21.0911C92.9153 21.28 92.6829 21.4534 92.4077 21.6112C92.1405 21.7682 91.8637 21.8619 91.5773 21.8923Z" fill="#F68500"/>
<path d="M96.5793 15.7532C96.7842 15.4554 97.0642 15.2027 97.4195 14.9951C97.7826 14.7862 98.1184 14.6582 98.4268 14.6112C99.2097 14.4917 99.8126 14.6339 100.235 15.0379C100.666 15.4406 100.953 15.9703 101.096 16.6269L101.871 20.1916L100.329 20.4269L99.5689 16.9326C99.4907 16.573 99.3442 16.3127 99.1295 16.1516C98.913 15.9827 98.6387 15.9236 98.3065 15.9743C98.0851 16.0081 97.8645 16.1023 97.6448 16.257C97.4314 16.4026 97.242 16.5648 97.0765 16.7435L97.9563 20.7889L96.4141 21.0242L95.1774 15.3372L95.9841 15.2141L96.5793 15.7532Z" fill="#F68500"/>
<path d="M104.688 19.8062L104.773 19.0943L101.326 14.4964L102.845 13.9763L105.121 17.111L105.411 13.4685L107.024 13.1494L106.355 19.1958L106.258 19.9955C106.205 20.4855 105.997 20.9373 105.633 21.3507C105.269 21.7642 104.852 22.0784 104.383 22.2932L103.493 21.1646C103.735 20.9948 103.985 20.7949 104.243 20.5649C104.512 20.3411 104.66 20.0882 104.688 19.8062Z" fill="#F68500"/>
<path d="M120.023 15.5498L114.832 16.9901L111.831 9.40172L113.323 8.9879L115.878 15.4492L119.347 14.4868L120.023 15.5498Z" fill="#F68500"/>
<path d="M124.718 13.7415C124.64 13.8754 124.5 14.0084 124.299 14.1406C124.108 14.2775 123.925 14.3743 123.75 14.4311C123.066 14.6532 122.45 14.665 121.903 14.4666C121.361 14.2584 120.948 13.8493 120.666 13.2393L119.514 10.7448L118.772 10.9854L118.268 9.8961L119.01 9.65549L118.431 8.40281L119.788 7.67475L120.483 9.17797L121.487 8.85222L122.447 9.79344L120.986 10.2673L122.023 12.5112C122.151 12.7872 122.325 12.9937 122.546 13.1308C122.763 13.2607 123.005 13.2824 123.272 13.1961C123.37 13.164 123.464 13.121 123.553 13.0671C123.642 13.0133 123.728 12.9437 123.811 12.8583L124.718 13.7415Z" fill="#F68500"/>
<path d="M126.158 8.19828C125.649 8.3894 125.384 8.69222 125.363 9.10672C125.349 9.51842 125.438 9.90415 125.631 10.2639C125.846 10.666 126.128 10.9921 126.478 11.2421C126.827 11.4921 127.275 11.5145 127.822 11.3093C127.994 11.2447 128.155 11.142 128.305 11.0011C128.458 10.8505 128.591 10.6948 128.703 10.5342L127.435 8.1639C127.213 8.11992 126.987 8.09919 126.754 8.10173C126.529 8.10145 126.331 8.13363 126.158 8.19828ZM126.937 3.92914L130.933 11.3999L130.169 11.6866L129.498 11.341C129.357 11.6313 129.148 11.8961 128.871 12.1355C128.598 12.3649 128.327 12.5303 128.057 12.6315C127.263 12.9294 126.513 12.8974 125.807 12.5356C125.101 12.1738 124.54 11.6049 124.125 10.8289C123.71 10.0529 123.588 9.31954 123.758 8.62887C123.936 7.93538 124.418 7.44108 125.204 7.14596C125.406 7.07007 125.654 7.01962 125.946 6.9946C126.235 6.96253 126.524 6.9643 126.812 6.99991L125.528 4.59783L126.937 3.92914Z" fill="#F68500"/>
<path d="M131.295 8.80199C131.524 8.7052 131.755 8.69749 131.989 8.77884C132.231 8.85707 132.416 9.00232 132.544 9.21459C132.672 9.42687 132.702 9.63768 132.635 9.84705C132.574 10.0533 132.43 10.2048 132.201 10.3016C131.973 10.3984 131.734 10.4092 131.485 10.3341C131.244 10.2559 131.059 10.1106 130.931 9.89836C130.803 9.68609 130.772 9.47527 130.84 9.2659C130.915 9.05342 131.067 8.89878 131.295 8.80199Z" fill="#F68500"/>
<path d="M0.8 29.768H5.008C5.792 29.768 6.448 30.04 7.008 30.584C7.552 31.144 7.824 31.8 7.824 32.568V33.624C7.808 34.28 7.6 34.872 7.2 35.384C7.6 35.896 7.808 36.488 7.824 37.144V38.184C7.824 38.968 7.552 39.624 7.008 40.168C6.448 40.728 5.792 41 5.008 41H0.8V29.768ZM2.912 31.864V34.328H5.008C5.216 34.328 5.376 34.264 5.52 34.12C5.648 33.976 5.712 33.816 5.712 33.624V32.568C5.712 32.376 5.648 32.216 5.52 32.072C5.376 31.928 5.216 31.864 5.008 31.864H2.912ZM2.912 36.44V38.888H5.008C5.216 38.888 5.376 38.824 5.52 38.68C5.648 38.552 5.712 38.392 5.712 38.184V37.144C5.712 36.936 5.648 36.776 5.52 36.632C5.376 36.504 5.216 36.44 5.008 36.44H2.912ZM9.425 29.768H15.745V31.864H11.537V34.328H15.745V36.44H11.537V38.888H15.745V41H9.425V29.768ZM20.8509 29.768H21.5549C22.3389 29.768 22.9949 30.04 23.5549 30.584C24.0989 31.144 24.3709 31.8 24.3709 32.568V33.272H22.2589V32.568C22.2589 32.376 22.1949 32.216 22.0669 32.072C21.9229 31.928 21.7629 31.864 21.5549 31.864H20.8509C20.4669 31.864 20.1469 32.008 19.8749 32.28C19.6029 32.552 19.4589 32.888 19.4589 33.272V33.624C19.4589 33.816 19.5229 33.976 19.6669 34.12C19.7949 34.264 19.9549 34.328 20.1629 34.328H21.5549C22.3389 34.328 22.9949 34.6 23.5549 35.144C24.0989 35.704 24.3709 36.36 24.3709 37.144V37.496C24.3709 38.456 24.0349 39.272 23.3469 39.96C22.6589 40.648 21.8269 41 20.8509 41H20.1629C19.3789 41 18.7229 40.728 18.1789 40.168C17.6189 39.624 17.3469 38.968 17.3469 38.184V37.496H19.4589V38.184C19.4589 38.392 19.5229 38.552 19.6669 38.68C19.7949 38.824 19.9549 38.888 20.1629 38.888H20.8509C21.2509 38.888 21.5869 38.744 21.8589 38.472C22.1309 38.2 22.2589 37.88 22.2589 37.496V37.144C22.2589 36.936 22.1949 36.776 22.0669 36.632C21.9229 36.504 21.7629 36.44 21.5549 36.44H20.1629C19.3789 36.44 18.7229 36.168 18.1789 35.608C17.6189 35.064 17.3469 34.408 17.3469 33.624V33.272C17.3469 32.296 17.6989 31.48 18.3869 30.792C19.0749 30.104 19.8909 29.768 20.8509 29.768ZM25.9719 29.768H32.9959V31.864H30.5319V41H28.4359V31.864H25.9719V29.768ZM38.4875 29.768H40.5995V36.92C40.5995 37.32 40.6795 37.656 40.8235 37.96C41.0155 38.36 41.3995 38.616 41.9915 38.76C42.4875 38.648 42.8555 38.44 43.0795 38.136C43.2875 37.8 43.3995 37.4 43.3995 36.92V29.768H45.5115V36.92C45.5115 37.32 45.5915 37.656 45.7355 37.96C45.9275 38.36 46.3275 38.616 46.9195 38.76C47.4155 38.648 47.7835 38.44 47.9915 38.136C48.1995 37.8 48.3115 37.4 48.3115 36.92V29.768H50.4235V36.92C50.4235 37.256 50.3915 37.592 50.3435 37.928C50.2795 38.264 50.1675 38.568 50.0235 38.84C49.7195 39.368 49.3035 39.816 48.8075 40.168C48.2795 40.536 47.6395 40.824 46.9195 41C46.1195 40.808 45.4475 40.488 44.8875 40.056C44.7435 39.944 44.5995 39.816 44.4555 39.688C44.2795 39.864 44.1035 40.024 43.8955 40.168C43.3675 40.536 42.7275 40.824 41.9915 41C41.2075 40.808 40.5195 40.488 39.9595 40.056C39.5275 39.72 39.1755 39.32 38.8875 38.84C38.7435 38.568 38.6315 38.264 38.5835 37.928C38.5195 37.592 38.4875 37.256 38.4875 36.92V29.768ZM52.0188 29.768H58.3388V31.864H54.1308V34.328H58.3388V36.44H54.1308V38.888H58.3388V41H52.0188V29.768ZM59.9406 29.768H64.1486C64.9326 29.768 65.5886 30.04 66.1486 30.584C66.6926 31.144 66.9646 31.8 66.9646 32.568V33.624C66.9486 34.28 66.7406 34.872 66.3406 35.384C66.7406 35.896 66.9486 36.488 66.9646 37.144V38.184C66.9646 38.968 66.6926 39.624 66.1486 40.168C65.5886 40.728 64.9326 41 64.1486 41H59.9406V29.768ZM62.0526 31.864V34.328H64.1486C64.3566 34.328 64.5166 34.264 64.6606 34.12C64.7886 33.976 64.8526 33.816 64.8526 33.624V32.568C64.8526 32.376 64.7886 32.216 64.6606 32.072C64.5166 31.928 64.3566 31.864 64.1486 31.864H62.0526ZM62.0526 36.44V38.888H64.1486C64.3566 38.888 64.5166 38.824 64.6606 38.68C64.7886 38.552 64.8526 38.392 64.8526 38.184V37.144C64.8526 36.936 64.7886 36.776 64.6606 36.632C64.5166 36.504 64.3566 36.44 64.1486 36.44H62.0526ZM72.0696 29.768H72.7736C73.5576 29.768 74.2136 30.04 74.7736 30.584C75.3176 31.144 75.5896 31.8 75.5896 32.568V33.272H73.4776V32.568C73.4776 32.376 73.4136 32.216 73.2856 32.072C73.1416 31.928 72.9816 31.864 72.7736 31.864H72.0696C71.6856 31.864 71.3656 32.008 71.0936 32.28C70.8216 32.552 70.6776 32.888 70.6776 33.272V33.624C70.6776 33.816 70.7416 33.976 70.8856 34.12C71.0136 34.264 71.1736 34.328 71.3816 34.328H72.7736C73.5576 34.328 74.2136 34.6 74.7736 35.144C75.3176 35.704 75.5896 36.36 75.5896 37.144V37.496C75.5896 38.456 75.2536 39.272 74.5656 39.96C73.8776 40.648 73.0456 41 72.0696 41H71.3816C70.5976 41 69.9416 40.728 69.3976 40.168C68.8376 39.624 68.5656 38.968 68.5656 38.184V37.496H70.6776V38.184C70.6776 38.392 70.7416 38.552 70.8856 38.68C71.0136 38.824 71.1736 38.888 71.3816 38.888H72.0696C72.4696 38.888 72.8056 38.744 73.0776 38.472C73.3496 38.2 73.4776 37.88 73.4776 37.496V37.144C73.4776 36.936 73.4136 36.776 73.2856 36.632C73.1416 36.504 72.9816 36.44 72.7736 36.44H71.3816C70.5976 36.44 69.9416 36.168 69.3976 35.608C68.8376 35.064 68.5656 34.408 68.5656 33.624V33.272C68.5656 32.296 68.9176 31.48 69.6056 30.792C70.2936 30.104 71.1096 29.768 72.0696 29.768ZM77.1906 41V29.768H79.3026V41H77.1906ZM80.9094 29.768H87.9334V31.864H85.4694V41H83.3734V31.864H80.9094V29.768ZM89.5344 29.768H95.8544V31.864H91.6464V34.328H95.8544V36.44H91.6464V38.888H95.8544V41H89.5344V29.768ZM104.851 29.768H105.555C106.339 29.768 106.995 30.04 107.555 30.584C108.099 31.144 108.371 31.8 108.371 32.568V33.272H106.259V32.568C106.259 32.376 106.195 32.216 106.067 32.072C105.923 31.928 105.763 31.864 105.555 31.864H104.851C104.467 31.864 104.147 32.008 103.875 32.28C103.603 32.552 103.459 32.888 103.459 33.272V37.496C103.459 37.88 103.603 38.2 103.875 38.472C104.147 38.744 104.467 38.888 104.851 38.888H105.555C105.763 38.888 105.923 38.824 106.067 38.68C106.195 38.552 106.259 38.392 106.259 38.184V37.496H108.371V38.184C108.371 38.968 108.099 39.624 107.555 40.168C106.995 40.728 106.339 41 105.555 41H104.851C103.891 41 103.075 40.648 102.387 39.96C101.699 39.272 101.347 38.456 101.347 37.496V33.272C101.347 32.296 101.699 31.48 102.387 30.792C103.075 30.104 103.891 29.768 104.851 29.768ZM109.972 29.768H112.084V34.328H114.884V29.768H116.996V41H114.884V36.44H112.084V41H109.972V29.768ZM118.597 33.272C118.597 32.296 118.949 31.48 119.637 30.792C120.325 30.104 121.141 29.768 122.101 29.768C123.077 29.768 123.909 30.104 124.597 30.792C125.285 31.48 125.621 32.296 125.621 33.272V37.496C125.621 38.456 125.285 39.272 124.597 39.96C123.909 40.648 123.077 41 122.101 41C121.141 41 120.325 40.648 119.637 39.96C118.949 39.272 118.597 38.456 118.597 37.496V33.272ZM123.509 33.272C123.509 32.888 123.381 32.552 123.109 32.28C122.837 32.008 122.501 31.864 122.101 31.864C121.717 31.864 121.397 32.008 121.125 32.28C120.853 32.552 120.709 32.888 120.709 33.272V37.496C120.709 37.88 120.853 38.2 121.125 38.472C121.397 38.744 121.717 38.888 122.101 38.888C122.501 38.888 122.837 38.744 123.109 38.472C123.381 38.2 123.509 37.88 123.509 37.496V33.272ZM127.222 41V29.768H129.334V41H127.222ZM134.445 29.768H135.149C135.933 29.768 136.589 30.04 137.149 30.584C137.693 31.144 137.965 31.8 137.965 32.568V33.272H135.853V32.568C135.853 32.376 135.789 32.216 135.661 32.072C135.517 31.928 135.357 31.864 135.149 31.864H134.445C134.061 31.864 133.741 32.008 133.469 32.28C133.197 32.552 133.053 32.888 133.053 33.272V37.496C133.053 37.88 133.197 38.2 133.469 38.472C133.741 38.744 134.061 38.888 134.445 38.888H135.149C135.357 38.888 135.517 38.824 135.661 38.68C135.789 38.552 135.853 38.392 135.853 38.184V37.496H137.965V38.184C137.965 38.968 137.693 39.624 137.149 40.168C136.589 40.728 135.933 41 135.149 41H134.445C133.485 41 132.669 40.648 131.981 39.96C131.293 39.272 130.941 38.456 130.941 37.496V33.272C130.941 32.296 131.293 31.48 131.981 30.792C132.669 30.104 133.485 29.768 134.445 29.768ZM139.566 29.768H145.886V31.864H141.678V34.328H145.886V36.44H141.678V38.888H145.886V41H139.566V29.768Z" fill="#1134A6"/>
</g>
<defs>
<clipPath id="clip0_5_2">
<rect width="147" height="43" fill="white"/>
</clipPath>
</defs>
</svg>
