<?xml version="1.0" encoding="utf-8"?><svg version="1.1" id="Layer_1" xmlns="http://www.w3.org/2000/svg" xmlns:xlink="http://www.w3.org/1999/xlink" x="0px" y="0px" viewBox="0 0 332 51.5" style="enable-background:new 0 0 332 51.5;" xml:space="preserve"><style type="text/css">.st0{fill:#ED1C24;}.st1{fill:#FFFFFF;}</style><path d="M123.8,37.8c0,2.2-0.4,4.1-1.2,5.8c-0.8,1.7-2,3.2-3.5,4.4c-1.5,1.2-3.4,2.1-5.6,2.8c-2.2,0.6-4.7,1-7.4,1c-5.9,0-10.5-1.3-13.8-4c-3.3-2.7-4.9-6.5-5-11.4h9.4c0.3,5.4,3.6,8.1,9.8,8.1c2.5,0,4.4-0.5,5.8-1.5c1.4-1,2.1-2.4,2.1-4.2c0-0.7-0.1-1.3-0.3-1.8c-0.2-0.5-0.6-1-1.2-1.4c-0.6-0.4-1.4-0.8-2.4-1.2c-1-0.4-2.3-0.8-3.9-1.2l-4-1.1c-2.9-0.8-5.1-1.5-6.6-2.2c-1.6-0.7-2.8-1.4-3.8-2.3c-2.2-1.9-3.3-4.7-3.3-8.2c0-1.9,0.4-3.7,1.2-5.3c0.8-1.6,1.9-3,3.3-4.1c1.4-1.1,3.2-2,5.3-2.6c2.1-0.6,4.3-0.9,6.8-0.9c5.2,0,9.3,1.2,12.1,3.6c2.9,2.4,4.4,5.8,4.5,10.2h-9c-0.2-2.1-1-3.7-2.4-4.8c-1.4-1.1-3.3-1.7-5.8-1.7c-2.2,0-4,0.4-5.2,1.3c-1.2,0.9-1.8,2.1-1.8,3.7c0,0.6,0.1,1.1,0.4,1.6c0.2,0.5,0.6,0.9,1.2,1.2c0.6,0.4,1.4,0.7,2.3,1.1c1,0.3,2.2,0.7,3.6,1.1l2.9,0.8c1.6,0.4,2.9,0.8,4.1,1.1c1.2,0.3,2.2,0.7,3,1c0.9,0.3,1.6,0.7,2.3,1c0.7,0.3,1.3,0.8,1.9,1.2C122.4,31.3,123.8,34.2,123.8,37.8"/><path d="M170.6,50.7h-9.4l-4.7-18.5l-1.1-4.9l-0.6-3.6c-0.1-0.7-0.2-1.3-0.3-1.8c-0.1-0.5-0.2-0.9-0.2-1.3c-0.1-0.4-0.1-0.8-0.2-1.2c-0.1-0.4-0.1-0.9-0.2-1.6c-0.1,0.6-0.2,1.1-0.2,1.5c-0.1,0.4-0.1,0.8-0.2,1.2c-0.1,0.4-0.1,0.8-0.2,1.3c-0.1,0.5-0.2,1.1-0.3,1.9c-0.2,1-0.4,1.8-0.5,2.4c-0.1,0.6-0.2,1-0.2,1.1c-0.1,0.7-0.3,1.5-0.5,2.3c-0.2,0.8-0.4,1.6-0.6,2.5l-4.6,18.7h-9.6L125.2,7.6h9.6l4.2,18.2c0.3,1.4,0.7,2.8,0.9,4.1c0.3,1.4,0.6,2.9,0.9,4.8c0.1,0.7,0.2,1.3,0.3,1.8c0.1,0.5,0.2,1,0.2,1.5c0.1,0.5,0.1,1,0.2,1.5c0.1,0.5,0.1,1.2,0.2,2c0.1-0.7,0.2-1.4,0.2-1.9c0.1-0.5,0.1-1,0.2-1.5c0.1-0.5,0.1-1,0.2-1.5c0.1-0.5,0.2-1.1,0.3-1.7c0.3-1.9,0.7-3.7,1-5.4c0.3-1.6,0.6-2.9,0.8-3.7l4.7-18.2h9l4.6,17.8l1,4.8l0.8,4.3c0.1,0.5,0.2,1,0.3,1.5c0.1,0.5,0.2,1,0.3,1.5c0.1,0.5,0.2,1.1,0.3,1.8c0.1,0.6,0.2,1.4,0.3,2.2c0.1-0.8,0.2-1.5,0.3-2.1c0.1-0.6,0.2-1.1,0.3-1.7c0.1-0.5,0.2-1.1,0.3-1.6c0.1-0.5,0.2-1.2,0.3-1.9c0.2-0.8,0.3-1.7,0.5-2.6c0.2-0.9,0.3-1.7,0.5-2.5c0.2-0.8,0.3-1.6,0.5-2.3c0.2-0.7,0.3-1.3,0.4-1.8l4.2-17.4h9.4L170.6,50.7z"/><rect x="186.8" y="7.6" width="9.4" height="43.2"/><path d="M238.5,37.8c0,2.2-0.4,4.1-1.2,5.8c-0.8,1.7-2,3.2-3.5,4.4c-1.5,1.2-3.4,2.1-5.6,2.8c-2.2,0.6-4.7,1-7.4,1c-5.9,0-10.5-1.3-13.8-4c-3.3-2.7-4.9-6.5-5-11.4h9.4c0.3,5.4,3.6,8.1,9.8,8.1c2.5,0,4.4-0.5,5.8-1.5c1.4-1,2.1-2.4,2.1-4.2c0-0.7-0.1-1.3-0.3-1.8c-0.2-0.5-0.6-1-1.2-1.4c-0.6-0.4-1.4-0.8-2.4-1.2c-1-0.4-2.3-0.8-3.9-1.2l-4-1.1c-2.9-0.8-5.1-1.5-6.6-2.2c-1.6-0.7-2.8-1.4-3.8-2.3c-2.2-1.9-3.3-4.7-3.3-8.2c0-1.9,0.4-3.7,1.2-5.3c0.8-1.6,1.9-3,3.3-4.1c1.4-1.1,3.2-2,5.3-2.6c2.1-0.6,4.3-0.9,6.8-0.9c5.2,0,9.3,1.2,12.1,3.6c2.9,2.4,4.4,5.8,4.5,10.2h-9c-0.2-2.1-1-3.7-2.4-4.8c-1.4-1.1-3.3-1.7-5.8-1.7c-2.2,0-4,0.4-5.2,1.3c-1.2,0.9-1.8,2.1-1.8,3.7c0,0.6,0.1,1.1,0.4,1.6c0.2,0.5,0.6,0.9,1.2,1.2c0.6,0.4,1.4,0.7,2.3,1.1c1,0.3,2.2,0.7,3.6,1.1l2.9,0.8c1.6,0.4,2.9,0.8,4.1,1.1c1.1,0.3,2.1,0.7,3,1c0.9,0.3,1.6,0.7,2.3,1c0.7,0.3,1.3,0.8,1.9,1.2C237.1,31.3,238.5,34.2,238.5,37.8"/><path d="M279.4,37.8c0,2.2-0.4,4.1-1.2,5.8c-0.8,1.7-2,3.2-3.5,4.4c-1.5,1.2-3.4,2.1-5.6,2.8c-2.2,0.6-4.7,1-7.4,1c-5.9,0-10.5-1.3-13.8-4c-3.3-2.7-4.9-6.5-5-11.4h9.4c0.3,5.4,3.6,8.1,9.8,8.1c2.5,0,4.4-0.5,5.8-1.5c1.4-1,2.1-2.4,2.1-4.2c0-0.7-0.1-1.3-0.3-1.8c-0.2-0.5-0.6-1-1.2-1.4c-0.6-0.4-1.4-0.8-2.4-1.2c-1-0.4-2.3-0.8-3.9-1.2l-4-1.1c-2.9-0.8-5.1-1.5-6.6-2.2c-1.6-0.7-2.8-1.4-3.8-2.3c-2.2-1.9-3.3-4.7-3.3-8.2c0-1.9,0.4-3.7,1.2-5.3c0.8-1.6,1.9-3,3.3-4.1c1.4-1.1,3.2-2,5.3-2.6c2.1-0.6,4.3-0.9,6.8-0.9c5.2,0,9.3,1.2,12.1,3.6c2.9,2.4,4.4,5.8,4.5,10.2h-9c-0.2-2.1-1-3.7-2.4-4.8c-1.4-1.1-3.3-1.7-5.8-1.7c-2.2,0-4,0.4-5.2,1.3c-1.2,0.9-1.8,2.1-1.8,3.7c0,0.6,0.1,1.1,0.4,1.6c0.2,0.5,0.6,0.9,1.2,1.2c0.6,0.4,1.4,0.7,2.3,1.1c1,0.3,2.2,0.7,3.6,1.1l2.9,0.8c1.6,0.4,2.9,0.8,4.1,1.1c1.1,0.3,2.1,0.7,3,1c0.9,0.3,1.6,0.7,2.3,1c0.7,0.3,1.3,0.8,1.9,1.2C278,31.3,279.4,34.2,279.4,37.8"/><path class="st0" d="M36.3,38c0,4-1.3,7.2-4,9.4c-2.6,2.2-6.4,3.3-11.2,3.3H0V7.7h19.4c2.2,0,4,0.1,5.5,0.4c1.4,0.2,2.7,0.6,3.8,1.2c1.8,0.9,3.1,2.2,4.1,3.8c1,1.6,1.5,3.5,1.5,5.5c0,2-0.5,3.7-1.5,5.3c-1,1.5-2.5,2.7-4.4,3.6c0.6,0.2,1,0.3,1.4,0.5c0.3,0.1,0.6,0.3,0.9,0.4c0.3,0.1,0.5,0.3,0.7,0.4c0.2,0.1,0.4,0.3,0.7,0.5C34.9,31.1,36.3,34.1,36.3,38 M25.2,20.1c0-1.8-0.6-3.1-1.7-3.9c-1.1-0.8-2.9-1.2-5.5-1.2H9.4v10H18C22.8,25.1,25.2,23.4,25.2,20.1 M26.8,37.4c0-2.1-0.6-3.6-1.9-4.5c-1.3-0.9-3.4-1.4-6.5-1.4H9.4v11.7H19c2.8,0,4.8-0.5,6-1.4C26.2,40.9,26.8,39.4,26.8,37.4"/><path class="st0" d="M79.6,28.7c0,1.5-0.1,3.1-0.4,4.8c-0.2,1.7-0.6,3.1-0.9,4.4c-1,3.1-2.6,5.8-4.8,7.9c-1.8,1.8-3.8,3-6,3.8c-2.2,0.8-5.1,1.1-8.6,1.1H41.2V7.7h17.4c1,0,2.1,0.1,3.4,0.2c1.3,0.1,2.3,0.3,3.2,0.5c2.9,0.6,5.6,1.9,7.9,4c2.1,1.9,3.7,4.3,4.8,7.1C79,22.2,79.6,25.3,79.6,28.7 M70.1,29c0-4.4-1.1-7.8-3.2-10c-2.1-2.2-5.2-3.3-9.4-3.3h-6.9v27.1h7.2c1.3,0,2.4-0.1,3.3-0.2c1-0.1,1.8-0.3,2.6-0.6c0.8-0.3,1.4-0.7,2-1.2c0.6-0.5,1.2-1.1,1.7-1.8C69.2,36.4,70.1,33.2,70.1,29"/><polygon class="st0" points="286.8,9.2 286.8,51.5 332,0 "/><polygon class="st1" points="303.7,20.1 298,20.1 298,14.5 292.4,14.5 292.4,20.1 286.8,20.1 286.8,25.7 292.4,25.7 292.4,31.4 298,31.4 298,25.7 303.7,25.7 "/></svg>