<svg width="540" height="178" viewBox="0 0 540 178" fill="none" xmlns="http://www.w3.org/2000/svg">
<g clip-path="url(#clip0_223_44)">
<path fill-rule="evenodd" clip-rule="evenodd" d="M513.3 140.8V151.4H492.4V141L492.7 140.8C494.1 140.4 494.9 139.8 495.2 139C495.5 138.1 495.7 136.2 495.7 133.2V99.5C495.7 96.6 495.6 94.7 495.2 93.8C494.867 93 494.067 92.4 492.8 92H492.5V81.5H510.4V133.2C510.4 136.4 510.5 138.3 510.8 139C511.1 139.7 511.9 140.3 513.4 140.8H513.3ZM200.1 132.6C200.1 140 198.3 145 194.8 147.6C191.2 150.2 186 151.5 179.1 151.5H148.4V140.2C150 139.8 151 139.2 151.4 138.3C151.9 137.4 152.1 135.7 152.1 133.2V100C152.1 97.4 151.9 95.7 151.5 94.8C151.1 94 150.1 93.3 148.5 93V81.7H176C179.2 81.7 181.7 81.8 183.4 82C185.2 82.2 187.3 82.8 189.7 83.7C192.1 84.6 194.3 86.6 196.2 89.6C198.1 92.6 199 96.2 199 100.5C199 108.8 195.5 113.9 188.7 115.9C196.3 117.5 200.1 123.1 200.1 132.6ZM168.2 109.2H175.4C178 109.2 179.9 108.6 181.1 107.5C182.3 106.4 182.9 104.5 182.9 101.9C182.9 97.3 180.3 94.9 175 94.9H168.2V109.2ZM184 129.6C184 126.6 183.4 124.5 182 123.2C180.7 121.9 178.4 121.3 175.3 121.3H168.2V138.1H175.4C178.5 138.1 180.8 137.4 182.1 136.1C183.4 134.8 184.1 132.6 184 129.6ZM226.7 140.8V151.4H205.8V141L206.1 140.8C207.5 140.4 208.3 139.8 208.6 139C208.9 138.1 209.1 136.2 209.1 133.2V99.5C209.1 96.6 209 94.7 208.6 93.8C208.267 93 207.467 92.4 206.2 92H205.9V81.5H223.7V133.2C223.7 136.4 223.8 138.3 224.1 139C224.4 139.7 225.2 140.3 226.7 140.8ZM148.3 62C148.3 62 147.8 62.3 147.8 63.3C147.8 63.3 149.3 69.1 144.6 70.9C139.9 72.6 136.8 69.4 136.8 69.4C136.8 69.4 133 64.8 127.5 64.2C127.5 64.2 124.7 64.1 125.6 66.8C125.6 66.8 125.8 68.8 127.9 68C127.9 68 131.3 66.1 133.8 69.7C133.8 69.7 135.4 74 141 74.1C141 74.1 137.2 78.5 125.7 72.1C125.7 72.1 114.8 65 109.5 67C109.5 67 101 70.2 103.5 79L106.7 91.8C106.7 91.8 109.5 98.1 101.5 100.8C101.5 100.8 84.5 104.9 78.7 113C78.7 113 73.4 121.6 68.9 125C68.9 125 62 133.5 48.8 134.4C48.8 134.4 64.8 128.5 69.8 107C69.8 107 71.7 87.1 87.1 82C87.1 82 95.7 80 98 70.6C98 70.6 100.5 61.8 112.7 57C112.7 57 110.1 55.1 106.2 58.1L100.7 62.2C100.7 62.2 99.1 64.2 94.6 63.3C94.6 63.3 88 62.8 83.5 62.8C83.5 62.8 79.6 62.8 80.1 58.1C80.1 58.1 80.4 52.8 79.5 50.3C79.5 50.3 78.7 45.8 81.4 43.3C81.4 43.3 78.5 42.3 77.7 48.1C77.7 48.1 77.5 56.8 76.9 59C76.9 59 75.1 64.9 81 65.2L92.1 65C92.1 65 98 64.7 97.2 69.4C97.2 69.4 95.9 75.9 85.3 80C85.3 80 70.3 83.4 66.1 95.7C66.1 95.7 62.5 102.9 60.3 115.5C60.3 115.5 61.1 126.8 46.3 131.9C24.8 139.6 20.1 150.8 20.1 150.8C17.7 153.8 18.2 155.8 18.2 155.8C18.2 158 16.3 164.1 16.3 164.1C12.4 175 5.50001 171.4 5.50001 171.4C3.30001 170.9 0.200011 167 0.200011 167C-0.799989 165 4.30001 160.8 4.30001 160.8C7.30001 158.3 12.6 150 12.6 150C15 147.3 13.8 142.8 13.8 142.8C13.6 139.8 15.2 138.9 15.2 138.9C16.4 137.7 16.6 137.7 16.6 137.7C22.1 128.5 22.1 117.3 22.1 117.3C21.6 111.6 19.6 116.1 19.6 116.1C16.5 122.5 14.8 131.1 14.8 131.1C13.4 123.3 18.7 109.7 18.7 109.7C20.8 105.3 22.8 98.9 22.8 98.9C23.9 94.8 22.3 95.6 22.3 95.6C19.8 95.9 19.3 97.3 19.3 97.3C13.6 107.2 11.7 134.6 11.7 134.6C10.1 109.2 17.3 95.2 17.3 95.2C18.3 93.3 18.1 92.2 18.1 92.2C17.8 89.7 16.7 92.2 16.7 92.2C13.9 97.2 9.70001 115.3 9.70001 115.3C12.7 92.6 20.5 80.4 20.5 80.4C20.5 80.4 25.7 69.6 26 82.9C26.7 91.3 30 90.5 30 90.5C26.2 72.5 35.1 63.5 35.1 63.5C36.9 61.6 32.8 63.2 32.8 63.2C28.3 66 25 71 25 71C39 43.2 57.6 53.2 57.6 53.2C44.8 58.4 41.5 71 41.5 71C48 61 70.8 47.3 70.8 47.3C61.8 50.4 52.6 48.5 52.6 48.5C63.4 46 70.7 37.7 70.7 37.7C78.9 41.8 82.6 38.5 82.6 38.5C77 39.4 72.9 35.4 72.9 35.4C72.6 30.9 70.7 28.1 70.7 28.1C67.7 24.2 66.6 20.3 66.6 20.3C71.8 14.9 87.5 28.6 87.5 28.6C72.4 14.2 83.3 5.09999 83.3 5.09999C89.6 -1.60001 103.3 0.699989 103.3 0.699989C114.5 2.29999 125.3 2.89999 125.3 2.89999C125.3 2.89999 114.1 9.59999 98.8 9.79999C98.8 9.79999 91.6 9.09999 90.7 11C90.7 11 87.2 16.7 95.5 20.8C95.5 20.8 97.7 24.1 90.7 27.2C90.7 27.2 95.8 28.8 97.4 23C99 17.2 107.4 20 107.4 20C107.4 20 114.4 21.4 126.2 31.9C126.2 31.9 129.7 34.7 129.5 40.3C129.5 40.3 128.7 42.2 131.5 44.5C131.5 44.5 135.4 49.6 141.3 50.7C141.3 50.7 145.4 50.6 145.7 53.2C145.8 54.6 147.9 54.9 147.9 54.9C147.9 54.9 153.3 56.8 148.3 62ZM107.3 113.2C104.2 118.6 110.6 123 110.6 123C113.5 125.4 114.3 126.3 114.3 126.3C121.6 136.9 108.7 145 108.7 145C102.2 149.9 102.8 154.4 102.8 154.4C103.1 158.6 102.3 162.8 102.3 162.8C100.9 168 96.5 164.4 96.5 164.4C91 160.1 90.1 155 90.1 155C89 152.1 92.1 151.3 92.1 151.3C94 149.6 94 144.8 94 144.8C94.2 141.3 96.7 141.1 96.7 141.1C99.5 140.3 100.3 137.8 100.3 137.8C102.6 133.6 95.6 129.7 95.6 129.7C85.9 124.4 70.3 130.6 70.3 130.6C92.9 92.1 125.3 111.4 125.3 111.4C108.9 107.5 107.2 113.3 107.3 113.2ZM116.9 33.9C116.9 33.9 113.4 30 110.5 30.6C110.5 30.6 107.8 30.4 107.5 33.7C107.5 33.7 106.6 35.6 109.5 36L115.1 36.1C115.1 36.1 119.3 35.9 116.9 33.9ZM144.3 54.7C143.2 52.7 140.4 53.8 140.4 53.8C140.4 53.8 139.3 54.2 140.2 55.2C141.1 56.2 140.1 57.1 140.1 57.1C140.1 57.1 139.6 59.6 142.1 59.1C146 58.4 144.4 54.7 144.3 54.7ZM121.7 26.1C125.6 22.9 138.3 19.7 143.4 22.7C148.6 25.7 157.3 24.4 157.3 24.4C148.1 31.4 135.6 28.9 135.6 28.9C132.4 30.6 127.6 30.6 127.6 30.6C126.1 28.4 121.7 26.1 121.7 26.1ZM276.9 141H277.3V151.4H260.2V146.6C255.1 150.5 250.1 152.4 245.1 152.4C241 152.4 237.8 151.1 235.4 148.5C233 145.9 231.8 142.4 231.8 138.1C231.8 134.4 232.7 131.4 234.5 129.2C236.3 127 239.6 124.9 244.3 123L255.1 119.1L259.4 117.6V115.4C259.4 111 257.7 108.8 254.3 108.8C250.8 108.8 249.1 111 249.1 115.3V116.5H234.4V104.1C241.8 100.5 248.8 98.7 255.3 98.7C261.1 98.7 265.6 99.9 269 102.4C272.4 104.9 274.1 108.2 274.1 112.4V133.4C274.1 136.6 274.3 138.6 274.6 139.4C274.9 140.2 275.7 140.7 276.9 141ZM259.4 136.3V128L254.6 130.3C251.9 131.5 250 132.7 248.9 133.7C247.8 134.7 247.3 135.9 247.3 137.1C247.3 138.1 247.7 139 248.5 139.8C249.3 140.6 250.2 141 251.3 141C253.7 141 256.4 139.4 259.5 136.3H259.4ZM539.6 140.8V151.4H518.7V141L519 140.8C520.4 140.4 521.2 139.8 521.5 139C521.8 138.1 522 136.2 522 133.2V99.5C522 96.6 521.8 94.7 521.5 93.8C521.167 93 520.367 92.4 519.1 92H518.8V81.5H536.7V133.2C536.7 136.4 536.8 138.3 537.1 139C537.4 139.7 538.2 140.3 539.7 140.8H539.6ZM469.3 148.3C466.5 149.8 464.2 150.8 462.3 151.4C460.4 151.9 458.3 152.2 456 152.2C450.7 152.2 446.9 150.7 444.6 147.8C442.3 144.9 441.2 141.3 441.2 137.2V117.6C441.2 114.7 441 112.8 440.7 111.8C440.4 110.9 439.6 110.3 438.3 110.1H437.9V99.7H454.8C455.2 101.4 455.6 102.8 455.7 104C455.8 105.2 455.9 107.3 455.9 110.4V133.3C455.9 135.8 456.5 137.7 457.6 139.1C458.7 140.5 460.3 141.2 462.5 141.2C464.4 141.2 466.7 140.4 469.3 138.7V117.8C469.3 114.9 469.1 112.9 468.8 112C468.4 111.133 467.6 110.533 466.4 110.2H466.1V99.8H483.9V133.3C483.9 136.3 484.1 138.2 484.4 139.1C484.7 140 485.6 140.5 486.9 140.8H487.3V151.4H469.3V148.3ZM469.9 169.1L475.8 177.4H471.5L467.5 171.2L466.3 172.6V177.4H462.8V157H466.3V169.5H466.4C466.7 169 467.1 168.4 467.5 167.9L470.9 163.4H475.1L469.9 169.1ZM498.7 169.9C498.7 170.6 498.7 171.1 498.6 171.4H489.2C489.3 173.9 491.3 175 493.5 175C495.2 175 496.3 174.8 497.4 174.4L497.9 176.8C496.7 177.3 495 177.7 493 177.7C488.5 177.7 485.8 174.9 485.8 170.6C485.8 166.7 488.1 163.1 492.6 163.1C497.2 163.1 498.7 166.8 498.7 169.9ZM495.3 168.9C495.3 167.6 494.8 165.5 492.4 165.5C490.3 165.5 489.3 167.5 489.2 168.9H495.3ZM515 159.8V163.4H518.4V166H515V172.2C515 173.9 515.5 174.8 516.8 174.8C517.5 174.8 517.8 174.7 518.2 174.6L518.3 177.3C517.8 177.5 516.9 177.7 515.8 177.7C514.5 177.7 513.5 177.2 512.8 176.5C512 175.7 511.7 174.4 511.7 172.6V166H509.7V163.4H511.7V160.8L515 159.8ZM539.6 173.4C539.6 175.9 537.6 177.8 533.9 177.8C532.3 177.8 530.7 177.4 529.7 176.8L530.4 174.2C531.2 174.7 532.7 175.2 534 175.2C535.5 175.2 536.2 174.5 536.2 173.6C536.2 172.7 535.6 172.2 533.9 171.6C531.2 170.6 530.1 169.1 530.1 167.5C530.1 165 532.2 163.1 535.4 163.1C536.9 163.1 538.3 163.5 539.1 163.9L538.4 166.4C537.8 166.1 536.7 165.6 535.5 165.6C534.3 165.6 533.6 166.2 533.6 167.1C533.6 167.9 534.2 168.4 536 169C538.5 170 539.7 171.3 539.6 173.4ZM375.9 141.2V151.5H363C362.1 150.6 361.3 149.6 360.6 148.6C359.9 147.6 358.9 145.9 357.6 143.7L347.9 126.9V133.4C347.9 136.467 348 138.267 348.2 138.8C348.4 139.267 348.8 139.767 349.4 140.3L350.2 140.8H350.9V151.4H329.9V141L330.2 140.8C331.4 140.467 332.2 139.867 332.6 139C332.9 138.1 333.1 136.2 333.1 133.3V99.6C333.1 96.7 333 94.8 332.6 93.9C332.3 93 331.5 92.4 330.2 92H329.9V81.6H347.8V117.1L353.3 110.9C354.4 109.6 355.2 108.4 355.5 107.5C355.8 106.6 356 105.2 356 103.3V99.7H374.7V110.1C373.2 110.4 372.1 110.9 371.4 111.4C370.8 111.9 369.5 113.2 367.7 115.2L362.1 121.5L369.3 134.8C370.9 138 373.1 140.2 375.9 141.2ZM304 98.8C310.3 98.8 317 100.7 323.9 104.5V119H310.2V117.7C310.2 116.6 310.2 115.7 310.1 115.2C310.1 114.7 309.9 114 309.6 113.2C309.3 112.4 308.7 111.6 307.6 110.8C306.5 110 305.4 109.6 304.2 109.6C299.9 109.6 297.8 111.8 297.8 116.4V134.3C297.8 139.2 299.9 141.6 304.1 141.6C305.367 141.6 306.567 141.2 307.7 140.4C308.8 139.6 309.5 138.7 309.7 137.9C310 137 310.1 136.1 310.1 135.1C310.1 134.1 310.1 133 310.2 131.8V130.2H323.9V146.6C318.7 150.4 312.1 152.3 304.1 152.3C296.3 152.3 291.1 151 288.5 148.3C285.8 145.7 284.3 143.6 283.8 142.1C283.3 140.6 283.1 138.2 283.1 135V114.9C283.1 110 285 106 288.7 103.1C292.4 100.2 297.5 98.7 304 98.8ZM450 163.1C450.3 163.1 450.5 163.1 450.8 163.2V166.5C450.5 166.5 450.2 166.4 449.8 166.4C448.1 166.4 446.9 167.5 446.6 169.1C446.6 169.4 446.5 169.8 446.5 170.2V177.4H443V167.9C443 166 443 164.6 442.9 163.4H446L446.1 166.1H446.2C446.9 164.1 448.5 163.1 450 163.1ZM405.5 169.1V177.3H402.1V169.6C402.1 167.3 401.3 165.9 399.6 165.9C398.4 165.9 397.5 166.8 397.1 167.8C397 168.2 396.9 168.6 396.9 169V177.4H393.5V169.3C393.5 167.4 392.7 166 391.1 166C389.8 166 388.9 167 388.6 168C388.5 168.3 388.4 168.7 388.4 169.1V177.4H385V167.6C385 165.9 385 164.6 384.9 163.4H387.9L388 165.5H388.1C388.8 164.4 390 163.1 392.4 163.1C394.3 163.1 395.7 164.1 396.3 165.7H396.4C396.9 164.9 397.4 164.3 398.1 163.9C398.9 163.4 399.8 163.1 400.9 163.1C403.2 163.1 405.6 164.7 405.5 169.1ZM429.7 173.9C429.7 175.2 429.8 176.4 429.9 177.3H426.7L426.5 175.8H426.4C425.6 176.9 424.1 177.7 422.3 177.7C419.5 177.7 417.9 175.6 417.9 173.5C417.9 169.9 421 168.2 426.2 168.2V168C426.2 167.1 425.9 165.6 423.4 165.6C422 165.6 420.5 166 419.6 166.6L418.9 164.3C419.9 163.7 421.7 163.1 423.9 163.1C428.4 163.1 429.7 166 429.7 169V173.9ZM426.3 170.6C423.8 170.5 421.4 171.1 421.4 173.2C421.4 174.6 422.3 175.2 423.4 175.2C424.8 175.2 425.9 174.3 426.2 173.3C426.3 173 426.3 172.7 426.3 172.5V170.6ZM433 132.6C433 140 431.2 145 427.7 147.6C424.1 150.2 418.9 151.5 412 151.5H381.3V140.2C382.9 139.8 383.8 139.2 384.3 138.3C384.8 137.4 385 135.7 385 133.2V100C385 97.4 384.8 95.7 384.4 94.8C384 94 383 93.3 381.4 93V81.7H408.9C412.1 81.7 414.6 81.8 416.3 82C418.1 82.2 420.2 82.8 422.6 83.7C425 84.6 427.2 86.6 429.1 89.6C431 92.6 431.9 96.2 431.9 100.5C431.9 108.8 428.4 113.9 421.6 115.9C429.2 117.5 433 123.1 433 132.6ZM401.1 109.2H408.3C410.9 109.2 412.8 108.6 414 107.5C415.2 106.4 415.8 104.5 415.8 101.9C415.8 97.3 413.2 94.9 407.9 94.9H401.1V109.2ZM416.9 129.6C416.9 126.6 416.3 124.5 414.9 123.2C413.6 121.9 411.3 121.3 408.2 121.3H401.1V138.1H408.3C411.4 138.1 413.7 137.4 415 136.1C416.3 134.8 417 132.6 416.9 129.6Z" fill="#0693E3"/>
</g>
<defs>
<clipPath id="clip0_223_44">
<rect width="540" height="178" fill="white"/>
</clipPath>
</defs>
</svg>
