<svg width="191" height="31" viewBox="0 0 191 31" fill="none" xmlns="http://www.w3.org/2000/svg">
<path d="M34.3477 7.73682H38.1507C39.7693 7.73682 41.0011 7.966 41.8462 8.42437C42.6842 8.88273 43.1068 9.68487 43.1068 10.8451C43.1068 11.5398 42.942 12.1271 42.6197 12.607C42.2975 13.0868 41.8319 13.3805 41.2232 13.4807V13.5667C41.6242 13.6598 41.9895 13.803 42.3261 14.0035C42.6627 14.2041 42.9277 14.4977 43.1211 14.8845C43.3145 15.2712 43.4147 15.7869 43.4147 16.4243C43.4147 17.5344 43.0137 18.401 42.2043 19.0313C41.4022 19.6615 40.3064 19.9766 38.9242 19.9766H34.3477V7.73682ZM36.9331 12.5855H38.4443C39.1963 12.5855 39.7191 12.4709 40.0128 12.2345C40.3064 11.9982 40.4497 11.6473 40.4497 11.1817C40.4497 10.7162 40.2778 10.3796 39.934 10.1719C39.5902 9.96419 39.0459 9.86392 38.3082 9.86392H36.9331V12.5855ZM36.9331 14.641V17.828H38.6305C39.404 17.828 39.9483 17.6776 40.2563 17.3768C40.5643 17.076 40.7218 16.675 40.7218 16.1665C40.7218 15.7081 40.5643 15.3428 40.2491 15.0635C39.934 14.7842 39.3682 14.641 38.5446 14.641H36.9331Z" fill="#02194A"/>
<path d="M48.6356 6.93896H46.0859V19.9666H48.6356V6.93896Z" fill="#02194A"/>
<path d="M60.332 10.6146V19.9753H58.3768L58.033 18.7721H57.8969C57.5961 19.2519 57.1879 19.6029 56.6722 19.8177C56.1494 20.0326 55.5979 20.14 55.0178 20.14C54.008 20.14 53.2058 19.8679 52.5971 19.3235C51.9883 18.7792 51.6875 17.9126 51.6875 16.7094V10.6074H54.2443V16.072C54.2443 16.7452 54.3661 17.2537 54.6024 17.5903C54.8388 17.927 55.2255 18.0989 55.7483 18.0989C56.5218 18.0989 57.059 17.8339 57.3455 17.3039C57.6319 16.7739 57.7752 16.0076 57.7752 15.012V10.6074H60.332V10.6146Z" fill="#02194A"/>
<path d="M67.2868 10.4414C68.5759 10.4414 69.6001 10.8067 70.3521 11.5444C71.1041 12.282 71.4837 13.3277 71.4837 14.6885V15.9203H65.4533C65.4748 16.6365 65.6897 17.2095 66.0979 17.6177C66.5061 18.0259 67.0648 18.2336 67.7881 18.2336C68.3826 18.2336 68.9269 18.1763 69.4282 18.0546C69.9224 17.9328 70.4381 17.7466 70.9609 17.496V19.4655C70.4953 19.6947 70.0083 19.8594 69.507 19.974C69.0057 20.0814 68.3897 20.1387 67.6735 20.1387C66.7353 20.1387 65.9117 19.9668 65.1883 19.6159C64.465 19.265 63.8992 18.7421 63.4909 18.0403C63.0755 17.3384 62.875 16.4431 62.875 15.3545C62.875 14.2659 63.0612 13.3635 63.4336 12.6258C63.8061 11.8953 64.3217 11.3438 64.9878 10.9786C65.6395 10.6205 66.413 10.4414 67.2868 10.4414ZM67.3083 12.2534C66.8069 12.2534 66.3915 12.4109 66.0764 12.7332C65.7541 13.0555 65.5679 13.5497 65.5106 14.2229H69.0916C69.0773 13.6643 68.9269 13.1916 68.6404 12.8192C68.3467 12.4468 67.9027 12.2534 67.3083 12.2534Z" fill="#02194A"/>
<path d="M76.5484 6.93896V9.97565C76.5484 10.3266 76.534 10.6775 76.5126 11.0213C76.4911 11.3651 76.4696 11.6301 76.4409 11.8234H76.5412C76.7919 11.4367 77.1285 11.1072 77.551 10.8351C77.9736 10.5701 78.5251 10.434 79.1983 10.434C80.2511 10.434 81.1034 10.8422 81.748 11.6587C82.3997 12.4752 82.7291 13.6784 82.7291 15.2684C82.7291 16.8655 82.3997 18.0759 81.7336 18.8995C81.0747 19.7231 80.201 20.1313 79.1267 20.1313C78.4391 20.1313 77.902 20.0096 77.5081 19.7661C77.1142 19.5226 76.7919 19.2433 76.5412 18.9353H76.3693L75.9396 19.9666H73.9844V6.93896H76.5484ZM78.3818 12.4752C77.7229 12.4752 77.2502 12.6829 76.9781 13.0983C76.7059 13.5137 76.5627 14.1439 76.5484 14.9747V15.2469C76.5484 16.1493 76.6844 16.844 76.9494 17.331C77.2144 17.818 77.7086 18.0615 78.4176 18.0615C78.9405 18.0615 79.363 17.818 79.671 17.331C79.9789 16.844 80.1365 16.1421 80.1365 15.2325C80.1365 14.3158 79.9789 13.6283 79.6638 13.1699C79.3415 12.7115 78.919 12.4752 78.3818 12.4752Z" fill="#02194A"/>
<path d="M89.1227 10.4414C90.4119 10.4414 91.436 10.8067 92.1881 11.5444C92.9401 12.282 93.3196 13.3277 93.3196 14.6885V15.9203H87.2893C87.3107 16.6365 87.5256 17.2095 87.9338 17.6177C88.3421 18.0259 88.9007 18.2336 89.6241 18.2336C90.2185 18.2336 90.7628 18.1763 91.2642 18.0546C91.7583 17.9328 92.274 17.7466 92.7968 17.496V19.4655C92.3313 19.6947 91.8443 19.8594 91.3429 19.974C90.8416 20.0814 90.2257 20.1387 89.5095 20.1387C88.5712 20.1387 87.7476 19.9668 87.0243 19.6159C86.3009 19.265 85.7351 18.7421 85.3269 18.0403C84.9115 17.3384 84.7109 16.4431 84.7109 15.3545C84.7109 14.2659 84.8971 13.3635 85.2696 12.6258C85.642 11.8953 86.1577 11.3438 86.8237 10.9786C87.4755 10.6205 88.2418 10.4414 89.1227 10.4414ZM89.1442 12.2534C88.6429 12.2534 88.2275 12.4109 87.9123 12.7332C87.5901 13.0555 87.4038 13.5497 87.3465 14.2229H90.9275C90.9132 13.6643 90.7628 13.1916 90.4763 12.8192C90.1755 12.4468 89.7387 12.2534 89.1442 12.2534Z" fill="#02194A"/>
<path d="M101.052 10.4414C101.174 10.4414 101.325 10.4486 101.497 10.4557C101.668 10.4701 101.804 10.4844 101.905 10.5059L101.719 12.9051C101.625 12.8836 101.511 12.8622 101.36 12.8478C101.21 12.8335 101.081 12.8192 100.967 12.8192C100.53 12.8192 100.114 12.898 99.7132 13.0484C99.3121 13.2059 98.9898 13.4494 98.7463 13.7932C98.5028 14.137 98.381 14.6025 98.381 15.197V19.9597H95.8242V10.6133H97.758L98.1375 12.1889H98.2593C98.5314 11.7091 98.911 11.3008 99.3909 10.9571C99.8707 10.6133 100.422 10.4414 101.052 10.4414Z" fill="#02194A"/>
<path d="M109.26 10.4414C109.388 10.4414 109.532 10.4486 109.704 10.4557C109.875 10.4701 110.012 10.4844 110.112 10.5059L109.926 12.9051C109.832 12.8836 109.711 12.8622 109.567 12.8478C109.417 12.8335 109.288 12.8192 109.174 12.8192C108.737 12.8192 108.321 12.898 107.92 13.0484C107.519 13.2059 107.197 13.4494 106.953 13.7932C106.71 14.137 106.588 14.6025 106.588 15.197V19.9597H104.031V10.6133H105.965L106.345 12.1889H106.466C106.738 11.7091 107.118 11.3008 107.598 10.9571C108.078 10.6133 108.629 10.4414 109.26 10.4414Z" fill="#02194A"/>
<path d="M110.91 10.6162H113.703L115.465 15.8803C115.558 16.1453 115.623 16.4031 115.673 16.6681C115.716 16.9331 115.752 17.2124 115.773 17.506H115.823C115.859 17.2124 115.902 16.9259 115.959 16.6681C116.017 16.4031 116.088 16.1453 116.181 15.8803L117.915 10.6162H120.658L116.697 21.173C116.332 22.147 115.809 22.8703 115.136 23.3574C114.462 23.8444 113.682 24.0879 112.787 24.0879C112.486 24.0879 112.235 24.0736 112.035 24.0449C111.827 24.0163 111.648 23.9876 111.483 23.9518V21.925C111.598 21.9465 111.748 21.9679 111.927 21.9966C112.106 22.0181 112.3 22.0324 112.493 22.0324C113.03 22.0324 113.453 21.8677 113.761 21.5454C114.069 21.2231 114.305 20.8292 114.462 20.3708L114.613 19.9053L110.91 10.6162Z" fill="#02194A"/>
<path d="M128.05 19.9695L124.347 9.56312H124.276C124.297 9.80663 124.318 10.1146 124.333 10.4942C124.347 10.8738 124.361 11.2963 124.376 11.7475C124.39 12.1987 124.39 12.6356 124.39 13.0582V19.9623H122.707V7.73682H125.357L128.874 17.5559H128.945L132.562 7.73682H135.198V19.9766H133.4V12.9651C133.4 12.564 133.407 12.1558 133.429 11.7332C133.443 11.3106 133.464 10.9096 133.479 10.5371C133.493 10.1576 133.507 9.84244 133.522 9.59177H133.45L129.647 19.9766H128.05V19.9695Z" fill="#02194A"/>
<path d="M142.256 10.5554C143.409 10.5554 144.275 10.8133 144.848 11.3146C145.428 11.8231 145.715 12.6181 145.715 13.7067V19.9663H144.433L144.075 18.6771H144.003C143.602 19.1784 143.187 19.5509 142.743 19.78C142.306 20.0164 141.697 20.131 140.916 20.131C140.078 20.131 139.391 19.909 138.839 19.4578C138.288 19.0066 138.016 18.2975 138.016 17.345C138.016 16.3924 138.374 15.6762 139.09 15.1964C139.806 14.7094 140.895 14.4444 142.356 14.4014L143.931 14.3513V13.8284C143.931 13.1552 143.781 12.6754 143.466 12.396C143.158 12.1167 142.721 11.9735 142.162 11.9735C141.697 11.9735 141.246 12.0451 140.809 12.1812C140.372 12.3173 139.957 12.482 139.555 12.6754L138.975 11.3576C139.412 11.1284 139.906 10.935 140.472 10.7846C141.045 10.6342 141.64 10.5554 142.256 10.5554ZM143.917 15.5258L142.685 15.5616C141.632 15.6046 140.909 15.7837 140.501 16.0916C140.093 16.3996 139.892 16.8222 139.892 17.3593C139.892 17.8392 140.035 18.1901 140.322 18.4049C140.608 18.6198 140.981 18.7344 141.432 18.7344C142.141 18.7344 142.735 18.5339 143.208 18.1328C143.681 17.7317 143.917 17.1373 143.917 16.3351V15.5258Z" fill="#02194A"/>
<path d="M153.493 10.5554C153.858 10.5554 154.194 10.5841 154.502 10.6414L154.316 12.3388C154.015 12.26 153.707 12.217 153.392 12.217C152.927 12.217 152.49 12.3316 152.089 12.5608C151.688 12.79 151.365 13.1194 151.122 13.5491C150.878 13.9789 150.757 14.4945 150.757 15.1033V19.9734H148.938V10.7345H150.377L150.613 12.3817H150.685C150.972 11.8876 151.351 11.465 151.831 11.1069C152.311 10.7416 152.869 10.5554 153.493 10.5554Z" fill="#02194A"/>
<path d="M158.451 6.93896V13.4492C158.451 13.6784 158.436 13.9505 158.415 14.2728C158.393 14.5951 158.372 14.8816 158.365 15.1323H158.415C158.544 14.9604 158.716 14.7384 158.938 14.4519C159.16 14.1726 159.36 13.9434 159.532 13.7572L162.361 10.7205H164.467L160.75 14.6811L164.71 19.9594H162.569L159.518 15.827L158.458 16.7222V19.9594H156.66V6.93896H158.451Z" fill="#02194A"/>
<path d="M170.298 10.5554C171.508 10.5554 172.461 10.9278 173.163 11.6799C173.857 12.4247 174.208 13.4489 174.208 14.738V15.7335H168.006C168.027 16.6789 168.278 17.4094 168.751 17.9108C169.224 18.4121 169.89 18.6628 170.749 18.6628C171.343 18.6628 171.873 18.6126 172.332 18.4981C172.797 18.3906 173.27 18.2259 173.764 18.011V19.5151C173.299 19.7299 172.826 19.8875 172.36 19.9877C171.895 20.088 171.336 20.131 170.677 20.131C169.789 20.131 169.002 19.9519 168.314 19.601C167.626 19.2429 167.096 18.7201 166.71 18.0254C166.33 17.3307 166.137 16.4641 166.137 15.4184C166.137 14.3799 166.309 13.499 166.66 12.7756C167.01 12.0594 167.49 11.5008 168.113 11.1212C168.729 10.7488 169.46 10.5554 170.298 10.5554ZM170.298 11.9663C169.646 11.9663 169.123 12.174 168.729 12.6037C168.335 13.0263 168.106 13.6279 168.035 14.4014H172.389C172.375 13.6852 172.203 13.0979 171.866 12.6467C171.523 12.1884 171.007 11.9663 170.298 11.9663Z" fill="#02194A"/>
<path d="M180.214 18.665C180.73 18.665 181.188 18.5934 181.603 18.443V19.8181C181.41 19.9112 181.145 19.9828 180.815 20.0473C180.486 20.1118 180.149 20.1404 179.82 20.1404C179.319 20.1404 178.853 20.0545 178.438 19.8826C178.022 19.7107 177.686 19.417 177.435 18.9873C177.184 18.5648 177.055 17.9775 177.055 17.2255V12.119H175.773V11.2954L177.127 10.6078L177.764 8.65259H178.882V10.7296H181.525V12.119H178.882V17.1897C178.882 17.691 179.003 18.0634 179.247 18.3069C179.491 18.5433 179.813 18.665 180.214 18.665Z" fill="#02194A"/>
<path d="M190.018 17.3606C190.018 18.2773 189.689 18.9649 189.03 19.4376C188.371 19.9031 187.447 20.1394 186.258 20.1394C185.606 20.1394 185.048 20.0965 184.589 20.0034C184.124 19.9103 183.701 19.767 183.314 19.5737V17.9837C183.716 18.1771 184.188 18.349 184.725 18.5065C185.27 18.6641 185.8 18.7357 186.308 18.7357C186.996 18.7357 187.49 18.6283 187.791 18.4062C188.092 18.1914 188.242 17.8977 188.242 17.5325C188.242 17.3248 188.185 17.1386 188.07 16.9739C187.955 16.8091 187.741 16.6372 187.425 16.4582C187.11 16.2791 186.652 16.0786 186.043 15.8494C185.449 15.6202 184.947 15.3839 184.546 15.1475C184.138 14.904 183.83 14.6247 183.615 14.2881C183.4 13.9587 183.293 13.5433 183.293 13.0348C183.293 12.2326 183.615 11.6239 184.26 11.1941C184.904 10.7644 185.757 10.5496 186.824 10.5496C187.382 10.5496 187.912 10.6069 188.407 10.7214C188.901 10.836 189.388 10.9936 189.853 11.2013L189.252 12.5907C188.851 12.4188 188.442 12.2756 188.02 12.1538C187.597 12.0321 187.168 11.9748 186.738 11.9748C185.621 11.9748 185.062 12.2971 185.062 12.9488C185.062 13.1637 185.126 13.3571 185.263 13.5146C185.391 13.6722 185.621 13.8369 185.95 13.9945C186.272 14.152 186.731 14.3454 187.311 14.5746C187.869 14.7895 188.356 15.0186 188.758 15.255C189.166 15.4913 189.474 15.7706 189.689 16.1001C189.911 16.4439 190.018 16.8593 190.018 17.3606Z" fill="#02194A"/>
<path d="M23.4542 15.1053C23.7335 14.9907 24.0129 14.8546 24.285 14.7042C28.0594 12.57 29.3915 7.76427 27.2572 3.98991C25.123 0.215542 20.3173 -1.11659 16.5429 1.01768C13.7426 2.60048 12.2959 5.65865 12.5967 8.66668C10.1759 6.8547 6.80977 6.52525 4.00944 8.10805C0.235073 10.2495 -1.09706 15.0552 1.03722 18.8295C3.17149 22.6039 7.97718 23.936 11.7515 21.8018C11.9736 21.68 12.1813 21.5439 12.3818 21.4007C12.2099 22.9835 12.5036 24.6307 13.3415 26.1204C15.4758 29.8948 20.2815 31.2269 24.0558 29.0927C27.8302 26.9584 29.1623 22.1527 27.0281 18.3783C26.1829 16.8743 24.9081 15.7714 23.4542 15.1053ZM10.355 19.3309C7.94137 20.6988 4.86888 19.8465 3.50094 17.433C2.133 15.0194 2.98528 11.9469 5.39886 10.5789C7.81245 9.21099 10.8849 10.0633 12.2529 12.4769C13.6208 14.8904 12.7685 17.9701 10.355 19.3309ZM17.9323 3.48857C20.3459 2.12063 23.4184 2.97291 24.7864 5.38649C26.1543 7.80008 25.302 10.8726 22.8884 12.2405C20.4748 13.6085 17.4023 12.7562 16.0344 10.3426C14.6665 7.929 15.5187 4.85651 17.9323 3.48857ZM15.2466 14.1957L15.1392 13.1787L15.9556 13.7875C16.371 14.0955 16.8294 14.3676 17.3236 14.5896L18.2546 15.0122L17.3092 15.4061C17.0156 15.5279 16.7578 15.6496 16.5286 15.7857C16.3209 15.9003 16.1204 16.0292 15.927 16.1653L15.1177 16.7311L15.2251 15.7499C15.2967 15.2271 15.2967 14.6971 15.2466 14.1957ZM22.6592 26.6218C20.2457 27.9897 17.1732 27.1374 15.8052 24.7238C14.4373 22.3103 15.2896 19.2378 17.7032 17.8698C20.1167 16.5019 23.1892 17.3542 24.5572 19.7678C25.9251 22.1813 25.0728 25.2538 22.6592 26.6218Z" fill="#0E80E1"/>
</svg>
