<svg xmlns="http://www.w3.org/2000/svg" viewBox="0 0 106.37 35"><defs><style>.cls-1,.cls-2{fill:#ec464c;}.cls-1{fill-rule:evenodd;}</style></defs><title>LOGO_HYCM_Capital_Markets_RED</title><g id="Слой_2" data-name="Слой 2"><g id="Layer_1" data-name="Layer 1"><path class="cls-1" d="M71.5,15.34a6,6,0,1,1,0-5.76h0L76.9,6.12A12.36,12.36,0,1,0,77,18.58l-5.47-3.21Z"/><polygon class="cls-1" points="7.13 9.39 16.51 9.39 16.51 0.17 23.64 0.17 23.64 24.86 16.51 24.86 16.51 15.64 7.13 15.64 7.13 24.86 0 24.86 0 0.17 7.13 0.17 7.13 9.39"/><polygon class="cls-1" points="94.03 8.63 99.18 0.17 106.37 0.17 106.37 24.86 99.07 24.86 99.07 10.87 93.95 19.11 88.82 10.87 88.82 24.86 81.69 24.86 81.69 0.17 88.88 0.17 94.03 8.63"/><polygon class="cls-1" points="45.06 12.34 37.26 24.68 29.78 24.68 37.57 12.34 29.78 0 37.26 0 45.06 12.34"/><polygon class="cls-1" points="52.88 0 48.81 6.44 48.45 7.02 44.69 1.1 43.99 0 52.88 0"/><path class="cls-2" d="M3.83,30.48a2.23,2.23,0,0,1,.8,1.24H3.8a1.49,1.49,0,0,0-.55-.7,1.59,1.59,0,0,0-.92-.26,1.44,1.44,0,0,0-.78.21,1.47,1.47,0,0,0-.54.61,2.28,2.28,0,0,0,0,1.85,1.47,1.47,0,0,0,.54.61,1.43,1.43,0,0,0,.78.21A1.59,1.59,0,0,0,3.25,34a1.49,1.49,0,0,0,.55-.7h.84a2.21,2.21,0,0,1-.8,1.23A2.39,2.39,0,0,1,2.34,35a2.36,2.36,0,0,1-1.22-.31,2.13,2.13,0,0,1-.82-.88,3,3,0,0,1,0-2.58,2.16,2.16,0,0,1,.82-.88A2.34,2.34,0,0,1,2.34,30,2.38,2.38,0,0,1,3.83,30.48Z"/><path class="cls-2" d="M11.74,33.89H9.68L9.3,35H8.46l1.8-4.81h.91L13,35h-.84Zm-.22-.61L10.71,31,9.9,33.28Z"/><path class="cls-2" d="M17.74,33.06V35h-.79V30.07h1.66a1.79,1.79,0,0,1,1.27.4,1.44,1.44,0,0,1,.43,1.1,1.4,1.4,0,0,1-.44,1.09,1.8,1.8,0,0,1-1.26.4Zm1.76-1.49a.83.83,0,0,0-.23-.63,1.06,1.06,0,0,0-.74-.22h-.79v1.69h.79Q19.5,32.41,19.5,31.57Z"/><path class="cls-2" d="M25.19,30.07V35H24.4V30.07Z"/><path class="cls-2" d="M32.69,30.07v.64H31.32V35h-.8V30.7H29.17v-.64Z"/><path class="cls-2" d="M39.59,33.89H37.53L37.15,35h-.84l1.8-4.81H39L40.81,35H40Zm-.22-.61L38.56,31l-.81,2.28Z"/><path class="cls-2" d="M45.59,34.34h1.69V35H44.8V30.07h.79Z"/><path class="cls-2" d="M61.38,30.14V35h-.8v-3.6L59.19,35H58.5l-1.4-3.6V35h-.79V30.14h1L58.86,34l1.56-3.84Z"/><path class="cls-2" d="M68.64,33.89H66.58L66.21,35h-.84l1.8-4.81h.91L69.86,35H69Zm-.22-.61L67.61,31l-.81,2.28Z"/><path class="cls-2" d="M76.42,35,75.2,33h-.56v2h-.79V30.07h1.72a1.78,1.78,0,0,1,1.27.41,1.42,1.42,0,0,1,.43,1.08,1.37,1.37,0,0,1-.32.94A1.53,1.53,0,0,1,76,33l1.28,2Zm-1.78-2.51h.87q1,0,1-.84a.83.83,0,0,0-.23-.63,1,1,0,0,0-.72-.22h-.87Z"/><path class="cls-2" d="M82.92,32.48,85.07,35h-1l-1.93-2.26V35h-.79V30.07h.79V32.3l1.94-2.23h1Z"/><path class="cls-2" d="M89.85,30.7v1.48h1.8v.61h-1.8v1.52h2V35H89.06V30.07h2.79v.64Z"/><path class="cls-2" d="M99.17,30.07v.64H97.81V35H97V30.7H95.66v-.64Z"/><path class="cls-2" d="M106.2,34.32a1.26,1.26,0,0,1-.53.49,1.83,1.83,0,0,1-.86.19,2.16,2.16,0,0,1-.89-.18,1.55,1.55,0,0,1-.63-.49,1.41,1.41,0,0,1-.27-.73h.84a.86.86,0,0,0,.27.55.89.89,0,0,0,.64.23.76.76,0,0,0,.56-.19.67.67,0,0,0,.2-.5.64.64,0,0,0-.15-.43A1,1,0,0,0,105,33q-.21-.1-.59-.22a5.12,5.12,0,0,1-.74-.29,1.36,1.36,0,0,1-.49-.42,1.21,1.21,0,0,1-.2-.73,1.24,1.24,0,0,1,.19-.69,1.26,1.26,0,0,1,.55-.46,2,2,0,0,1,.83-.16,1.82,1.82,0,0,1,1.19.36,1.36,1.36,0,0,1,.5.94h-.85a.83.83,0,0,0-.26-.47.81.81,0,0,0-.58-.2.8.8,0,0,0-.53.17.6.6,0,0,0-.2.49.61.61,0,0,0,.14.41,1,1,0,0,0,.35.26l.58.22a5.07,5.07,0,0,1,.76.29,1.37,1.37,0,0,1,.5.43,1.25,1.25,0,0,1,.2.75A1.34,1.34,0,0,1,106.2,34.32Z"/></g></g></svg>