<svg xmlns:xlink="http://www.w3.org/1999/xlink" xmlns="http://www.w3.org/2000/svg" viewBox="0 0 160 38" width="160" height="38">
                                <title class="show-for-sr">Plus500-logo</title>
                                <path class="logo-color-2" d="M142.17 14.9452H155.174C155.562 14.9452 155.915 14.9849 156.246 15.0572C156.578 15.1319 156.881 15.2183 157.157 15.3256C157.476 15.475 157.763 15.6478 158.02 15.8485C158.276 16.0492 158.497 16.2756 158.69 16.53C158.949 16.8265 159.153 17.1532 159.313 17.5127C159.475 17.8721 159.605 18.2339 159.713 18.5887C159.819 18.9692 159.894 19.3496 159.936 19.7301C159.979 20.1105 160 20.4793 160 20.8411V31.8114C160 32.2152 159.979 32.6003 159.936 32.9714C159.894 33.3425 159.816 33.695 159.713 34.0311C159.605 34.4349 159.464 34.8177 159.28 35.1748C159.101 35.5366 158.904 35.8517 158.69 36.1271C158.478 36.3815 158.243 36.6079 157.987 36.8086C157.728 37.0117 157.462 37.1751 157.189 37.2988C156.888 37.4505 156.587 37.5532 156.277 37.6162C155.966 37.6793 155.656 37.7096 155.336 37.7096H142.105C141.742 37.7096 141.38 37.6723 141.018 37.5952C140.658 37.5229 140.315 37.4038 139.997 37.2358C139.677 37.0677 139.379 36.8623 139.104 36.6173C138.826 36.3768 138.572 36.0827 138.337 35.742C138.165 35.4689 138.008 35.1631 137.855 34.8223C137.709 34.4862 137.589 34.1151 137.504 33.716C137.441 33.3962 137.384 33.0671 137.347 32.7147C137.302 32.3692 137.283 31.9958 137.283 31.592V21.1562C137.283 20.7594 137.309 20.3486 137.358 19.9378C137.413 19.5224 137.493 19.1186 137.601 18.7171C137.683 18.3133 137.812 17.9282 137.984 17.5594C138.153 17.1859 138.356 16.8568 138.591 16.5604C138.803 16.285 139.047 16.0352 139.327 15.8135C139.604 15.5894 139.924 15.419 140.284 15.2906C140.543 15.1879 140.83 15.0992 141.147 15.0362C141.467 14.9755 141.808 14.9452 142.17 14.9452ZM150.734 18.7498H146.484C146.338 18.7498 146.183 18.7941 146.02 18.8758C145.863 18.9598 145.729 19.0672 145.621 19.1909C145.494 19.3193 145.392 19.457 145.32 19.6064C145.244 19.7534 145.211 19.9098 145.211 20.0802V32.6376C145.211 32.808 145.254 32.9714 145.352 33.1324C145.447 33.2888 145.559 33.4172 145.684 33.5269C145.816 33.6553 145.964 33.7603 146.136 33.8444C146.305 33.9307 146.477 33.9704 146.646 33.9704H150.736C150.863 33.9704 150.997 33.9377 151.136 33.877C151.277 33.814 151.406 33.7276 151.536 33.6203C151.641 33.5386 151.731 33.4312 151.806 33.3052C151.881 33.1768 151.917 33.0484 151.917 32.9247V19.7954C151.917 19.6717 151.881 19.5457 151.806 19.4173C151.731 19.2913 151.641 19.1862 151.536 19.1022C151.406 18.9972 151.277 18.9108 151.136 18.8478C150.992 18.7824 150.861 18.7498 150.734 18.7498Z" fill="#0C2780"></path>
                                <path class="logo-color-2" d="M116.575 14.9452H129.581C129.962 14.9452 130.317 14.9849 130.651 15.0572C130.98 15.1319 131.281 15.2183 131.561 15.3256C131.881 15.475 132.17 15.6478 132.424 15.8485C132.678 16.0492 132.902 16.2756 133.094 16.53C133.348 16.8265 133.558 17.1532 133.715 17.5127C133.875 17.8721 134.007 18.2339 134.115 18.5887C134.223 18.9692 134.296 19.3496 134.339 19.7301C134.386 20.1105 134.402 20.4793 134.402 20.8411V31.8114C134.402 32.2152 134.383 32.6003 134.339 32.9714C134.299 33.3425 134.226 33.695 134.115 34.0311C134.007 34.4349 133.866 34.8177 133.685 35.1748C133.504 35.5366 133.306 35.8517 133.094 36.1271C132.878 36.3815 132.643 36.6079 132.389 36.8086C132.137 37.0117 131.867 37.1751 131.592 37.2988C131.293 37.4505 130.989 37.5532 130.679 37.6162C130.371 37.6793 130.056 37.7096 129.738 37.7096H116.511C116.147 37.7096 115.785 37.6723 115.425 37.5952C115.058 37.5229 114.719 37.4038 114.399 37.2358C114.082 37.0677 113.783 36.8623 113.503 36.6173C113.226 36.3768 112.969 36.0827 112.737 35.742C112.565 35.4689 112.405 35.1631 112.262 34.8223C112.109 34.4862 111.996 34.1151 111.906 33.716C111.843 33.3962 111.791 33.0671 111.749 32.7147C111.704 32.3692 111.685 31.9958 111.685 31.592V21.1562C111.685 20.7594 111.711 20.3486 111.768 19.9378C111.817 19.5224 111.897 19.1186 112.005 18.7171C112.092 18.3133 112.217 17.9282 112.389 17.5594C112.56 17.1859 112.762 16.8568 112.995 16.5604C113.207 16.285 113.456 16.0352 113.731 15.8135C114.007 15.5894 114.326 15.419 114.689 15.2906C114.947 15.1879 115.232 15.0992 115.552 15.0362C115.874 14.9755 116.213 14.9452 116.575 14.9452ZM125.143 18.7498H120.891C120.74 18.7498 120.587 18.7941 120.427 18.8758C120.267 18.9598 120.131 19.0672 120.027 19.1909C119.898 19.3193 119.795 19.457 119.724 19.6064C119.649 19.7534 119.609 19.9098 119.609 20.0802V32.6376C119.609 32.808 119.661 32.9714 119.755 33.1324C119.853 33.2888 119.966 33.4172 120.091 33.5269C120.218 33.6553 120.364 33.7603 120.535 33.8444C120.707 33.9307 120.879 33.9704 121.048 33.9704H125.14C125.267 33.9704 125.397 33.9377 125.535 33.877C125.672 33.814 125.808 33.7276 125.935 33.6203C126.041 33.5386 126.131 33.4312 126.206 33.3052C126.281 33.1768 126.321 33.0484 126.321 32.9247V19.7954C126.321 19.6717 126.281 19.5457 126.206 19.4173C126.131 19.2913 126.041 19.1862 125.935 19.1022C125.811 18.9972 125.672 18.9108 125.535 18.8478C125.399 18.7824 125.27 18.7498 125.143 18.7498Z" fill="#0C2780"></path>
                                <path class="logo-color-2" d="M108.555 14.9756V18.7195H95.2624L95.039 23.1893H104.404C104.997 23.1893 105.552 23.2733 106.062 23.4437C106.382 23.5511 106.674 23.6888 106.942 23.8568C107.208 24.0272 107.45 24.2256 107.662 24.4567C107.857 24.6504 108.024 24.8581 108.172 25.0939C108.32 25.3273 108.438 25.5677 108.525 25.8198C108.63 26.0976 108.713 26.373 108.762 26.6647C108.814 26.9448 108.845 27.2483 108.845 27.5634V33.527C108.845 33.8631 108.814 34.1712 108.762 34.4466C108.71 34.722 108.628 34.9881 108.525 35.2402C108.416 35.5576 108.266 35.8377 108.078 36.0805C107.887 36.3255 107.685 36.538 107.469 36.7317C107.255 36.8811 107.029 37.0141 106.798 37.1448C106.558 37.2709 106.321 37.3666 106.062 37.4272C105.804 37.5159 105.538 37.579 105.267 37.621C104.985 37.663 104.708 37.684 104.437 37.684H87.7858V34.0055H100.121C100.248 34.0055 100.359 33.9611 100.453 33.8631C100.552 33.7697 100.629 33.6507 100.698 33.499C100.759 33.3519 100.801 33.2002 100.822 33.0391C100.846 32.8828 100.853 32.7357 100.853 32.6097V28.1399C100.853 27.9462 100.822 27.7758 100.775 27.6334C100.721 27.4863 100.651 27.3696 100.564 27.2856C100.481 27.1806 100.38 27.1059 100.263 27.0639C100.145 27.0172 100.023 27.0008 99.8956 27.0008H87.3672L87.5271 14.9803H108.555V14.9756Z" fill="#0C2780"></path>
                                <path class="logo-color-2" d="M83.1244 19.499V22.8578H71.8919C71.819 22.8578 71.7343 22.8765 71.6285 22.9091C71.5226 22.9465 71.4238 22.9862 71.3298 23.0305C71.238 23.0772 71.1604 23.1355 71.104 23.2056C71.0452 23.2733 71.017 23.3549 71.017 23.446V24.4496C71.017 24.5453 71.0523 24.62 71.1205 24.6784C71.191 24.7321 71.271 24.7834 71.3674 24.8301C71.4568 24.8791 71.5579 24.9118 71.6614 24.9351C71.7672 24.9608 71.866 24.9701 71.9577 24.9701H80.2292C80.4856 24.9701 80.7443 24.9911 81.0148 25.0402C81.2829 25.0868 81.5322 25.1452 81.765 25.2129C82.0214 25.3086 82.2589 25.4206 82.4823 25.5607C82.7011 25.6984 82.9057 25.8618 83.0938 26.0462C83.2537 26.2095 83.3996 26.3916 83.5289 26.5993C83.6536 26.8071 83.7664 27.0405 83.8605 27.2926C83.9522 27.5236 84.0205 27.7897 84.0698 28.0862C84.1169 28.3872 84.1404 28.7094 84.1404 29.0571V33.3169C84.1404 33.6413 84.1098 33.9517 84.051 34.2528C83.9946 34.5516 83.9076 34.8434 83.79 35.1164C83.6959 35.3709 83.5665 35.6089 83.4066 35.8284C83.242 36.0501 83.0774 36.2508 82.9174 36.4329C82.7058 36.6196 82.487 36.783 82.2542 36.937C82.0237 37.0888 81.7885 37.2218 81.5581 37.3338C81.2288 37.4739 80.8995 37.5742 80.5632 37.6303C80.2245 37.6839 79.8929 37.7143 79.5684 37.7143H63.3781V34.4232H75.382C75.4761 34.4232 75.5749 34.3999 75.6784 34.3555C75.7842 34.3112 75.8712 34.2505 75.9394 34.1805C76.0312 34.1338 76.1017 34.0661 76.1511 33.9727C76.1958 33.8817 76.2193 33.7883 76.2193 33.695V32.6913C76.2193 32.6026 76.1958 32.5163 76.1511 32.4346C76.1017 32.3529 76.0312 32.2899 75.9394 32.2432C75.8454 32.1731 75.7536 32.1195 75.6619 32.0891C75.5655 32.0494 75.4761 32.0354 75.382 32.0354H67.1152C66.7883 32.0354 66.4567 32.0051 66.1204 31.9491C65.7817 31.8931 65.4525 31.7927 65.1255 31.6527C64.9162 31.5616 64.7116 31.4449 64.5141 31.3072C64.3165 31.1695 64.1495 31.0084 64.0084 30.8217C63.8697 30.6607 63.7473 30.4809 63.6439 30.2849C63.5404 30.0911 63.451 29.8857 63.3805 29.678C63.3334 29.4913 63.2981 29.2975 63.277 29.0898C63.2535 28.8844 63.2417 28.6603 63.2417 28.4316V23.5837C63.2417 23.2592 63.277 22.9675 63.3475 22.6991C63.4157 22.4353 63.5075 22.1762 63.6251 21.9195C63.7662 21.6907 63.9167 21.469 64.079 21.2636C64.2412 21.0559 64.427 20.8738 64.6364 20.7104C64.8457 20.526 65.0738 20.3626 65.316 20.2249C65.5606 20.0849 65.8099 19.9728 66.0663 19.8795C66.3909 19.7674 66.7295 19.6717 67.0776 19.6017C67.428 19.5317 67.762 19.499 68.0889 19.499H83.1244V19.499Z" fill="#0C2780"></path>
                                <path class="logo-color-2" d="M46.1059 19.4313V33.1441C46.1059 33.2585 46.1412 33.3799 46.2117 33.5036C46.2823 33.632 46.3622 33.744 46.4563 33.835C46.5716 33.9237 46.6939 34.0007 46.8232 34.0568C46.9502 34.1174 47.0725 34.1455 47.1901 34.1455H50.9907C51.1083 34.1455 51.2283 34.1221 51.3576 34.0754C51.4846 34.0311 51.5952 33.9611 51.6892 33.8677C51.7833 33.7767 51.8656 33.6786 51.9362 33.5713C52.0044 33.4709 52.0397 33.3589 52.0397 33.2445V19.4617H60.5181V37.7096H42.6886C42.2912 37.7096 41.9219 37.6699 41.5715 37.5859C41.2234 37.5089 40.8965 37.3968 40.5955 37.2591C40.2921 37.0981 40.0146 36.9067 39.7582 36.6873C39.5018 36.4679 39.269 36.2345 39.0597 35.9777C38.8504 35.7233 38.6575 35.4385 38.4835 35.1304C38.3094 34.8153 38.1636 34.5002 38.0484 34.1758C37.9543 33.8514 37.8791 33.5246 37.8226 33.1908C37.7638 32.857 37.7356 32.5256 37.7356 32.2011V19.4243H46.1059V19.4313Z" fill="#0C2780"></path>
                                <path class="logo-color-2" d="M34.8947 37.5953C34.8947 37.5953 30.7436 37.635 30.3932 37.5953C30.0357 37.5509 29.7158 37.3432 29.4148 37.1588C29.1114 36.9488 28.8315 36.6943 28.5775 36.4002C28.3188 36.1108 28.0884 35.8004 27.879 35.4643C27.6697 35.1258 27.4769 34.75 27.3028 34.3439C27.1288 33.9261 26.983 33.5106 26.8677 33.0835C26.7737 32.654 26.6984 32.2222 26.642 31.7787C26.5832 31.3399 26.5549 30.9011 26.5549 30.4693V13.5681H34.9299L34.8947 37.5953Z" fill="#0C2780"></path>
                                <path class="logo-color-2" d="M0 30.915V12.9215H18.4928C18.8173 12.9215 19.156 12.9425 19.5041 12.9915C19.8545 13.0382 20.1908 13.1082 20.5177 13.1993C20.8423 13.316 21.1645 13.4607 21.4773 13.6311C21.7924 13.8085 22.0746 14.0092 22.3334 14.2403C22.5192 14.448 22.6932 14.6697 22.8555 14.9148C23.0177 15.1552 23.1565 15.4283 23.2741 15.7271C23.3893 16.0305 23.4764 16.3573 23.5375 16.7167C23.594 17.0762 23.6245 17.4613 23.6245 17.8768V24.0411C23.6245 24.4333 23.5963 24.8021 23.5375 25.1498C23.4787 25.4953 23.3917 25.808 23.2741 26.0835C23.18 26.3612 23.053 26.6226 22.8907 26.8607C22.7261 27.1058 22.5521 27.3205 22.3663 27.5026C22.157 27.7103 21.9312 27.8901 21.6866 28.0371C21.442 28.1888 21.1809 28.3195 20.9011 28.4362C20.553 28.5763 20.1908 28.6743 19.8192 28.7303C19.4476 28.7887 19.0737 28.819 18.7021 28.819H8.68781V37.6489H3.8359H0V30.915ZM8.68781 17.0062V24.7297H13.8502C13.9913 24.7297 14.123 24.6853 14.2523 24.5896C14.3793 24.4986 14.4899 24.3819 14.5839 24.2442C14.6757 24.1042 14.7462 23.9548 14.7933 23.7937C14.8379 23.635 14.8615 23.4809 14.8615 23.3432V18.2176C14.8615 18.0355 14.8332 17.8651 14.7744 17.7134C14.7156 17.564 14.6404 17.4426 14.5487 17.3516C14.4546 17.2349 14.3441 17.1486 14.2171 17.0902C14.0901 17.0318 13.9678 17.0038 13.8502 17.0038H8.68781V17.0062Z" fill="#0C2780"></path>
                                <path class="logo-color-1" d="M88.0966 4.36708H83.1271V0H75.4647V4.36708H70.4976V11.5117H75.4647V15.8788H83.1271V11.5117H88.0966V4.36708Z" fill="#0C2780"></path>
                            </svg>