<svg width="210" height="30" viewBox="0 0 210 30" fill="none" xmlns="http://www.w3.org/2000/svg">
<g clip-path="url(#clip0_215_31)">
<path fill-rule="evenodd" clip-rule="evenodd" d="M18.764 1.39404C23.7097 3.48866 27.0949 7.94773 27.0949 13.0955C27.0949 18.2455 23.7085 22.7045 18.7628 24.797C13.8182 22.7045 10.4307 18.2455 10.4307 13.0955C10.4307 7.94668 13.8182 3.48761 18.764 1.39404Z" fill="#002ED9"/>
<path fill-rule="evenodd" clip-rule="evenodd" d="M18.7701 1.3964C20.484 0.486105 22.4391 0 24.5069 0C31.6946 0 37.5295 5.86913 37.5295 13.099C37.5295 20.3278 31.6946 26.1969 24.5069 26.1969C22.4391 26.1969 20.484 25.7118 18.769 24.8005C23.0914 22.7069 26.0527 18.2478 26.0527 13.099C26.0527 7.9501 23.0925 3.49102 18.7701 1.3964Z" fill="#0099FA"/>
<path fill-rule="evenodd" clip-rule="evenodd" d="M18.7605 24.7994C17.0455 25.7108 15.0894 26.1969 13.0226 26.1969H5.33701L1.87782 29.6764C1.56363 29.9924 1.09079 30.0869 0.679524 29.9158C0.268261 29.7446 0 29.3415 0 28.8931V1.69039C0 0.757003 0.75259 0 1.68054 0H13.0644C15.1175 0.0062996 17.059 0.492421 18.7615 1.39641C14.438 3.48998 11.4767 7.94905 11.4767 13.0979C11.4767 18.2479 14.438 22.7069 18.7605 24.7994Z" fill="#1A4DDE"/>
<path fill-rule="evenodd" clip-rule="evenodd" d="M110.169 21.9951C106.412 21.9215 103.388 18.8753 103.388 15.1092C103.388 11.342 106.423 8.28383 110.169 8.28383C113.914 8.28383 116.961 11.342 116.961 15.1092C116.961 15.4902 116.928 15.8637 116.873 16.2285H106.74C107.177 17.8122 108.607 18.9662 110.223 19.0063C111.741 19.003 113.008 18.6371 114.012 17.7505L116.033 19.8539C115.923 19.974 115.803 20.0888 115.683 20.197C114.318 21.4474 112.429 21.9973 110.169 21.9951ZM128.143 20.8076L127.684 21.0555C124.43 22.8655 120.084 22.138 119.909 17.7505L119.876 16.8964V11.25H117.736V8.55879H119.964L120.215 3.97754H123.098V8.55879H126.439V11.25H123.098V17.1357H123.109C123.098 19.423 124.91 19.1676 125.893 18.5397L128.143 20.8076ZM86.8877 20.9776C85.8722 21.5848 84.6928 21.9345 83.4261 21.9345C79.6806 21.9345 76.634 18.8753 76.634 15.1092C76.634 11.342 79.6806 8.28383 83.4261 8.28383C84.6819 8.28383 85.8612 8.62916 86.8768 9.23213C87.2917 9.47894 88.1107 10.1176 88.613 10.9793L86.3636 13.1898C85.7739 12.0326 84.7037 11.2521 83.4261 11.2521C81.5151 11.2521 80.1173 12.9798 80.1173 15.1092C80.1173 17.2374 81.5151 18.9662 83.4261 18.9662C84.7037 18.9662 85.7739 18.1857 86.3636 17.0274L88.613 19.2347C88.1107 20.0931 87.2917 20.7297 86.8768 20.9765L86.8877 20.9776ZM68.2257 8.28383C71.9712 8.28383 75.007 11.342 75.007 15.1092C75.007 18.8753 71.9712 21.9345 68.2257 21.9345C64.4802 21.9345 61.4336 18.8753 61.4336 15.1092C61.4336 11.342 64.4802 8.28383 68.2257 8.28383ZM93.7999 13.9898L95.6236 11.6819L98.7029 8.54472H103.158L97.0212 14.8656L103.671 21.7223H99.2161L94.7936 17.1627L94.0948 17.7278L94.0838 21.7223H90.7642V3.97754H94.0838V10.2962L93.7999 13.9898ZM53.1236 3.97754C56.9019 3.97754 59.9594 7.39724 59.9594 11.1947C59.9594 11.1947 59.9594 11.198 59.9594 11.2002C59.9594 14.9966 56.9019 18.57 53.1236 18.57H50.6229V21.7223H46.8447V3.97754H53.1236ZM68.2257 11.2521C70.1257 11.2521 71.4908 12.9798 71.4908 15.1092C71.4908 17.2374 70.1257 18.9662 68.2257 18.9662C66.3147 18.9662 64.8952 17.2374 64.8952 15.1092C64.8952 12.9798 66.3147 11.2521 68.2257 11.2521ZM56.2248 11.1958C56.2248 9.30898 54.8271 7.43837 52.9598 7.43837H50.6229V15.1092H52.9598C54.8271 15.1092 56.2248 13.4388 56.2248 11.1991V11.1958ZM113.565 13.9898C113.128 12.4061 111.73 11.2002 110.169 11.2002C108.618 11.2002 107.177 12.4061 106.74 13.9898H113.565Z" fill="#1A4DDE"/>
<path fill-rule="evenodd" clip-rule="evenodd" d="M152.103 10.1511C153.337 8.96581 155.007 8.23835 156.853 8.23835C160.653 8.23835 163.743 11.343 163.743 15.1676C163.743 18.9921 160.653 22.0968 156.853 22.0968C155.007 22.0968 153.337 21.3694 152.103 20.1851V26.5558H149.963V8.60208H152.103V10.1511ZM174.292 21.0208L173.822 21.2676C170.525 23.1057 166.932 22.0145 166.768 17.7548V10.5127H164.278V8.61615H166.768V3.89525H168.908V8.61615H172.73V10.5127H168.908V17.3478C168.908 20.656 171.595 20.4027 172.698 19.4197L174.292 21.0208ZM187.876 8.23835C191.676 8.23835 194.766 11.343 194.766 15.1676C194.766 18.9921 191.676 22.0968 187.876 22.0968C184.076 22.0968 180.986 18.9921 180.986 15.1676C180.986 11.343 184.076 8.23835 187.876 8.23835ZM138.387 3.71338C143.411 3.71338 147.473 7.8075 147.473 12.852C147.473 17.8966 143.411 21.9918 138.387 21.9918C133.375 21.9918 129.302 17.8966 129.302 12.852C129.302 7.8075 133.375 3.71338 138.387 3.71338ZM178.583 8.60208H176.443V21.719H178.583V8.60208ZM207.87 15.1676C207.87 12.2902 206.374 10.0862 203.732 10.0862C201.559 10.0862 198.992 11.3549 198.992 15.1665V21.719H196.896V8.60208H198.992V10.2507C200.281 8.67028 202.236 8.23835 203.885 8.23835C207.608 8.23835 210.032 10.569 210 14.7692C210 14.8764 209.989 15.0929 209.978 15.3029V21.719H207.87V15.1676ZM187.876 9.95415C190.573 9.95415 192.768 12.2902 192.768 15.1676C192.768 18.0449 190.573 20.381 187.876 20.381C185.179 20.381 182.995 18.0449 182.995 15.1676C182.995 12.2902 185.179 9.95415 187.876 9.95415ZM156.853 9.95415C159.55 9.95415 161.734 12.2902 161.734 15.1676C161.734 18.0449 159.55 20.381 156.853 20.381C154.156 20.381 151.972 18.0449 151.972 15.1676C151.972 12.2902 154.156 9.95415 156.853 9.95415ZM138.387 5.61214C142.133 5.61214 145.169 8.85647 145.169 12.852C145.169 16.8476 142.133 20.092 138.387 20.092C134.653 20.092 131.606 16.8476 131.606 12.852C131.606 8.85647 134.653 5.61214 138.387 5.61214ZM177.513 3.89525C178.321 3.89525 178.987 4.56208 178.987 5.38372C178.987 6.20428 178.321 6.87111 177.513 6.87111C176.694 6.87111 176.028 6.20428 176.028 5.38372C176.028 4.56208 176.694 3.89525 177.513 3.89525Z" fill="#0099FA"/>
</g>
<defs>
<clipPath id="clip0_215_31">
<rect width="210" height="30" fill="white"/>
</clipPath>
</defs>
</svg>
