<svg width="159" height="42" viewBox="0 0 159 42" fill="none" xmlns="http://www.w3.org/2000/svg">
<path d="M103.26 29.009C105.364 29.009 107.094 30.052 108.007 31.718L108.112 31.92V29.46H109.354V40.814H108.112V38.376C107.232 40.136 105.449 41.266 103.259 41.266C99.851 41.266 97.39 38.692 97.39 35.148C97.39 31.582 99.85 29.008 103.26 29.008V29.009ZM134.3 29.009C137.675 29.009 140.101 31.445 140.21 34.842L140.214 35.081V35.555H129.492C129.672 38.218 131.636 40.115 134.277 40.115C136.147 40.115 137.932 38.984 138.586 37.409L138.656 37.225L139.875 37.428C139.153 39.64 136.828 41.265 134.322 41.265C130.778 41.265 128.228 38.67 128.228 35.081C128.228 31.559 130.778 29.009 134.3 29.009ZM144.143 26.864V29.483H147.19V30.543H144.143V38.218C144.143 39.369 144.843 40.137 145.926 40.159C146.284 40.159 146.751 40.097 147.158 39.997L147.394 39.934V41.017C146.942 41.175 146.264 41.265 145.701 41.265C144.068 41.265 142.981 40.153 142.906 38.435L142.902 38.241V30.543H140.96V29.483H142.947L143.082 26.864H144.143ZM153.304 29.009C155.921 29.009 157.874 30.611 157.874 32.823L156.654 32.801C156.654 31.266 155.234 30.182 153.304 30.182C151.641 30.182 150.332 31.13 150.332 32.462C150.332 33.625 151.327 34.042 153.075 34.331L153.924 34.463L154.294 34.527C156.156 34.866 158.117 35.507 158.117 37.654C158.117 39.754 156.232 41.265 153.637 41.265C150.842 41.265 148.846 39.527 148.846 37.135H150.044C150.044 38.873 151.552 40.115 153.637 40.115C155.544 40.115 156.919 39.098 156.919 37.745C156.919 36.199 155.084 35.808 153.581 35.6L153.415 35.577L152.8 35.481C150.784 35.145 149.134 34.594 149.134 32.44C149.134 30.453 150.931 29.009 153.304 29.009ZM80.543 24.945L86.908 39.053L93.273 24.945H95.215V40.814H93.883V26.661L87.495 40.814H86.344L79.956 26.684V40.814H78.624V24.945H80.543ZM116.495 29.031C116.96 29.031 117.457 29.131 117.917 29.301L118.143 29.392V30.589C117.556 30.318 116.947 30.182 116.427 30.182C114.614 30.182 113.436 31.768 113.361 34.12L113.358 34.358V40.814H112.094V29.46H113.312V31.243C113.922 29.866 115.028 29.031 116.495 29.031ZM121.041 24.268V34.245L126.481 29.46H128.219L122.124 34.81L128.422 40.814H126.707L121.041 35.397V40.814H119.777V24.268H121.041ZM103.372 30.182C100.618 30.182 98.632 32.259 98.632 35.148C98.632 38.015 100.618 40.114 103.372 40.114C106.058 40.114 108.112 38.015 108.112 35.148C108.112 32.282 106.058 30.182 103.372 30.182ZM134.254 30.182C131.759 30.182 129.879 31.817 129.541 34.2L129.514 34.426H138.927C138.679 31.92 136.783 30.182 134.254 30.182Z" fill="#007BEE" stroke="#007BEE" stroke-width="0.567"/>
<path d="M85.6139 0.317994C89.7439 0.317994 92.7519 2.74199 92.8779 6.10799L92.8829 6.32799H89.3219C89.3459 4.62499 87.8089 3.40799 85.7119 3.40799C83.7849 3.40799 82.5169 4.30799 82.5169 5.57399C82.5169 6.96399 83.7769 7.34599 85.5089 7.60899L85.7109 7.63899L86.4429 7.73899L87.0749 7.81699C90.2319 8.23299 93.2969 9.10799 93.2969 12.85C93.2969 16.402 90.3459 18.86 85.9309 18.86C81.6079 18.86 78.4779 16.317 78.3499 12.784L78.3459 12.558H82.0289C82.0289 14.431 83.7119 15.77 86.0529 15.77C88.0529 15.77 89.2969 14.772 89.2969 13.385C89.2969 12.055 88.0459 11.648 86.4179 11.397L85.8179 11.313L84.8439 11.187C81.5629 10.739 78.5159 9.90699 78.5159 6.03699C78.5159 2.65399 81.4189 0.317994 85.6139 0.317994ZM97.757 6.49799L100.147 15.238L102.424 6.49799H105.612L108.049 15.311L110.417 6.49899H113.855L110.303 18.86H105.977L104.018 10.724L102.06 18.86H97.7339L94.2039 6.49999H97.757V6.49799ZM119.195 6.49799V18.86H115.137V6.49999H119.195V6.49799ZM126.05 2.78999V5.92599H128.795V8.69799H126.05V13.973C126.05 15.019 126.665 15.723 127.66 15.723C127.935 15.723 128.343 15.673 128.704 15.586L128.914 15.529V18.471C128.125 18.7207 127.303 18.8522 126.476 18.861C124.133 18.861 122.593 17.097 122.505 14.57L122.501 14.338V8.69799H120.797V5.92599H122.667L123.069 2.78999H126.05ZM137.552 5.26199C140.845 5.26199 143.612 7.24999 144.124 10.041L144.16 10.263L140.63 10.706C140.301 9.35199 139.015 8.36599 137.577 8.36599C135.737 8.36599 134.299 9.91799 134.299 12.061C134.299 14.204 135.711 15.756 137.577 15.756C139.001 15.756 140.193 14.855 140.603 13.591L140.654 13.416L144.185 13.86C143.706 16.766 140.881 18.86 137.552 18.86C133.492 18.86 130.515 16.003 130.515 12.061C130.515 8.11999 133.466 5.26199 137.552 5.26199ZM149.489 1.14199V8.01899C150.328 6.82499 151.833 6.15599 153.363 6.15599C156.197 6.15599 158.073 8.10099 158.171 10.867L158.176 11.099V18.86H154.474V11.84C154.474 10.36 153.585 9.33199 152.104 9.30899C150.729 9.30899 149.58 10.346 149.494 11.806L149.489 11.983V18.86H145.787V1.14199H149.489ZM117.166 1.34799C118.48 1.34799 119.408 2.24399 119.408 3.49799C119.408 4.77799 118.48 5.67399 117.166 5.67399C115.851 5.67399 114.923 4.77799 114.923 3.49799C114.923 2.24399 115.851 1.34799 117.166 1.34799Z" fill="#007BEE"/>
<path fill-rule="evenodd" clip-rule="evenodd" d="M46.8603 16.8877L57.1276 26.0055C57.1743 26.047 57.2103 26.0993 57.2323 26.1577C57.2544 26.2162 57.262 26.2792 57.2543 26.3412C57.2467 26.4033 57.2241 26.4625 57.1885 26.5139C57.1529 26.5653 57.1054 26.6073 57.05 26.6362L37.5168 36.8749C37.3733 36.9501 37.2104 36.9799 37.0496 36.9604C36.8888 36.9409 36.7377 36.8729 36.6164 36.7656L12.0829 15.0333C12.0287 14.985 11.9887 14.9228 11.9672 14.8534C11.9457 14.784 11.9435 14.7101 11.9608 14.6396C11.9781 14.569 12.0143 14.5045 12.0655 14.453C12.1167 14.4015 12.181 14.3649 12.2514 14.3471L24.2725 11.3434C28.2046 10.3611 32.3169 10.3526 36.2529 11.3188C40.189 12.2849 43.83 14.1964 46.8603 16.8877Z" fill="url(#paint0_linear_223_47)"/>
<path fill-rule="evenodd" clip-rule="evenodd" d="M30.0541 0.317993H69.1021C69.2519 0.318178 69.3987 0.360507 69.5257 0.440146C69.6526 0.519785 69.7546 0.633523 69.82 0.768369C69.8854 0.903216 69.9115 1.05373 69.8955 1.20273C69.8794 1.35173 69.8217 1.49321 69.729 1.61099L65.1401 7.43099C63.2807 9.78913 60.9109 11.6951 58.209 13.0055C55.507 14.316 52.5431 14.9969 49.5401 14.997H12.3551C12.2798 14.9968 12.2061 14.9753 12.1425 14.9351C12.0789 14.8949 12.028 14.8375 11.9955 14.7696C11.963 14.7018 11.9503 14.6261 11.9589 14.5513C11.9675 14.4766 11.997 14.4057 12.0441 14.347L19.1771 5.51399C20.4877 3.89121 22.1449 2.5823 24.0272 1.68321C25.9095 0.784128 27.9681 0.317656 30.0541 0.317993Z" fill="url(#paint1_linear_223_47)"/>
<path fill-rule="evenodd" clip-rule="evenodd" d="M20.8901 25.968H56.9471C57.0213 25.968 57.0942 25.9887 57.1574 26.0277C57.2205 26.0668 57.2716 26.1227 57.3048 26.1891C57.3381 26.2556 57.3521 26.3299 57.3454 26.4039C57.3388 26.4779 57.3116 26.5486 57.2671 26.608L52.0871 33.478C50.3285 35.8106 48.0524 37.703 45.438 39.0062C42.8236 40.3095 39.9423 40.9878 37.0211 40.988H0.617058C0.542428 40.9878 0.469337 40.9668 0.406047 40.9272C0.342757 40.8877 0.291794 40.8312 0.258919 40.7642C0.226043 40.6972 0.212567 40.6223 0.220014 40.5481C0.227461 40.4738 0.255534 40.4031 0.301058 40.344L5.60306 33.478C7.40764 31.141 9.72398 29.2489 12.3741 27.947C15.0242 26.6451 17.9374 25.9681 20.8901 25.968Z" fill="url(#paint2_linear_223_47)"/>
<defs>
<linearGradient id="paint0_linear_223_47" x1="2804" y1="3950.49" x2="17.9913" y2="-415.703" gradientUnits="userSpaceOnUse">
<stop stop-color="#0AA4DD"/>
<stop offset="0.21062" stop-color="#0378AD"/>
<stop offset="0.46709" stop-color="#006194"/>
<stop offset="1" stop-color="#00E792"/>
</linearGradient>
<linearGradient id="paint1_linear_223_47" x1="2909.14" y1="0.317993" x2="2909.14" y2="1468.22" gradientUnits="userSpaceOnUse">
<stop stop-color="#00F198"/>
<stop offset="1" stop-color="#00DA8A"/>
</linearGradient>
<linearGradient id="paint2_linear_223_47" x1="2856.67" y1="25.968" x2="2856.67" y2="1527.97" gradientUnits="userSpaceOnUse">
<stop stop-color="#007BEE"/>
<stop offset="1" stop-color="#00AECA"/>
</linearGradient>
</defs>
</svg>
