<svg width="182" height="48" viewBox="0 0 182 48" fill="none" xmlns="http://www.w3.org/2000/svg">
<g clip-path="url(#clip0_223_38)">
<path d="M101.81 10.63L96.93 0.0300293H80.22L90.49 21.23L101.81 10.63Z" fill="black"/>
<path d="M141.46 0H111.6L70.75 48H87L97.7 35.24L103.58 48H131.63L135.39 26.64L138.8 38.4L149 26.16L141.46 0ZM118.57 44.15L108.62 23L125.81 3.09L118.57 44.15Z" fill="black"/>
<path d="M166.96 0.0300293L139.67 41.44H153.36L163.75 25.24L159.74 47.97H173.54L182 0.0300293H166.96Z" fill="black"/>
<path d="M21.5301 1.79005C21.2141 4.01517 21.1103 6.26529 21.2201 8.51005C21.5401 11.68 23.5101 13.3 26.1001 14.31C27.0084 14.7666 28.0294 14.9507 29.0401 14.84C29.4415 14.7022 29.8143 14.4921 30.1401 14.22C31.1189 13.5762 32.2293 13.1594 33.3901 13C35.1596 12.8812 36.9355 13.1053 38.6201 13.66C40.1398 14.0221 41.6105 14.566 43.0001 15.28C43.6074 15.6606 44.1067 16.1909 44.4501 16.82C45.0501 17.82 45.2901 19.54 46.6501 19.82C46.825 18.3468 46.8685 16.861 46.7801 15.38C46.8656 14.0075 47.0561 12.6435 47.3501 11.3C47.7405 9.43031 48.2244 7.58132 48.8001 5.76005C48.8901 5.48005 49.1401 4.07005 49.6801 4.27005C49.9201 4.35005 49.8701 4.93005 49.8601 5.27005C49.8601 6.45005 49.7301 7.27005 49.6401 8.48005C49.3361 11.3173 49.4101 14.1823 49.8601 17C50.228 18.3445 50.3899 19.737 50.3401 21.13C50.3401 21.51 50.1101 21.97 50.0401 22.4C49.9701 22.83 50.0401 23.05 49.9501 23.32C49.744 23.8199 49.4787 24.2933 49.1601 24.73C49.015 24.9565 48.8815 25.1901 48.7601 25.43C48.6101 25.71 48.3501 25.84 48.3701 26.13C48.3701 26.58 49.2701 27.45 49.7301 27.58C51.7301 28.14 53.8701 28.43 55.0401 29.58C55.823 30.3191 56.31 31.318 56.4101 32.39C56.4385 33.3842 56.2112 34.3689 55.7501 35.25C55.4701 35.88 55.2001 37.45 54.7501 37.75C54.3001 38.05 53.8401 37.8401 53.4301 38.0601C53.2363 38.6093 53.0924 39.1749 53.0001 39.75C52.6701 40.22 52.1701 40.5201 51.8101 40.9701C51.9301 41.9701 51.2701 42.28 50.4101 42.34C47.8401 44.43 42.7401 43.0501 40.5701 41.6301C39.4901 42.4001 38.2901 43.0501 38.4201 45.0201C39.2846 45.6131 40.2098 46.1126 41.1801 46.51C42.6501 47 44.4501 46.7401 45.4001 47.6101C45.4784 47.6817 45.5519 47.7586 45.6201 47.84H53.0001L73.84 23.58L62.4301 0.0500488H21.6701C21.6201 0.650049 21.5801 1.22005 21.5301 1.79005Z" fill="#FF0000"/>
<path d="M2.38 47.6101C3.85376 46.2341 5.58306 45.1605 7.47 44.4501C8.91652 43.9212 10.2907 43.2123 11.56 42.34C11.9629 41.9004 12.478 41.5788 13.05 41.41C14.1265 41.3976 15.1965 41.577 16.21 41.94C17.2028 42.1238 18.2265 42.0411 19.1769 41.7003C20.1272 41.3595 20.9703 40.7728 21.62 40C22.319 39.4119 22.8994 38.6958 23.33 37.89C23.6351 36.641 23.723 35.3489 23.59 34.07C23.59 31.33 24.59 29.4001 24.65 26.8701C24.5283 25.5839 24.4849 24.2915 24.52 23C23.024 22.3897 21.6516 21.512 20.47 20.41C19.41 19.23 18.18 17.03 18.54 15.1C17.561 13.6289 17.0263 11.907 17 10.14C17.0935 8.30804 17.4644 6.50082 18.1 4.78005C18.56 3.22005 19.01 1.64005 19.49 0.0500488H10.33L0 47.84H2.18C2.24 47.77 2.31 47.6801 2.38 47.6101Z" fill="#FF0000"/>
</g>
<defs>
<clipPath id="clip0_223_38">
<rect width="182" height="48" fill="white"/>
</clipPath>
</defs>
</svg>
